IntelOneMono-BoldItalic.ufo
<glyph name="ampersand" format="2">
  <advance width="614"/>
  <unicode hex="0026"/>
  <outline>
    <contour>
      <point x="270" y="280" type="line"/>
      <point x="232" y="268"/>
      <point x="195" y="250"/>
      <point x="180" y="235" type="qcurve"/>
      <point x="168" y="223"/>
      <point x="156" y="186"/>
      <point x="156" y="162" type="qcurve"/>
      <point x="156" y="134"/>
      <point x="185" y="105"/>
      <point x="213" y="105" type="qcurve"/>
      <point x="241" y="105"/>
      <point x="283" y="131"/>
      <point x="312" y="166" type="qcurve"/>
    </contour>
    <contour>
      <point x="18" y="137" type="qcurve"/>
      <point x="18" y="193"/>
      <point x="43" y="264"/>
      <point x="70" y="291" type="qcurve"/>
      <point x="94" y="315"/>
      <point x="168" y="349"/>
      <point x="237" y="367" type="qcurve"/>
      <point x="221" y="410"/>
      <point x="209" y="463"/>
      <point x="209" y="487" type="qcurve"/>
      <point x="209" y="568"/>
      <point x="323" y="669"/>
      <point x="415" y="669" type="qcurve"/>
      <point x="460" y="669"/>
      <point x="535" y="662"/>
      <point x="581" y="655" type="qcurve"/>
      <point x="557" y="548" type="line"/>
      <point x="515" y="554"/>
      <point x="460" y="559"/>
      <point x="438" y="559" type="qcurve"/>
      <point x="395" y="559"/>
      <point x="345" y="518"/>
      <point x="345" y="483" type="qcurve"/>
      <point x="345" y="473"/>
      <point x="349" y="452"/>
      <point x="354" y="439" type="qcurve"/>
      <point x="409" y="284" type="line"/>
      <point x="517" y="422" type="line"/>
      <point x="602" y="350" type="line"/>
      <point x="455" y="176" type="line"/>
      <point x="518" y="-1" type="line"/>
      <point x="379" y="-1" type="line"/>
      <point x="353" y="76" type="line"/>
      <point x="305" y="27"/>
      <point x="227" y="-14"/>
      <point x="175" y="-14" type="qcurve"/>
      <point x="101" y="-14"/>
      <point x="18" y="66"/>
    </contour>
  </outline>
</glyph>
<glyph name="asterisk" format="2">
  <advance width="614"/>
  <unicode hex="002A"/>
  <outline>
    <contour>
      <point x="172" y="153" type="qcurve"/>
      <point x="102" y="233" type="line"/>
      <point x="116" y="246"/>
      <point x="153" y="271"/>
      <point x="194" y="295" type="qcurve"/>
      <point x="242" y="323"/>
      <point x="292" y="357"/>
      <point x="314" y="376" type="qcurve"/>
      <point x="294" y="382"/>
      <point x="246" y="389"/>
      <point x="200" y="391" type="qcurve"/>
      <point x="158" y="393"/>
      <point x="119" y="399"/>
      <point x="105" y="404" type="qcurve"/>
      <point x="179" y="521" type="line"/>
      <point x="193" y="516"/>
      <point x="221" y="496"/>
      <point x="248" y="472" type="qcurve"/>
      <point x="279" y="444"/>
      <point x="316" y="418"/>
      <point x="336" y="409" type="qcurve"/>
      <point x="343" y="434"/>
      <point x="349" y="487"/>
      <point x="349" y="535" type="qcurve"/>
      <point x="350" y="575"/>
      <point x="354" y="613"/>
      <point x="359" y="630" type="qcurve"/>
      <point x="483" y="630" type="line"/>
      <point x="478" y="614"/>
      <point x="460" y="575"/>
      <point x="438" y="535" type="qcurve"/>
      <point x="411" y="487"/>
      <point x="387" y="434"/>
      <point x="379" y="409" type="qcurve"/>
      <point x="403" y="418"/>
      <point x="453" y="443"/>
      <point x="497" y="471" type="qcurve"/>
      <point x="537" y="495"/>
      <point x="575" y="514"/>
      <point x="591" y="519" type="qcurve"/>
      <point x="608" y="404" type="line"/>
      <point x="591" y="399"/>
      <point x="549" y="392"/>
      <point x="506" y="388" type="qcurve"/>
      <point x="457" y="384"/>
      <point x="404" y="376"/>
      <point x="380" y="369" type="qcurve"/>
      <point x="392" y="352"/>
      <point x="423" y="319"/>
      <point x="455" y="292" type="qcurve"/>
      <point x="485" y="269"/>
      <point x="509" y="243"/>
      <point x="516" y="230" type="qcurve"/>
      <point x="397" y="153" type="line"/>
      <point x="390" y="165"/>
      <point x="380" y="200"/>
      <point x="374" y="239" type="qcurve"/>
      <point x="367" y="284"/>
      <point x="354" y="329"/>
      <point x="345" y="347" type="qcurve"/>
      <point x="324" y="328"/>
      <point x="282" y="283"/>
      <point x="248" y="238" type="qcurve"/>
      <point x="218" y="200"/>
      <point x="187" y="166"/>
    </contour>
  </outline>
</glyph>
<glyph name="plus" format="2">
  <advance width="614"/>
  <unicode hex="002B"/>
  <outline>
    <contour>
      <point x="251" y="272" type="line"/>
      <point x="72" y="272" type="line"/>
      <point x="105" y="388" type="line"/>
      <point x="285" y="388" type="line"/>
      <point x="340" y="581" type="line"/>
      <point x="471" y="581" type="line"/>
      <point x="416" y="388" type="line"/>
      <point x="594" y="388" type="line"/>
      <point x="561" y="272" type="line"/>
      <point x="382" y="272" type="line"/>
      <point x="327" y="79" type="line"/>
      <point x="196" y="79" type="line"/>
    </contour>
  </outline>
</glyph>
<glyph name="comma" format="2">
  <advance width="614"/>
  <unicode hex="002C"/>
  <outline>
    <contour>
      <point x="103" y="-171" type="qcurve"/>
      <point x="-38" y="-171" type="line"/>
      <point x="-37" y="-169" type="line"/>
      <point x="87" y="-51"/>
      <point x="159" y="53"/>
      <point x="199" y="160" type="qcurve"/>
      <point x="415" y="160" type="line"/>
      <point x="342" y="19"/>
      <point x="232" y="-94"/>
    </contour>
  </outline>
</glyph>
<glyph name="one" format="2">
  <advance width="614"/>
  <unicode hex="0031"/>
  <outline>
    <contour>
      <point x="469" y="0" type="line"/>
      <point x="27" y="0" type="line"/>
      <point x="61" y="120" type="line"/>
      <point x="212" y="120" type="line"/>
      <point x="340" y="474" type="line"/>
      <point x="170" y="401" type="line"/>
      <point x="210" y="545" type="line"/>
      <point x="494" y="665" type="line"/>
      <point x="549" y="665" type="line"/>
      <point x="356" y="120" type="line"/>
      <point x="503" y="120" type="line"/>
    </contour>
  </outline>
</glyph>
<glyph name="two" format="2">
  <advance width="614"/>
  <unicode hex="0032"/>
  <outline>
    <contour>
      <point x="491" y="0" type="line"/>
      <point x="4" y="0" type="line"/>
      <point x="4" y="70" type="line"/>
      <point x="272" y="291" type="line"/>
      <point x="393" y="391"/>
      <point x="463" y="468"/>
      <point x="463" y="497" type="qcurve"/>
      <point x="463" y="519"/>
      <point x="432" y="545"/>
      <point x="406" y="545" type="qcurve"/>
      <point x="368" y="545"/>
      <point x="279" y="499"/>
      <point x="197" y="439" type="qcurve"/>
      <point x="131" y="534" type="line"/>
      <point x="219" y="607"/>
      <point x="356" y="670"/>
      <point x="427" y="670" type="qcurve"/>
      <point x="505" y="670"/>
      <point x="614" y="580"/>
      <point x="614" y="511" type="qcurve"/>
      <point x="614" y="450"/>
      <point x="518" y="334"/>
      <point x="405" y="250" type="qcurve"/>
      <point x="235" y="123" type="line"/>
      <point x="235" y="120" type="line"/>
      <point x="525" y="120" type="line"/>
    </contour>
  </outline>
</glyph>
<glyph name="three" format="2">
  <advance width="614"/>
  <unicode hex="0033"/>
  <outline>
    <contour>
      <point x="422" y="535" type="line"/>
      <point x="152" y="535" type="line"/>
      <point x="187" y="655" type="line"/>
      <point x="635" y="655" type="line"/>
      <point x="635" y="585" type="line"/>
      <point x="397" y="387" type="line"/>
      <point x="397" y="384" type="line"/>
      <point x="475" y="371"/>
      <point x="548" y="303"/>
      <point x="548" y="242" type="qcurve"/>
      <point x="548" y="131"/>
      <point x="360" y="12"/>
      <point x="165" y="-1" type="qcurve"/>
      <point x="15" y="-10" type="line"/>
      <point x="40" y="122" type="line"/>
      <point x="153" y="130" type="line"/>
      <point x="274" y="139"/>
      <point x="396" y="187"/>
      <point x="396" y="226" type="qcurve"/>
      <point x="396" y="252"/>
      <point x="359" y="274"/>
      <point x="313" y="278" type="qcurve"/>
      <point x="293" y="280"/>
      <point x="238" y="282"/>
      <point x="202" y="282" type="qcurve"/>
      <point x="195" y="349" type="line"/>
      <point x="422" y="532" type="line"/>
    </contour>
  </outline>
</glyph>
<glyph name="four" format="2">
  <advance width="614"/>
  <unicode hex="0034"/>
  <outline>
    <contour>
      <point x="299" y="151" type="line"/>
      <point x="10" y="151" type="line"/>
      <point x="38" y="247" type="line"/>
      <point x="425" y="655" type="line"/>
      <point x="608" y="655" type="line"/>
      <point x="474" y="264" type="line"/>
      <point x="601" y="264" type="line"/>
      <point x="568" y="151" type="line"/>
      <point x="436" y="151" type="line"/>
      <point x="384" y="0" type="line"/>
      <point x="250" y="0" type="line"/>
    </contour>
    <contour>
      <point x="344" y="249" type="line"/>
      <point x="451" y="554" type="line"/>
      <point x="168" y="253" type="line"/>
      <point x="168" y="249" type="line"/>
    </contour>
  </outline>
</glyph>
<glyph name="six" format="2">
  <advance width="614"/>
  <unicode hex="0036"/>
  <outline>
    <contour>
      <point x="606" y="653" type="line"/>
      <point x="449" y="524" type="line"/>
      <point x="423" y="503"/>
      <point x="377" y="462"/>
      <point x="357" y="444" type="qcurve"/>
      <point x="465" y="414"/>
      <point x="558" y="326"/>
      <point x="558" y="247" type="qcurve"/>
      <point x="558" y="139"/>
      <point x="395" y="-15"/>
      <point x="271" y="-15" type="qcurve"/>
      <point x="167" y="-15"/>
      <point x="50" y="86"/>
      <point x="50" y="175" type="qcurve"/>
      <point x="50" y="271"/>
      <point x="165" y="441"/>
      <point x="303" y="557" type="qcurve"/>
      <point x="420" y="655" type="line"/>
      <point x="606" y="655" type="line"/>
    </contour>
    <contour>
      <point x="276" y="361" type="qcurve"/>
      <point x="236" y="314"/>
      <point x="197" y="233"/>
      <point x="197" y="195" type="qcurve"/>
      <point x="197" y="150"/>
      <point x="242" y="102"/>
      <point x="283" y="102" type="qcurve"/>
      <point x="338" y="102"/>
      <point x="410" y="181"/>
      <point x="410" y="237" type="qcurve"/>
      <point x="410" y="287"/>
      <point x="349" y="341"/>
    </contour>
  </outline>
</glyph>
<glyph name="seven" format="2">
  <advance width="614"/>
  <unicode hex="0037"/>
  <outline>
    <contour>
      <point x="622" y="529" type="line"/>
      <point x="217" y="0" type="line"/>
      <point x="46" y="0" type="line"/>
      <point x="46" y="2" type="line"/>
      <point x="472" y="530" type="line"/>
      <point x="472" y="535" type="line"/>
      <point x="145" y="535" type="line"/>
      <point x="180" y="655" type="line"/>
      <point x="658" y="655" type="line"/>
    </contour>
  </outline>
</glyph>
<glyph name="semicolon" format="2">
  <advance width="614"/>
  <unicode hex="003B"/>
  <outline>
    <contour>
      <point x="497" y="418" type="qcurve"/>
      <point x="497" y="361"/>
      <point x="416" y="292"/>
      <point x="349" y="292" type="qcurve"/>
      <point x="294" y="292"/>
      <point x="239" y="329"/>
      <point x="239" y="365" type="qcurve"/>
      <point x="239" y="422"/>
      <point x="320" y="491"/>
      <point x="387" y="491" type="qcurve"/>
      <point x="442" y="491"/>
      <point x="497" y="454"/>
    </contour>
    <contour>
      <point x="96" y="-171" type="qcurve"/>
      <point x="-45" y="-171" type="line"/>
      <point x="-44" y="-169" type="line"/>
      <point x="80" y="-51"/>
      <point x="152" y="53"/>
      <point x="192" y="160" type="qcurve"/>
      <point x="408" y="160" type="line"/>
      <point x="335" y="19"/>
      <point x="225" y="-94"/>
    </contour>
  </outline>
</glyph>
<glyph name="equal" format="2">
  <advance width="614"/>
  <unicode hex="003D"/>
  <outline>
    <contour>
      <point x="574" y="384" type="line"/>
      <point x="123" y="384" type="line"/>
      <point x="156" y="500" type="line"/>
      <point x="607" y="500" type="line"/>
    </contour>
    <contour>
      <point x="510" y="161" type="line"/>
      <point x="59" y="161" type="line"/>
      <point x="92" y="276" type="line"/>
      <point x="543" y="276" type="line"/>
    </contour>
  </outline>
</glyph>
<glyph name="greater" format="2">
  <advance width="614"/>
  <unicode hex="003E"/>
  <outline>
    <contour>
      <point x="598" y="385" type="line"/>
      <point x="560" y="254" type="line"/>
      <point x="16" y="52" type="line"/>
      <point x="58" y="195" type="line"/>
      <point x="442" y="328" type="line"/>
      <point x="134" y="462" type="line"/>
      <point x="170" y="589" type="line"/>
    </contour>
  </outline>
</glyph>
<glyph name="question" format="2">
  <advance width="614"/>
  <unicode hex="003F"/>
  <outline>
    <contour>
      <point x="316" y="277" type="qcurve"/>
      <point x="218" y="277" type="line"/>
      <point x="219" y="320"/>
      <point x="222" y="362"/>
      <point x="227" y="378" type="qcurve"/>
      <point x="233" y="400"/>
      <point x="271" y="430"/>
      <point x="312" y="447" type="qcurve"/>
      <point x="388" y="478" type="line"/>
      <point x="444" y="501"/>
      <point x="489" y="536"/>
      <point x="489" y="562" type="qcurve"/>
      <point x="489" y="582"/>
      <point x="456" y="605"/>
      <point x="426" y="605" type="qcurve"/>
      <point x="390" y="605"/>
      <point x="284" y="580"/>
      <point x="184" y="549" type="qcurve"/>
      <point x="152" y="664" type="line"/>
      <point x="249" y="696"/>
      <point x="393" y="725"/>
      <point x="458" y="725" type="qcurve"/>
      <point x="548" y="725"/>
      <point x="642" y="650"/>
      <point x="642" y="579" type="qcurve"/>
      <point x="642" y="510"/>
      <point x="563" y="424"/>
      <point x="465" y="384" type="qcurve"/>
      <point x="380" y="349" type="line"/>
      <point x="355" y="339"/>
      <point x="333" y="314"/>
    </contour>
    <contour>
      <point x="76" y="46" type="qcurve"/>
      <point x="76" y="102"/>
      <point x="150" y="161"/>
      <point x="222" y="161" type="qcurve"/>
      <point x="278" y="161"/>
      <point x="330" y="132"/>
      <point x="330" y="100" type="qcurve"/>
      <point x="330" y="44"/>
      <point x="256" y="-15"/>
      <point x="184" y="-15" type="qcurve"/>
      <point x="128" y="-15"/>
      <point x="76" y="14"/>
    </contour>
  </outline>
</glyph>
<glyph name="C" format="2">
  <advance width="614"/>
  <unicode hex="0043"/>
  <outline>
    <contour>
      <point x="282" y="-15" type="qcurve"/>
      <point x="173" y="-15"/>
      <point x="59" y="104"/>
      <point x="59" y="219" type="qcurve"/>
      <point x="59" y="303"/>
      <point x="116" y="465"/>
      <point x="167" y="529" type="qcurve"/>
      <point x="223" y="597"/>
      <point x="372" y="670"/>
      <point x="458" y="670" type="qcurve"/>
      <point x="520" y="670"/>
      <point x="618" y="633"/>
      <point x="665" y="593" type="qcurve"/>
      <point x="589" y="488" type="line"/>
      <point x="544" y="524"/>
      <point x="485" y="550"/>
      <point x="447" y="550" type="qcurve"/>
      <point x="400" y="550"/>
      <point x="305" y="488"/>
      <point x="269" y="434" type="qcurve"/>
      <point x="239" y="388"/>
      <point x="207" y="281"/>
      <point x="207" y="225" type="qcurve"/>
      <point x="207" y="169"/>
      <point x="256" y="105"/>
      <point x="297" y="105" type="qcurve"/>
      <point x="333" y="105"/>
      <point x="414" y="132"/>
      <point x="473" y="164" type="qcurve"/>
      <point x="530" y="60" type="line"/>
      <point x="466" y="22"/>
      <point x="343" y="-15"/>
    </contour>
  </outline>
</glyph>
<glyph name="D" format="2">
  <advance width="614"/>
  <unicode hex="0044"/>
  <outline>
    <contour>
      <point x="7" y="0" type="line"/>
      <point x="195" y="655" type="line"/>
      <point x="289" y="655" type="line"/>
      <point x="391" y="655"/>
      <point x="522" y="620"/>
      <point x="559" y="583" type="qcurve"/>
      <point x="587" y="555"/>
      <point x="615" y="478"/>
      <point x="615" y="429" type="qcurve"/>
      <point x="615" y="342"/>
      <point x="558" y="196"/>
      <point x="503" y="141" type="qcurve"/>
      <point x="433" y="71"/>
      <point x="219" y="0"/>
      <point x="77" y="0" type="qcurve"/>
    </contour>
    <contour>
      <point x="467" y="422" type="qcurve"/>
      <point x="467" y="486"/>
      <point x="396" y="537"/>
      <point x="306" y="537" type="qcurve"/>
      <point x="305" y="537" type="line"/>
      <point x="187" y="124" type="line"/>
      <point x="316" y="142"/>
      <point x="467" y="305"/>
    </contour>
  </outline>
</glyph>
<glyph name="E" format="2">
  <advance width="614"/>
  <unicode hex="0045"/>
  <outline>
    <contour>
      <point x="19" y="0" type="line"/>
      <point x="207" y="655" type="line"/>
      <point x="661" y="655" type="line"/>
      <point x="626" y="535" type="line"/>
      <point x="318" y="535" type="line"/>
      <point x="276" y="390" type="line"/>
      <point x="553" y="390" type="line"/>
      <point x="518" y="270" type="line"/>
      <point x="241" y="270" type="line"/>
      <point x="198" y="120" type="line"/>
      <point x="508" y="120" type="line"/>
      <point x="474" y="0" type="line"/>
    </contour>
  </outline>
</glyph>
<glyph name="F" format="2">
  <advance width="614"/>
  <unicode hex="0046"/>
  <outline>
    <contour>
      <point x="27" y="0" type="line"/>
      <point x="215" y="655" type="line"/>
      <point x="660" y="655" type="line"/>
      <point x="625" y="535" type="line"/>
      <point x="326" y="535" type="line"/>
      <point x="274" y="356" type="line"/>
      <point x="546" y="356" type="line"/>
      <point x="512" y="236" type="line"/>
      <point x="240" y="236" type="line"/>
      <point x="172" y="0" type="line"/>
    </contour>
  </outline>
</glyph>
<glyph name="H" format="2">
  <advance width="614"/>
  <unicode hex="0048"/>
  <outline>
    <contour>
      <point x="7" y="0" type="line"/>
      <point x="195" y="655" type="line"/>
      <point x="339" y="655" type="line"/>
      <point x="263" y="390" type="line"/>
      <point x="439" y="390" type="line"/>
      <point x="515" y="655" type="line"/>
      <point x="659" y="655" type="line"/>
      <point x="471" y="0" type="line"/>
      <point x="327" y="0" type="line"/>
      <point x="404" y="270" type="line"/>
      <point x="228" y="270" type="line"/>
      <point x="151" y="0" type="line"/>
    </contour>
  </outline>
</glyph>
<glyph name="I" format="2">
  <advance width="614"/>
  <unicode hex="0049"/>
  <outline>
    <contour>
      <point x="48" y="0" type="line"/>
      <point x="71" y="80" type="line"/>
      <point x="193" y="108" type="line"/>
      <point x="330" y="552" type="line"/>
      <point x="207" y="575" type="line"/>
      <point x="230" y="655" type="line"/>
      <point x="618" y="655" type="line"/>
      <point x="595" y="575" type="line"/>
      <point x="473" y="547" type="line"/>
      <point x="336" y="103" type="line"/>
      <point x="459" y="80" type="line"/>
      <point x="436" y="0" type="line"/>
    </contour>
  </outline>
</glyph>
<glyph name="J" format="2">
  <advance width="614"/>
  <unicode hex="004A"/>
  <outline>
    <contour>
      <point x="290" y="-16" type="qcurve"/>
      <point x="214" y="-16"/>
      <point x="96" y="51"/>
      <point x="13" y="139" type="qcurve"/>
      <point x="108" y="230" type="line"/>
      <point x="175" y="165"/>
      <point x="248" y="117"/>
      <point x="285" y="117" type="qcurve"/>
      <point x="326" y="117"/>
      <point x="378" y="168"/>
      <point x="394" y="224" type="qcurve"/>
      <point x="518" y="655" type="line"/>
      <point x="663" y="655" type="line"/>
      <point x="534" y="205" type="line"/>
      <point x="501" y="90"/>
      <point x="385" y="-16"/>
    </contour>
  </outline>
</glyph>
<glyph name="L" format="2">
  <advance width="614"/>
  <unicode hex="004C"/>
  <outline>
    <contour>
      <point x="19" y="0" type="line"/>
      <point x="207" y="655" type="line"/>
      <point x="352" y="655" type="line"/>
      <point x="198" y="119" type="line"/>
      <point x="519" y="119" type="line"/>
      <point x="485" y="0" type="line"/>
    </contour>
  </outline>
</glyph>
<glyph name="N" format="2">
  <advance width="614"/>
  <unicode hex="004E"/>
  <outline>
    <contour>
      <point x="253" y="422" type="line"/>
      <point x="138" y="0" type="line"/>
      <point x="6" y="0" type="line"/>
      <point x="194" y="655" type="line"/>
      <point x="333" y="655" type="line"/>
      <point x="414" y="237" type="line"/>
      <point x="528" y="655" type="line"/>
      <point x="660" y="655" type="line"/>
      <point x="472" y="0" type="line"/>
      <point x="334" y="0" type="line"/>
    </contour>
  </outline>
</glyph>
<glyph name="P" format="2">
  <advance width="614"/>
  <unicode hex="0050"/>
  <outline>
    <contour>
      <point x="10" y="0" type="line"/>
      <point x="198" y="655" type="line"/>
      <point x="436" y="655" type="line"/>
      <point x="537" y="655"/>
      <point x="645" y="560"/>
      <point x="645" y="473" type="qcurve"/>
      <point x="645" y="420"/>
      <point x="612" y="334"/>
      <point x="579" y="301" type="qcurve"/>
      <point x="535" y="257"/>
      <point x="404" y="213"/>
      <point x="318" y="213" type="qcurve"/>
      <point x="216" y="213" type="line"/>
      <point x="155" y="0" type="line"/>
    </contour>
    <contour>
      <point x="491" y="460" type="qcurve"/>
      <point x="491" y="500"/>
      <point x="451" y="535"/>
      <point x="404" y="535" type="qcurve"/>
      <point x="309" y="535" type="line"/>
      <point x="250" y="330" type="line"/>
      <point x="321" y="330" type="line"/>
      <point x="401" y="330"/>
      <point x="491" y="399"/>
    </contour>
  </outline>
</glyph>
<glyph name="Q" format="2">
  <advance width="614"/>
  <unicode hex="0051"/>
  <outline>
    <contour>
      <point x="445" y="49" type="qcurve"/>
      <point x="559" y="-129" type="line"/>
      <point x="391" y="-195" type="line"/>
      <point x="327" y="0" type="line"/>
      <point x="312" y="-3"/>
      <point x="284" y="-5"/>
      <point x="270" y="-5" type="qcurve"/>
      <point x="164" y="-5"/>
      <point x="54" y="96"/>
      <point x="54" y="192" type="qcurve"/>
      <point x="54" y="247"/>
      <point x="64" y="313"/>
      <point x="78" y="363" type="qcurve"/>
      <point x="121" y="514"/>
      <point x="289" y="670"/>
      <point x="407" y="670" type="qcurve"/>
      <point x="513" y="670"/>
      <point x="623" y="564"/>
      <point x="623" y="463" type="qcurve"/>
      <point x="623" y="408"/>
      <point x="613" y="342"/>
      <point x="599" y="292" type="qcurve"/>
      <point x="575" y="207"/>
      <point x="498" y="85"/>
    </contour>
    <contour>
      <point x="201" y="198" type="qcurve"/>
      <point x="201" y="152"/>
      <point x="240" y="105"/>
      <point x="279" y="105" type="qcurve"/>
      <point x="336" y="105"/>
      <point x="421" y="207"/>
      <point x="451" y="310" type="qcurve"/>
      <point x="464" y="356"/>
      <point x="476" y="425"/>
      <point x="476" y="457" type="qcurve"/>
      <point x="476" y="503"/>
      <point x="436" y="550"/>
      <point x="397" y="550" type="qcurve"/>
      <point x="340" y="550"/>
      <point x="256" y="448"/>
      <point x="226" y="345" type="qcurve"/>
      <point x="213" y="299"/>
      <point x="201" y="230"/>
    </contour>
  </outline>
</glyph>
<glyph name="S" format="2">
  <advance width="614"/>
  <unicode hex="0053"/>
  <outline>
    <contour>
      <point x="311" y="111" type="qcurve"/>
      <point x="361" y="111"/>
      <point x="407" y="139"/>
      <point x="407" y="170" type="qcurve"/>
      <point x="407" y="197"/>
      <point x="371" y="231"/>
      <point x="320" y="259" type="qcurve"/>
      <point x="268" y="287" type="line"/>
      <point x="197" y="325"/>
      <point x="139" y="406"/>
      <point x="139" y="468" type="qcurve"/>
      <point x="139" y="557"/>
      <point x="274" y="664"/>
      <point x="390" y="664" type="qcurve"/>
      <point x="443" y="664"/>
      <point x="548" y="646"/>
      <point x="627" y="622" type="qcurve"/>
      <point x="590" y="500" type="line"/>
      <point x="525" y="521"/>
      <point x="426" y="541"/>
      <point x="386" y="541" type="qcurve"/>
      <point x="334" y="541"/>
      <point x="283" y="509"/>
      <point x="283" y="476" type="qcurve"/>
      <point x="283" y="455"/>
      <point x="313" y="422"/>
      <point x="351" y="401" type="qcurve"/>
      <point x="403" y="373" type="line"/>
      <point x="492" y="326"/>
      <point x="551" y="250"/>
      <point x="551" y="186" type="qcurve"/>
      <point x="551" y="93"/>
      <point x="425" y="-13"/>
      <point x="312" y="-13" type="qcurve"/>
      <point x="241" y="-13"/>
      <point x="95" y="15"/>
      <point x="10" y="45" type="qcurve"/>
      <point x="51" y="169" type="line"/>
      <point x="139" y="138"/>
      <point x="262" y="111"/>
    </contour>
  </outline>
</glyph>
<glyph name="V" format="2">
  <advance width="614"/>
  <unicode hex="0056"/>
  <outline>
    <contour>
      <point x="151" y="0" type="line"/>
      <point x="148" y="655" type="line"/>
      <point x="290" y="655" type="line"/>
      <point x="282" y="167" type="line"/>
      <point x="555" y="655" type="line"/>
      <point x="706" y="655" type="line"/>
      <point x="329" y="0" type="line"/>
    </contour>
  </outline>
</glyph>
<glyph name="Y" format="2">
  <advance width="614"/>
  <unicode hex="0059"/>
  <outline>
    <contour>
      <point x="550" y="655" type="line"/>
      <point x="719" y="655" type="line"/>
      <point x="391" y="277" type="line"/>
      <point x="311" y="0" type="line"/>
      <point x="167" y="0" type="line"/>
      <point x="246" y="275" type="line"/>
      <point x="135" y="655" type="line"/>
      <point x="285" y="655" type="line"/>
      <point x="348" y="414" type="line"/>
    </contour>
  </outline>
</glyph>
<glyph name="bracketright" format="2">
  <advance width="614"/>
  <unicode hex="005D"/>
  <outline>
    <contour>
      <point x="442" y="678" type="line"/>
      <point x="195" y="678" type="line"/>
      <point x="230" y="797" type="line"/>
      <point x="621" y="797" type="line"/>
      <point x="350" y="-148" type="line"/>
      <point x="-41" y="-148" type="line"/>
      <point x="-7" y="-28" type="line"/>
      <point x="239" y="-28" type="line"/>
    </contour>
  </outline>
</glyph>
<glyph name="underscore" format="2">
  <advance width="614"/>
  <unicode hex="005F"/>
  <outline>
    <contour>
      <point x="-36" y="-161" type="line"/>
      <point x="3" y="-26" type="line"/>
      <point x="461" y="-26" type="line"/>
      <point x="422" y="-161" type="line"/>
    </contour>
  </outline>
</glyph>
<glyph name="d" format="2">
  <advance width="614"/>
  <unicode hex="0064"/>
  <outline>
    <contour>
      <point x="473" y="0" type="line"/>
      <point x="367" y="0" type="line"/>
      <point x="357" y="53" type="line"/>
      <point x="317" y="22"/>
      <point x="238" y="-8"/>
      <point x="196" y="-8" type="qcurve"/>
      <point x="125" y="-8"/>
      <point x="31" y="96"/>
      <point x="31" y="182" type="qcurve"/>
      <point x="31" y="316"/>
      <point x="223" y="490"/>
      <point x="374" y="490" type="qcurve"/>
      <point x="397" y="490"/>
      <point x="443" y="486"/>
      <point x="466" y="482" type="qcurve"/>
      <point x="532" y="710" type="line"/>
      <point x="677" y="710" type="line"/>
    </contour>
    <contour>
      <point x="368" y="371" type="qcurve"/>
      <point x="286" y="371"/>
      <point x="183" y="274"/>
      <point x="183" y="203" type="qcurve"/>
      <point x="183" y="159"/>
      <point x="226" y="111"/>
      <point x="266" y="111" type="qcurve"/>
      <point x="289" y="111"/>
      <point x="341" y="133"/>
      <point x="373" y="157" type="qcurve"/>
      <point x="431" y="360" type="line"/>
      <point x="415" y="366"/>
      <point x="384" y="371"/>
    </contour>
  </outline>
</glyph>
<glyph name="g" format="2">
  <advance width="614"/>
  <unicode hex="0067"/>
  <outline>
    <contour>
      <point x="345" y="50" type="qcurve"/>
      <point x="350" y="67" type="line"/>
      <point x="313" y="41"/>
      <point x="242" y="16"/>
      <point x="203" y="16" type="qcurve"/>
      <point x="131" y="16"/>
      <point x="35" y="115"/>
      <point x="35" y="196" type="qcurve"/>
      <point x="35" y="324"/>
      <point x="225" y="490"/>
      <point x="375" y="490" type="qcurve"/>
      <point x="435" y="490"/>
      <point x="545" y="464"/>
      <point x="599" y="437" type="qcurve"/>
      <point x="483" y="30" type="line"/>
      <point x="459" y="-56"/>
      <point x="402" y="-151"/>
      <point x="359" y="-178" type="qcurve"/>
      <point x="321" y="-203"/>
      <point x="208" y="-229"/>
      <point x="119" y="-233" type="qcurve"/>
      <point x="-5" y="-239" type="line"/>
      <point x="-5" y="-117" type="line"/>
      <point x="125" y="-111" type="line"/>
      <point x="230" y="-106"/>
      <point x="318" y="-44"/>
    </contour>
    <contour>
      <point x="369" y="371" type="qcurve"/>
      <point x="289" y="371"/>
      <point x="187" y="282"/>
      <point x="187" y="217" type="qcurve"/>
      <point x="187" y="178"/>
      <point x="232" y="135"/>
      <point x="273" y="135" type="qcurve"/>
      <point x="297" y="135"/>
      <point x="350" y="158"/>
      <point x="383" y="183" type="qcurve"/>
      <point x="433" y="360" type="line"/>
      <point x="418" y="365"/>
      <point x="385" y="371"/>
    </contour>
  </outline>
</glyph>
<glyph name="h" format="2">
  <advance width="614"/>
  <unicode hex="0068"/>
  <outline>
    <contour>
      <point x="214" y="710" type="line"/>
      <point x="359" y="710" type="line"/>
      <point x="268" y="394" type="line"/>
      <point x="340" y="447"/>
      <point x="426" y="488"/>
      <point x="471" y="488" type="qcurve"/>
      <point x="523" y="488"/>
      <point x="577" y="439"/>
      <point x="577" y="391" type="qcurve"/>
      <point x="577" y="376"/>
      <point x="572" y="344"/>
      <point x="567" y="327" type="qcurve"/>
      <point x="473" y="0" type="line"/>
      <point x="328" y="0" type="line"/>
      <point x="414" y="300" type="line"/>
      <point x="416" y="306"/>
      <point x="418" y="318"/>
      <point x="418" y="324" type="qcurve"/>
      <point x="418" y="337"/>
      <point x="405" y="351"/>
      <point x="392" y="351" type="qcurve"/>
      <point x="369" y="351"/>
      <point x="298" y="306"/>
      <point x="226" y="248" type="qcurve"/>
      <point x="155" y="0" type="line"/>
      <point x="10" y="0" type="line"/>
    </contour>
  </outline>
</glyph>
<glyph name="k" format="2">
  <advance width="614"/>
  <unicode hex="006B"/>
  <outline>
    <contour>
      <point x="218" y="710" type="line"/>
      <point x="362" y="710" type="line"/>
      <point x="234" y="263" type="line"/>
      <point x="468" y="477" type="line"/>
      <point x="654" y="477" type="line"/>
      <point x="654" y="475" type="line"/>
      <point x="374" y="237" type="line"/>
      <point x="521" y="2" type="line"/>
      <point x="521" y="0" type="line"/>
      <point x="339" y="0" type="line"/>
      <point x="220" y="217" type="line"/>
      <point x="158" y="0" type="line"/>
      <point x="14" y="0" type="line"/>
    </contour>
  </outline>
</glyph>
<glyph name="l" format="2">
  <advance width="614"/>
  <unicode hex="006C"/>
  <outline>
    <contour>
      <point x="186" y="132" type="qcurve"/>
      <point x="186" y="158"/>
      <point x="202" y="227"/>
      <point x="220" y="277" type="qcurve"/>
      <point x="331" y="588" type="line"/>
      <point x="167" y="588" type="line"/>
      <point x="202" y="710" type="line"/>
      <point x="518" y="710" type="line"/>
      <point x="359" y="257" type="line"/>
      <point x="345" y="218"/>
      <point x="336" y="183"/>
      <point x="336" y="167" type="qcurve"/>
      <point x="336" y="143"/>
      <point x="369" y="121"/>
      <point x="408" y="119" type="qcurve"/>
      <point x="518" y="115" type="line"/>
      <point x="482" y="-9" type="line"/>
      <point x="368" y="-5" type="line"/>
      <point x="268" y="-1"/>
      <point x="186" y="61"/>
    </contour>
  </outline>
</glyph>
<glyph name="m" format="2">
  <advance width="614"/>
  <unicode hex="006D"/>
  <outline>
    <contour>
      <point x="110" y="477" type="line"/>
      <point x="209" y="477" type="line"/>
      <point x="196" y="391" type="line"/>
      <point x="217" y="391" type="line"/>
      <point x="275" y="449"/>
      <point x="338" y="492"/>
      <point x="366" y="492" type="qcurve"/>
      <point x="393" y="492"/>
      <point x="418" y="469"/>
      <point x="418" y="445" type="qcurve"/>
      <point x="418" y="436"/>
      <point x="413" y="411"/>
      <point x="408" y="391" type="qcurve"/>
      <point x="408" y="391" type="line"/>
      <point x="433" y="391" type="line"/>
      <point x="487" y="449"/>
      <point x="545" y="492"/>
      <point x="573" y="492" type="qcurve"/>
      <point x="602" y="492"/>
      <point x="629" y="468"/>
      <point x="629" y="443" type="qcurve"/>
      <point x="629" y="431"/>
      <point x="624" y="400"/>
      <point x="618" y="379" type="qcurve"/>
      <point x="509" y="0" type="line"/>
      <point x="386" y="0" type="line"/>
      <point x="467" y="282" type="line"/>
      <point x="469" y="289"/>
      <point x="471" y="301"/>
      <point x="471" y="307" type="qcurve"/>
      <point x="471" y="319"/>
      <point x="459" y="331"/>
      <point x="446" y="331" type="qcurve"/>
      <point x="435" y="331"/>
      <point x="406" y="320"/>
      <point x="387" y="308" type="qcurve"/>
      <point x="299" y="0" type="line"/>
      <point x="185" y="0" type="line"/>
      <point x="266" y="282" type="line"/>
      <point x="268" y="289"/>
      <point x="270" y="302"/>
      <point x="270" y="308" type="qcurve"/>
      <point x="270" y="320"/>
      <point x="258" y="331"/>
      <point x="246" y="331" type="qcurve"/>
      <point x="233" y="331"/>
      <point x="203" y="319"/>
      <point x="184" y="307" type="qcurve"/>
      <point x="96" y="0" type="line"/>
      <point x="-27" y="0" type="line"/>
    </contour>
  </outline>
</glyph>
<glyph name="r" format="2">
  <advance width="614"/>
  <unicode hex="0072"/>
  <outline>
    <contour>
      <point x="-13" y="0" type="line"/>
      <point x="22" y="122" type="line"/>
      <point x="124" y="122" type="line"/>
      <point x="191" y="355" type="line"/>
      <point x="109" y="355" type="line"/>
      <point x="144" y="477" type="line"/>
      <point x="353" y="477" type="line"/>
      <point x="323" y="346" type="line"/>
      <point x="406" y="429"/>
      <point x="492" y="482"/>
      <point x="551" y="482" type="qcurve"/>
      <point x="614" y="482" type="line"/>
      <point x="600" y="333" type="line"/>
      <point x="520" y="333" type="line"/>
      <point x="489" y="333"/>
      <point x="445" y="328"/>
      <point x="421" y="317" type="qcurve"/>
      <point x="399" y="307"/>
      <point x="343" y="268"/>
      <point x="300" y="236" type="qcurve"/>
      <point x="268" y="122" type="line"/>
      <point x="394" y="122" type="line"/>
      <point x="359" y="0" type="line"/>
    </contour>
  </outline>
</glyph>
<glyph name="v" format="2">
  <advance width="614"/>
  <unicode hex="0076"/>
  <outline>
    <contour>
      <point x="149" y="0" type="line"/>
      <point x="103" y="477" type="line"/>
      <point x="248" y="477" type="line"/>
      <point x="266" y="128" type="line"/>
      <point x="484" y="477" type="line"/>
      <point x="649" y="477" type="line"/>
      <point x="330" y="0" type="line"/>
    </contour>
  </outline>
</glyph>
<glyph name="w" format="2">
  <advance width="614"/>
  <unicode hex="0077"/>
  <outline>
    <contour>
      <point x="655" y="477" type="line"/>
      <point x="434" y="0" type="line"/>
      <point x="302" y="0" type="line"/>
      <point x="292" y="196" type="line"/>
      <point x="170" y="0" type="line"/>
      <point x="43" y="0" type="line"/>
      <point x="98" y="477" type="line"/>
      <point x="232" y="477" type="line"/>
      <point x="187" y="176" type="line"/>
      <point x="349" y="424" type="line"/>
      <point x="363" y="424" type="line"/>
      <point x="382" y="179" type="line"/>
      <point x="511" y="477" type="line"/>
    </contour>
  </outline>
</glyph>
<glyph name="y" format="2">
  <advance width="614"/>
  <unicode hex="0079"/>
  <outline>
    <contour>
      <point x="650" y="477" type="line"/>
      <point x="230" y="-140" type="line"/>
      <point x="195" y="-191"/>
      <point x="119" y="-225"/>
      <point x="43" y="-229" type="qcurve"/>
      <point x="-96" y="-236" type="line"/>
      <point x="-96" y="-116" type="line"/>
      <point x="28" y="-108" type="line"/>
      <point x="70" y="-106"/>
      <point x="105" y="-88"/>
      <point x="123" y="-61" type="qcurve"/>
      <point x="159" y="-8" type="line"/>
      <point x="103" y="477" type="line"/>
      <point x="250" y="477" type="line"/>
      <point x="275" y="151" type="line"/>
      <point x="485" y="477" type="line"/>
    </contour>
  </outline>
</glyph>
<glyph name="braceright" format="2">
  <advance width="614"/>
  <unicode hex="007D"/>
  <outline>
    <contour>
      <point x="390" y="17" type="qcurve"/>
      <point x="390" y="-36"/>
      <point x="317" y="-96"/>
      <point x="242" y="-106" type="qcurve"/>
      <point x="-69" y="-148" type="line"/>
      <point x="-34" y="-27" type="line"/>
      <point x="192" y="4" type="line"/>
      <point x="215" y="8"/>
      <point x="234" y="19"/>
      <point x="234" y="29" type="qcurve"/>
      <point x="234" y="36"/>
      <point x="228" y="49"/>
      <point x="220" y="61" type="qcurve"/>
      <point x="186" y="113" type="line"/>
      <point x="165" y="144"/>
      <point x="150" y="178"/>
      <point x="150" y="191" type="qcurve"/>
      <point x="150" y="224"/>
      <point x="215" y="265"/>
      <point x="291" y="285" type="qcurve"/>
      <point x="325" y="294"/>
      <point x="414" y="314"/>
      <point x="470" y="324" type="qcurve"/>
      <point x="477" y="348" type="line"/>
      <point x="435" y="357"/>
      <point x="369" y="375"/>
      <point x="343" y="383" type="qcurve"/>
      <point x="289" y="401"/>
      <point x="242" y="436"/>
      <point x="242" y="463" type="qcurve"/>
      <point x="242" y="484"/>
      <point x="272" y="523"/>
      <point x="315" y="557" type="qcurve"/>
      <point x="370" y="601" type="line"/>
      <point x="387" y="614"/>
      <point x="400" y="630"/>
      <point x="400" y="639" type="qcurve"/>
      <point x="400" y="647"/>
      <point x="390" y="657"/>
      <point x="380" y="658" type="qcurve"/>
      <point x="172" y="689" type="line"/>
      <point x="206" y="810" type="line"/>
      <point x="422" y="778" type="line"/>
      <point x="500" y="766"/>
      <point x="569" y="721"/>
      <point x="569" y="679" type="qcurve"/>
      <point x="569" y="648"/>
      <point x="537" y="599"/>
      <point x="496" y="563" type="qcurve"/>
      <point x="439" y="514" type="line"/>
      <point x="416" y="494"/>
      <point x="403" y="479"/>
      <point x="403" y="472" type="qcurve"/>
      <point x="403" y="455"/>
      <point x="497" y="420"/>
      <point x="610" y="391" type="qcurve"/>
      <point x="576" y="271" type="line"/>
      <point x="530" y="259"/>
      <point x="463" y="241"/>
      <point x="437" y="234" type="qcurve"/>
      <point x="364" y="214"/>
      <point x="312" y="192"/>
      <point x="312" y="178" type="qcurve"/>
      <point x="312" y="173"/>
      <point x="319" y="157"/>
      <point x="329" y="142" type="qcurve"/>
      <point x="363" y="90" type="line"/>
      <point x="377" y="68"/>
      <point x="390" y="34"/>
    </contour>
  </outline>
</glyph>
<glyph name="exclamdown" format="2">
  <advance width="614"/>
  <unicode hex="00A1"/>
  <outline>
    <contour>
      <point x="557" y="664" type="qcurve"/>
      <point x="557" y="608"/>
      <point x="483" y="549"/>
      <point x="411" y="549" type="qcurve"/>
      <point x="355" y="549"/>
      <point x="303" y="578"/>
      <point x="303" y="610" type="qcurve"/>
      <point x="303" y="666"/>
      <point x="377" y="725"/>
      <point x="449" y="725" type="qcurve"/>
      <point x="505" y="725"/>
      <point x="557" y="696"/>
    </contour>
    <contour>
      <point x="316" y="433" type="line"/>
      <point x="414" y="433" type="line"/>
      <point x="372" y="0" type="line"/>
      <point x="107" y="0" type="line"/>
    </contour>
  </outline>
</glyph>
<glyph name="cent" format="2">
  <advance width="614"/>
  <unicode hex="00A2"/>
  <outline>
    <contour>
      <point x="248" y="-142" type="line"/>
      <point x="157" y="-142" type="line"/>
      <point x="210" y="5" type="line"/>
      <point x="129" y="19"/>
      <point x="43" y="112"/>
      <point x="43" y="185" type="qcurve"/>
      <point x="43" y="243"/>
      <point x="90" y="354"/>
      <point x="133" y="397" type="qcurve"/>
      <point x="179" y="443"/>
      <point x="296" y="490"/>
      <point x="365" y="490" type="qcurve"/>
      <point x="370" y="490"/>
      <point x="379" y="490"/>
      <point x="384" y="490" type="qcurve"/>
      <point x="434" y="632" type="line"/>
      <point x="525" y="632" type="line"/>
      <point x="471" y="480" type="line"/>
      <point x="501" y="474"/>
      <point x="564" y="450"/>
      <point x="600" y="432" type="qcurve"/>
      <point x="544" y="319" type="line"/>
      <point x="486" y="346"/>
      <point x="414" y="368"/>
      <point x="377" y="368" type="qcurve"/>
      <point x="342" y="368"/>
      <point x="279" y="343"/>
      <point x="255" y="319" type="qcurve"/>
      <point x="230" y="294"/>
      <point x="203" y="232"/>
      <point x="203" y="200" type="qcurve"/>
      <point x="203" y="164"/>
      <point x="254" y="122"/>
      <point x="298" y="122" type="qcurve"/>
      <point x="337" y="122"/>
      <point x="418" y="144"/>
      <point x="481" y="172" type="qcurve"/>
      <point x="523" y="60" type="line"/>
      <point x="471" y="32"/>
      <point x="361" y="2"/>
      <point x="299" y="0" type="qcurve"/>
    </contour>
  </outline>
</glyph>
<glyph name="sterling" format="2">
  <advance width="614"/>
  <unicode hex="00A3"/>
  <outline>
    <contour>
      <point x="495" y="0" type="line"/>
      <point x="7" y="0" type="line"/>
      <point x="7" y="70" type="line"/>
      <point x="111" y="153"/>
      <point x="205" y="231"/>
      <point x="224" y="250" type="qcurve"/>
      <point x="75" y="250" type="line"/>
      <point x="98" y="326" type="line"/>
      <point x="237" y="326" type="line"/>
      <point x="231" y="336"/>
      <point x="190" y="379"/>
      <point x="181" y="394" type="qcurve"/>
      <point x="169" y="413"/>
      <point x="157" y="455"/>
      <point x="157" y="479" type="qcurve"/>
      <point x="157" y="557"/>
      <point x="294" y="670"/>
      <point x="404" y="670" type="qcurve"/>
      <point x="477" y="670"/>
      <point x="589" y="629"/>
      <point x="664" y="575" type="qcurve"/>
      <point x="585" y="469" type="line"/>
      <point x="528" y="514"/>
      <point x="449" y="550"/>
      <point x="400" y="550" type="qcurve"/>
      <point x="357" y="550"/>
      <point x="301" y="504"/>
      <point x="301" y="475" type="qcurve"/>
      <point x="301" y="460"/>
      <point x="313" y="429"/>
      <point x="332" y="402" type="qcurve"/>
      <point x="349" y="379"/>
      <point x="362" y="352"/>
      <point x="364" y="339" type="qcurve"/>
      <point x="538" y="339" type="line"/>
      <point x="516" y="261" type="line"/>
      <point x="354" y="261" type="line"/>
      <point x="341" y="235"/>
      <point x="271" y="169"/>
      <point x="207" y="120" type="qcurve"/>
      <point x="529" y="120" type="line"/>
    </contour>
  </outline>
</glyph>
<glyph name="copyright" format="2">
  <advance width="614"/>
  <unicode hex="00A9"/>
  <outline>
    <contour>
      <point x="622" y="545" type="qcurve"/>
      <point x="622" y="499"/>
      <point x="602" y="384"/>
      <point x="581" y="313" type="qcurve"/>
      <point x="524" y="115"/>
      <point x="360" y="-70"/>
      <point x="238" y="-70" type="qcurve"/>
      <point x="138" y="-70"/>
      <point x="44" y="18"/>
      <point x="44" y="110" type="qcurve"/>
      <point x="44" y="156"/>
      <point x="64" y="271"/>
      <point x="85" y="342" type="qcurve"/>
      <point x="142" y="540"/>
      <point x="306" y="725"/>
      <point x="428" y="725" type="qcurve"/>
      <point x="528" y="725"/>
      <point x="622" y="637"/>
    </contour>
    <contour>
      <point x="425" y="680" type="qcurve"/>
      <point x="323" y="680"/>
      <point x="186" y="512"/>
      <point x="133" y="327" type="qcurve"/>
      <point x="113" y="255"/>
      <point x="94" y="150"/>
      <point x="94" y="107" type="qcurve"/>
      <point x="94" y="39"/>
      <point x="165" y="-25"/>
      <point x="241" y="-25" type="qcurve"/>
      <point x="343" y="-25"/>
      <point x="480" y="143"/>
      <point x="533" y="328" type="qcurve"/>
      <point x="553" y="399"/>
      <point x="572" y="505"/>
      <point x="572" y="548" type="qcurve"/>
      <point x="572" y="616"/>
      <point x="501" y="680"/>
    </contour>
    <contour>
      <point x="287" y="97" type="qcurve"/>
      <point x="235" y="97"/>
      <point x="180" y="162"/>
      <point x="180" y="224" type="qcurve"/>
      <point x="180" y="277"/>
      <point x="206" y="383"/>
      <point x="230" y="429" type="qcurve"/>
      <point x="261" y="489"/>
      <point x="345" y="558"/>
      <point x="387" y="558" type="qcurve"/>
      <point x="437" y="558"/>
      <point x="488" y="502"/>
      <point x="500" y="438" type="qcurve"/>
      <point x="424" y="416" type="line"/>
      <point x="416" y="453"/>
      <point x="400" y="478"/>
      <point x="381" y="478" type="qcurve"/>
      <point x="363" y="478"/>
      <point x="321" y="429"/>
      <point x="304" y="392" type="qcurve"/>
      <point x="288" y="356"/>
      <point x="266" y="269"/>
      <point x="266" y="230" type="qcurve"/>
      <point x="266" y="204"/>
      <point x="282" y="177"/>
      <point x="298" y="177" type="qcurve"/>
      <point x="315" y="177"/>
      <point x="348" y="202"/>
      <point x="375" y="233" type="qcurve"/>
      <point x="434" y="187" type="line"/>
      <point x="393" y="140"/>
      <point x="326" y="97"/>
    </contour>
  </outline>
</glyph>
<glyph name="ordfeminine" format="2">
  <advance width="614"/>
  <unicode hex="00AA"/>
  <outline>
    <contour>
      <point x="561" y="555" type="qcurve"/>
      <point x="528" y="464" type="line"/>
      <point x="524" y="452"/>
      <point x="520" y="436"/>
      <point x="520" y="429" type="qcurve"/>
      <point x="520" y="421"/>
      <point x="530" y="412"/>
      <point x="543" y="410" type="qcurve"/>
      <point x="566" y="405" type="line"/>
      <point x="542" y="324" type="line"/>
      <point x="510" y="327" type="line"/>
      <point x="474" y="331"/>
      <point x="426" y="351"/>
      <point x="416" y="367" type="qcurve"/>
      <point x="411" y="367" type="line"/>
      <point x="375" y="345"/>
      <point x="297" y="324"/>
      <point x="247" y="324" type="qcurve"/>
      <point x="204" y="324"/>
      <point x="155" y="367"/>
      <point x="155" y="404" type="qcurve"/>
      <point x="155" y="432"/>
      <point x="173" y="487"/>
      <point x="188" y="502" type="qcurve"/>
      <point x="211" y="524"/>
      <point x="284" y="544"/>
      <point x="353" y="548" type="qcurve"/>
      <point x="455" y="554" type="line"/>
      <point x="459" y="566"/>
      <point x="461" y="575"/>
      <point x="461" y="580" type="qcurve"/>
      <point x="461" y="593"/>
      <point x="426" y="604"/>
      <point x="386" y="604" type="qcurve"/>
      <point x="362" y="604"/>
      <point x="286" y="598"/>
      <point x="240" y="592" type="qcurve"/>
      <point x="263" y="681" type="line"/>
      <point x="307" y="686"/>
      <point x="386" y="692"/>
      <point x="416" y="692" type="qcurve"/>
      <point x="496" y="692"/>
      <point x="572" y="652"/>
      <point x="572" y="611" type="qcurve"/>
      <point x="572" y="598"/>
      <point x="566" y="569"/>
    </contour>
    <contour>
      <point x="266" y="425" type="qcurve"/>
      <point x="266" y="415"/>
      <point x="283" y="404"/>
      <point x="298" y="404" type="qcurve"/>
      <point x="327" y="404"/>
      <point x="393" y="424"/>
      <point x="417" y="441" type="qcurve"/>
      <point x="432" y="486" type="line"/>
      <point x="365" y="481" type="line"/>
      <point x="326" y="478"/>
      <point x="289" y="471"/>
      <point x="281" y="463" type="qcurve"/>
      <point x="273" y="455"/>
      <point x="266" y="437"/>
    </contour>
    <contour>
      <point x="96" y="161" type="line"/>
      <point x="119" y="241" type="line"/>
      <point x="505" y="241" type="line"/>
      <point x="482" y="161" type="line"/>
    </contour>
  </outline>
</glyph>
<glyph name="degree" format="2">
  <advance width="614"/>
  <unicode hex="00B0"/>
  <outline>
    <contour>
      <point x="601" y="524" type="qcurve"/>
      <point x="601" y="424"/>
      <point x="459" y="284"/>
      <point x="356" y="284" type="qcurve"/>
      <point x="264" y="284"/>
      <point x="157" y="374"/>
      <point x="157" y="452" type="qcurve"/>
      <point x="157" y="552"/>
      <point x="299" y="692"/>
      <point x="402" y="692" type="qcurve"/>
      <point x="494" y="692"/>
      <point x="601" y="602"/>
    </contour>
    <contour>
      <point x="484" y="515" type="qcurve"/>
      <point x="484" y="549"/>
      <point x="438" y="591"/>
      <point x="401" y="591" type="qcurve"/>
      <point x="350" y="591"/>
      <point x="274" y="514"/>
      <point x="274" y="461" type="qcurve"/>
      <point x="274" y="427"/>
      <point x="320" y="385"/>
      <point x="357" y="385" type="qcurve"/>
      <point x="408" y="385"/>
      <point x="484" y="462"/>
    </contour>
  </outline>
</glyph>
<glyph name="plusminus" format="2">
  <advance width="614"/>
  <unicode hex="00B1"/>
  <outline>
    <contour>
      <point x="278" y="366" type="line"/>
      <point x="99" y="366" type="line"/>
      <point x="132" y="482" type="line"/>
      <point x="311" y="482" type="line"/>
      <point x="361" y="655" type="line"/>
      <point x="492" y="655" type="line"/>
      <point x="442" y="482" type="line"/>
      <point x="621" y="482" type="line"/>
      <point x="588" y="366" type="line"/>
      <point x="409" y="366" type="line"/>
      <point x="359" y="193" type="line"/>
      <point x="228" y="193" type="line"/>
    </contour>
    <contour>
      <point x="516" y="115" type="line"/>
      <point x="483" y="0" type="line"/>
      <point x="-6" y="0" type="line"/>
      <point x="27" y="115" type="line"/>
    </contour>
  </outline>
</glyph>
<glyph name="mu" format="2">
  <advance width="614"/>
  <unicode hex="00B5"/>
  <outline>
    <contour>
      <point x="175" y="-11" type="qcurve"/>
      <point x="161" y="-11"/>
      <point x="136" y="-1"/>
      <point x="127" y="8" type="qcurve"/>
      <point x="98" y="-211" type="line"/>
      <point x="93" y="-230" type="line"/>
      <point x="-61" y="-230" type="line"/>
      <point x="142" y="477" type="line"/>
      <point x="287" y="477" type="line"/>
      <point x="201" y="177" type="line"/>
      <point x="199" y="171"/>
      <point x="197" y="159"/>
      <point x="197" y="153" type="qcurve"/>
      <point x="197" y="139"/>
      <point x="211" y="126"/>
      <point x="226" y="126" type="qcurve"/>
      <point x="247" y="126"/>
      <point x="313" y="169"/>
      <point x="389" y="229" type="qcurve"/>
      <point x="460" y="477" type="line"/>
      <point x="605" y="477" type="line"/>
      <point x="468" y="0" type="line"/>
      <point x="342" y="0" type="line"/>
      <point x="360" y="92" type="line"/>
      <point x="282" y="31"/>
      <point x="208" y="-11"/>
    </contour>
  </outline>
</glyph>
<glyph name="ordmasculine" format="2">
  <advance width="614"/>
  <unicode hex="00BA"/>
  <outline>
    <contour>
      <point x="182" y="471" type="qcurve"/>
      <point x="182" y="569"/>
      <point x="313" y="692"/>
      <point x="422" y="692" type="qcurve"/>
      <point x="497" y="692"/>
      <point x="585" y="613"/>
      <point x="585" y="546" type="qcurve"/>
      <point x="585" y="448"/>
      <point x="454" y="325"/>
      <point x="345" y="325" type="qcurve"/>
      <point x="270" y="325"/>
      <point x="182" y="404"/>
    </contour>
    <contour>
      <point x="296" y="475" type="qcurve"/>
      <point x="296" y="447"/>
      <point x="329" y="417"/>
      <point x="360" y="417" type="qcurve"/>
      <point x="409" y="417"/>
      <point x="471" y="488"/>
      <point x="471" y="542" type="qcurve"/>
      <point x="471" y="570"/>
      <point x="438" y="600"/>
      <point x="407" y="600" type="qcurve"/>
      <point x="358" y="600"/>
      <point x="296" y="529"/>
    </contour>
    <contour>
      <point x="103" y="161" type="line"/>
      <point x="126" y="241" type="line"/>
      <point x="501" y="241" type="line"/>
      <point x="478" y="161" type="line"/>
    </contour>
  </outline>
</glyph>
<glyph name="guillemetright" format="2">
  <advance width="614"/>
  <unicode hex="00BB"/>
  <outline>
    <contour>
      <point x="580" y="296" type="line"/>
      <point x="547" y="180" type="line"/>
      <point x="262" y="-15" type="line"/>
      <point x="302" y="128" type="line"/>
      <point x="445" y="252" type="line"/>
      <point x="375" y="380" type="line"/>
      <point x="408" y="492" type="line"/>
    </contour>
    <contour>
      <point x="306" y="316" type="line"/>
      <point x="273" y="200" type="line"/>
      <point x="-13" y="-15" type="line"/>
      <point x="27" y="128" type="line"/>
      <point x="170" y="267" type="line"/>
      <point x="100" y="380" type="line"/>
      <point x="133" y="492" type="line"/>
    </contour>
  </outline>
</glyph>
<glyph name="questiondown" format="2">
  <advance width="614"/>
  <unicode hex="00BF"/>
  <outline>
    <contour>
      <point x="608" y="664" type="qcurve"/>
      <point x="608" y="608"/>
      <point x="534" y="549"/>
      <point x="462" y="549" type="qcurve"/>
      <point x="406" y="549"/>
      <point x="354" y="578"/>
      <point x="354" y="610" type="qcurve"/>
      <point x="354" y="666"/>
      <point x="428" y="725"/>
      <point x="500" y="725" type="qcurve"/>
      <point x="556" y="725"/>
      <point x="608" y="696"/>
    </contour>
    <contour>
      <point x="368" y="433" type="qcurve"/>
      <point x="466" y="433" type="line"/>
      <point x="465" y="390"/>
      <point x="462" y="348"/>
      <point x="457" y="332" type="qcurve"/>
      <point x="451" y="310"/>
      <point x="413" y="280"/>
      <point x="372" y="263" type="qcurve"/>
      <point x="296" y="232" type="line"/>
      <point x="240" y="209"/>
      <point x="195" y="174"/>
      <point x="195" y="148" type="qcurve"/>
      <point x="195" y="128"/>
      <point x="228" y="105"/>
      <point x="258" y="105" type="qcurve"/>
      <point x="294" y="105"/>
      <point x="400" y="130"/>
      <point x="500" y="161" type="qcurve"/>
      <point x="532" y="46" type="line"/>
      <point x="435" y="14"/>
      <point x="291" y="-15"/>
      <point x="226" y="-15" type="qcurve"/>
      <point x="136" y="-15"/>
      <point x="42" y="60"/>
      <point x="42" y="131" type="qcurve"/>
      <point x="42" y="200"/>
      <point x="121" y="286"/>
      <point x="219" y="326" type="qcurve"/>
      <point x="304" y="361" type="line"/>
      <point x="329" y="371"/>
      <point x="351" y="396"/>
    </contour>
  </outline>
</glyph>
<glyph name="multiply" format="2">
  <advance width="614"/>
  <unicode hex="00D7"/>
  <outline>
    <contour>
      <point x="319" y="250" type="line"/>
      <point x="97" y="73" type="line"/>
      <point x="26" y="168" type="line"/>
      <point x="253" y="339" type="line"/>
      <point x="121" y="510" type="line"/>
      <point x="228" y="591" type="line"/>
      <point x="349" y="414" type="line"/>
      <point x="570" y="590" type="line"/>
      <point x="641" y="496" type="line"/>
      <point x="415" y="324" type="line"/>
      <point x="547" y="152" type="line"/>
      <point x="441" y="72" type="line"/>
    </contour>
  </outline>
</glyph>
<glyph name="Oslash" format="2">
  <advance width="614"/>
  <unicode hex="00D8"/>
  <outline>
    <contour>
      <point x="78" y="363" type="qcurve"/>
      <point x="121" y="514"/>
      <point x="289" y="670"/>
      <point x="407" y="670" type="qcurve"/>
      <point x="443" y="670"/>
      <point x="507" y="654"/>
      <point x="533" y="639" type="qcurve"/>
      <point x="601" y="726" type="line"/>
      <point x="721" y="726" type="line"/>
      <point x="593" y="581" type="line"/>
      <point x="608" y="557"/>
      <point x="623" y="498"/>
      <point x="623" y="463" type="qcurve"/>
      <point x="623" y="408"/>
      <point x="613" y="342"/>
      <point x="599" y="292" type="qcurve"/>
      <point x="556" y="141"/>
      <point x="388" y="-15"/>
      <point x="270" y="-15" type="qcurve"/>
      <point x="231" y="-15"/>
      <point x="164" y="3"/>
      <point x="137" y="21" type="qcurve"/>
      <point x="63" y="-71" type="line"/>
      <point x="-55" y="-71" type="line"/>
      <point x="79" y="84" type="line"/>
      <point x="67" y="107"/>
      <point x="54" y="162"/>
      <point x="54" y="192" type="qcurve"/>
      <point x="54" y="247"/>
      <point x="64" y="313"/>
    </contour>
    <contour>
      <point x="201" y="198" type="qcurve"/>
      <point x="201" y="152"/>
      <point x="240" y="105"/>
      <point x="279" y="105" type="qcurve"/>
      <point x="336" y="105"/>
      <point x="421" y="207"/>
      <point x="451" y="310" type="qcurve"/>
      <point x="464" y="356"/>
      <point x="476" y="425"/>
      <point x="476" y="457" type="qcurve"/>
      <point x="476" y="503"/>
      <point x="436" y="550"/>
      <point x="397" y="550" type="qcurve"/>
      <point x="340" y="550"/>
      <point x="256" y="448"/>
      <point x="226" y="345" type="qcurve"/>
      <point x="213" y="299"/>
      <point x="201" y="230"/>
    </contour>
  </outline>
</glyph>
<glyph name="germandbls" format="2">
  <advance width="614"/>
  <unicode hex="00DF"/>
  <outline>
    <contour>
      <point x="274" y="119" type="line"/>
      <point x="336" y="125" type="line"/>
      <point x="366" y="128"/>
      <point x="398" y="160"/>
      <point x="398" y="187" type="qcurve"/>
      <point x="398" y="206"/>
      <point x="368" y="269"/>
      <point x="333" y="324" type="qcurve"/>
      <point x="351" y="387" type="line"/>
      <point x="376" y="412"/>
      <point x="414" y="451"/>
      <point x="428" y="466" type="qcurve"/>
      <point x="459" y="500"/>
      <point x="481" y="539"/>
      <point x="481" y="558" type="qcurve"/>
      <point x="481" y="580"/>
      <point x="448" y="605"/>
      <point x="418" y="605" type="qcurve"/>
      <point x="373" y="605"/>
      <point x="312" y="548"/>
      <point x="296" y="491" type="qcurve"/>
      <point x="155" y="0" type="line"/>
      <point x="10" y="0" type="line"/>
      <point x="160" y="522" type="line"/>
      <point x="190" y="628"/>
      <point x="324" y="725"/>
      <point x="438" y="725" type="qcurve"/>
      <point x="527" y="725"/>
      <point x="631" y="645"/>
      <point x="631" y="580" type="qcurve"/>
      <point x="631" y="536"/>
      <point x="592" y="459"/>
      <point x="545" y="411" type="qcurve"/>
      <point x="529" y="395"/>
      <point x="491" y="359"/>
      <point x="469" y="339" type="qcurve"/>
      <point x="510" y="285"/>
      <point x="548" y="207"/>
      <point x="548" y="174" type="qcurve"/>
      <point x="548" y="91"/>
      <point x="441" y="6"/>
      <point x="332" y="0" type="qcurve"/>
      <point x="274" y="-3" type="line"/>
    </contour>
  </outline>
</glyph>
<glyph name="ae" format="2">
  <advance width="614"/>
  <unicode hex="00E6"/>
  <outline>
    <contour>
      <point x="348" y="191" type="qcurve"/>
      <point x="347" y="177"/>
      <point x="346" y="161"/>
      <point x="346" y="154" type="qcurve"/>
      <point x="346" y="119"/>
      <point x="409" y="93"/>
      <point x="493" y="93" type="qcurve"/>
      <point x="461" y="-5" type="line"/>
      <point x="372" y="-5"/>
      <point x="270" y="21"/>
      <point x="245" y="49" type="qcurve"/>
      <point x="239" y="49" type="line"/>
      <point x="192" y="19"/>
      <point x="131" y="-5"/>
      <point x="95" y="-5" type="qcurve"/>
      <point x="35" y="-5"/>
      <point x="-25" y="52"/>
      <point x="-25" y="109" type="qcurve"/>
      <point x="-25" y="146"/>
      <point x="-3" y="207"/>
      <point x="18" y="228" type="qcurve"/>
      <point x="41" y="251"/>
      <point x="131" y="272"/>
      <point x="246" y="280" type="qcurve"/>
      <point x="254" y="309"/>
      <point x="260" y="334"/>
      <point x="260" y="341" type="qcurve"/>
      <point x="260" y="365"/>
      <point x="235" y="387"/>
      <point x="208" y="387" type="qcurve"/>
      <point x="183" y="387"/>
      <point x="128" y="380"/>
      <point x="84" y="371" type="qcurve"/>
      <point x="119" y="472" type="line"/>
      <point x="155" y="479"/>
      <point x="221" y="486"/>
      <point x="253" y="486" type="qcurve"/>
      <point x="310" y="486"/>
      <point x="368" y="461"/>
      <point x="378" y="432" type="qcurve"/>
      <point x="408" y="458"/>
      <point x="476" y="486"/>
      <point x="511" y="486" type="qcurve"/>
      <point x="565" y="486"/>
      <point x="623" y="432"/>
      <point x="623" y="382" type="qcurve"/>
      <point x="623" y="287"/>
      <point x="495" y="204"/>
    </contour>
    <contour>
      <point x="497" y="354" type="qcurve"/>
      <point x="497" y="371"/>
      <point x="482" y="386"/>
      <point x="465" y="386" type="qcurve"/>
      <point x="437" y="386"/>
      <point x="383" y="320"/>
      <point x="365" y="266" type="qcurve"/>
      <point x="434" y="273"/>
      <point x="497" y="314"/>
    </contour>
    <contour>
      <point x="96" y="127" type="qcurve"/>
      <point x="96" y="109"/>
      <point x="113" y="94"/>
      <point x="133" y="94" type="qcurve"/>
      <point x="150" y="94"/>
      <point x="187" y="108"/>
      <point x="217" y="126" type="qcurve"/>
      <point x="216" y="130"/>
      <point x="216" y="141"/>
      <point x="216" y="152" type="qcurve"/>
      <point x="216" y="162"/>
      <point x="220" y="185"/>
      <point x="224" y="202" type="qcurve"/>
      <point x="171" y="197"/>
      <point x="125" y="186"/>
      <point x="114" y="175" type="qcurve"/>
      <point x="105" y="166"/>
      <point x="96" y="143"/>
    </contour>
  </outline>
</glyph>
<glyph name="divide" format="2">
  <advance width="614"/>
  <unicode hex="00F7"/>
  <outline>
    <contour>
      <point x="508" y="582" type="qcurve"/>
      <point x="508" y="536"/>
      <point x="445" y="484"/>
      <point x="388" y="484" type="qcurve"/>
      <point x="341" y="484"/>
      <point x="294" y="513"/>
      <point x="294" y="542" type="qcurve"/>
      <point x="294" y="587"/>
      <point x="357" y="641"/>
      <point x="414" y="641" type="qcurve"/>
      <point x="462" y="641"/>
      <point x="508" y="612"/>
    </contour>
    <contour>
      <point x="561" y="272" type="line"/>
      <point x="72" y="272" type="line"/>
      <point x="105" y="388" type="line"/>
      <point x="594" y="388" type="line"/>
    </contour>
    <contour>
      <point x="376" y="119" type="qcurve"/>
      <point x="376" y="72"/>
      <point x="314" y="22"/>
      <point x="255" y="22" type="qcurve"/>
      <point x="208" y="22"/>
      <point x="162" y="50"/>
      <point x="162" y="79" type="qcurve"/>
      <point x="162" y="125"/>
      <point x="225" y="178"/>
      <point x="281" y="178" type="qcurve"/>
      <point x="329" y="178"/>
      <point x="376" y="149"/>
    </contour>
  </outline>
</glyph>
<glyph name="thorn" format="2">
  <advance width="614"/>
  <unicode hex="00FE"/>
  <outline>
    <contour>
      <point x="84" y="-230" type="line"/>
      <point x="-61" y="-230" type="line"/>
      <point x="209" y="710" type="line"/>
      <point x="354" y="710" type="line"/>
      <point x="277" y="442" type="line"/>
      <point x="313" y="466"/>
      <point x="383" y="490"/>
      <point x="420" y="490" type="qcurve"/>
      <point x="491" y="490"/>
      <point x="585" y="386"/>
      <point x="585" y="300" type="qcurve"/>
      <point x="585" y="166"/>
      <point x="393" y="-8"/>
      <point x="242" y="-8" type="qcurve"/>
      <point x="218" y="-8"/>
      <point x="173" y="-4"/>
      <point x="150" y="1" type="qcurve"/>
    </contour>
    <contour>
      <point x="433" y="279" type="qcurve"/>
      <point x="433" y="323"/>
      <point x="390" y="371"/>
      <point x="350" y="371" type="qcurve"/>
      <point x="327" y="371"/>
      <point x="276" y="349"/>
      <point x="244" y="326" type="qcurve"/>
      <point x="185" y="122" type="line"/>
      <point x="201" y="116"/>
      <point x="232" y="111"/>
      <point x="248" y="111" type="qcurve"/>
      <point x="330" y="111"/>
      <point x="433" y="208"/>
    </contour>
  </outline>
</glyph>
<glyph name="dcroat" format="2">
  <advance width="614"/>
  <unicode hex="0111"/>
  <outline>
    <contour>
      <point x="457" y="0" type="line"/>
      <point x="351" y="0" type="line"/>
      <point x="343" y="43" type="line"/>
      <point x="305" y="17"/>
      <point x="226" y="-8"/>
      <point x="183" y="-8" type="qcurve"/>
      <point x="117" y="-8"/>
      <point x="31" y="87"/>
      <point x="31" y="166" type="qcurve"/>
      <point x="31" y="279"/>
      <point x="198" y="427"/>
      <point x="328" y="427" type="qcurve"/>
      <point x="355" y="427"/>
      <point x="406" y="420"/>
      <point x="430" y="413" type="qcurve"/>
      <point x="460" y="516" type="line"/>
      <point x="332" y="516" type="line"/>
      <point x="354" y="592" type="line"/>
      <point x="482" y="592" type="line"/>
      <point x="516" y="710" type="line"/>
      <point x="661" y="710" type="line"/>
      <point x="627" y="592" type="line"/>
      <point x="704" y="592" type="line"/>
      <point x="682" y="516" type="line"/>
      <point x="605" y="516" type="line"/>
    </contour>
    <contour>
      <point x="325" y="318" type="qcurve"/>
      <point x="263" y="318"/>
      <point x="183" y="242"/>
      <point x="183" y="187" type="qcurve"/>
      <point x="183" y="150"/>
      <point x="219" y="111"/>
      <point x="253" y="111" type="qcurve"/>
      <point x="276" y="111"/>
      <point x="325" y="127"/>
      <point x="353" y="144" type="qcurve"/>
      <point x="398" y="301" type="line"/>
      <point x="383" y="309"/>
      <point x="347" y="318"/>
    </contour>
  </outline>
</glyph>
<glyph name="Eogonek" format="2">
  <advance width="614"/>
  <unicode hex="0118"/>
  <outline>
    <contour>
      <point x="228" y="-167" type="qcurve"/>
      <point x="228" y="-136"/>
      <point x="292" y="-63"/>
      <point x="370" y="0" type="qcurve"/>
      <point x="19" y="0" type="line"/>
      <point x="207" y="655" type="line"/>
      <point x="661" y="655" type="line"/>
      <point x="626" y="535" type="line"/>
      <point x="318" y="535" type="line"/>
      <point x="276" y="390" type="line"/>
      <point x="553" y="390" type="line"/>
      <point x="518" y="270" type="line"/>
      <point x="241" y="270" type="line"/>
      <point x="198" y="120" type="line"/>
      <point x="508" y="120" type="line"/>
      <point x="474" y="0" type="line"/>
      <point x="439" y="0" type="line"/>
      <point x="385" y="-57"/>
      <point x="350" y="-102"/>
      <point x="350" y="-118" type="qcurve"/>
      <point x="350" y="-127"/>
      <point x="365" y="-136"/>
      <point x="384" y="-137" type="qcurve"/>
      <point x="438" y="-141" type="line"/>
      <point x="401" y="-234" type="line"/>
      <point x="329" y="-231" type="line"/>
      <point x="276" y="-229"/>
      <point x="228" y="-199"/>
    </contour>
  </outline>
</glyph>
<glyph name="Iogonek" format="2">
  <advance width="614"/>
  <unicode hex="012E"/>
  <outline>
    <contour>
      <point x="48" y="0" type="line"/>
      <point x="71" y="80" type="line"/>
      <point x="193" y="108" type="line"/>
      <point x="330" y="552" type="line"/>
      <point x="207" y="575" type="line"/>
      <point x="230" y="655" type="line"/>
      <point x="618" y="655" type="line"/>
      <point x="595" y="575" type="line"/>
      <point x="473" y="547" type="line"/>
      <point x="336" y="103" type="line"/>
      <point x="459" y="80" type="line"/>
      <point x="436" y="0" type="line"/>
      <point x="278" y="0" type="line"/>
      <point x="224" y="-57"/>
      <point x="189" y="-102"/>
      <point x="189" y="-118" type="qcurve"/>
      <point x="189" y="-127"/>
      <point x="204" y="-136"/>
      <point x="223" y="-137" type="qcurve"/>
      <point x="277" y="-141" type="line"/>
      <point x="240" y="-234" type="line"/>
      <point x="168" y="-231" type="line"/>
      <point x="115" y="-229"/>
      <point x="67" y="-199"/>
      <point x="67" y="-167" type="qcurve"/>
      <point x="67" y="-136"/>
      <point x="131" y="-63"/>
      <point x="209" y="0" type="qcurve"/>
    </contour>
  </outline>
</glyph>
<glyph name="OE" format="2">
  <advance width="614"/>
  <unicode hex="0152"/>
  <outline>
    <contour>
      <point x="506" y="0" type="line"/>
      <point x="238" y="0" type="line"/>
      <point x="137" y="0"/>
      <point x="30" y="110"/>
      <point x="30" y="213" type="qcurve"/>
      <point x="30" y="298"/>
      <point x="99" y="508"/>
      <point x="150" y="559" type="qcurve"/>
      <point x="200" y="609"/>
      <point x="339" y="655"/>
      <point x="446" y="655" type="qcurve"/>
      <point x="694" y="655" type="line"/>
      <point x="662" y="543" type="line"/>
      <point x="512" y="543" type="line"/>
      <point x="466" y="384" type="line"/>
      <point x="602" y="384" type="line"/>
      <point x="571" y="276" type="line"/>
      <point x="435" y="276" type="line"/>
      <point x="388" y="112" type="line"/>
      <point x="538" y="112" type="line"/>
    </contour>
    <contour>
      <point x="271" y="504" type="qcurve"/>
      <point x="232" y="465"/>
      <point x="166" y="267"/>
      <point x="166" y="206" type="qcurve"/>
      <point x="166" y="153"/>
      <point x="204" y="108"/>
      <point x="251" y="105" type="qcurve"/>
      <point x="251" y="105" type="line"/>
      <point x="378" y="549" type="line"/>
      <point x="342" y="545"/>
      <point x="291" y="524"/>
    </contour>
  </outline>
</glyph>
<glyph name="Scedilla" format="2">
  <advance width="614"/>
  <unicode hex="015E"/>
  <outline>
    <contour>
      <point x="311" y="111" type="qcurve"/>
      <point x="360" y="111"/>
      <point x="406" y="139"/>
      <point x="406" y="170" type="qcurve"/>
      <point x="406" y="197"/>
      <point x="370" y="232"/>
      <point x="320" y="259" type="qcurve"/>
      <point x="268" y="287" type="line"/>
      <point x="197" y="325"/>
      <point x="139" y="406"/>
      <point x="139" y="468" type="qcurve"/>
      <point x="139" y="557"/>
      <point x="274" y="664"/>
      <point x="390" y="664" type="qcurve"/>
      <point x="443" y="664"/>
      <point x="548" y="646"/>
      <point x="627" y="622" type="qcurve"/>
      <point x="590" y="500" type="line"/>
      <point x="525" y="521"/>
      <point x="426" y="541"/>
      <point x="386" y="541" type="qcurve"/>
      <point x="334" y="541"/>
      <point x="283" y="509"/>
      <point x="283" y="476" type="qcurve"/>
      <point x="283" y="455"/>
      <point x="313" y="422"/>
      <point x="351" y="401" type="qcurve"/>
      <point x="403" y="373" type="line"/>
      <point x="492" y="326"/>
      <point x="551" y="250"/>
      <point x="551" y="186" type="qcurve"/>
      <point x="551" y="93"/>
      <point x="425" y="-13"/>
      <point x="312" y="-13" type="qcurve"/>
      <point x="311" y="-13" type="line"/>
      <point x="282" y="-62" type="line"/>
      <point x="345" y="-69"/>
      <point x="405" y="-107"/>
      <point x="405" y="-140" type="qcurve"/>
      <point x="405" y="-186"/>
      <point x="351" y="-231"/>
      <point x="288" y="-246" type="qcurve"/>
      <point x="255" y="-253"/>
      <point x="169" y="-265"/>
      <point x="113" y="-270" type="qcurve"/>
      <point x="112" y="-206" type="line"/>
      <point x="146" y="-203"/>
      <point x="199" y="-198"/>
      <point x="219" y="-195" type="qcurve"/>
      <point x="269" y="-189"/>
      <point x="309" y="-173"/>
      <point x="309" y="-155" type="qcurve"/>
      <point x="309" y="-140"/>
      <point x="253" y="-125"/>
      <point x="191" y="-122" type="qcurve"/>
      <point x="188" y="-112" type="line"/>
      <point x="250" y="-10" type="line"/>
      <point x="193" y="-5"/>
      <point x="75" y="22"/>
      <point x="10" y="45" type="qcurve"/>
      <point x="51" y="169" type="line"/>
      <point x="139" y="138"/>
      <point x="262" y="111"/>
    </contour>
  </outline>
</glyph>
<glyph name="Tcedilla" format="2">
  <advance width="614"/>
  <unicode hex="0162"/>
  <outline>
    <contour>
      <point x="317" y="535" type="line"/>
      <point x="120" y="535" type="line"/>
      <point x="155" y="655" type="line"/>
      <point x="691" y="655" type="line"/>
      <point x="656" y="535" type="line"/>
      <point x="461" y="535" type="line"/>
      <point x="307" y="0" type="line"/>
      <point x="266" y="0" type="line"/>
      <point x="233" y="-56" type="line"/>
      <point x="296" y="-63"/>
      <point x="356" y="-101"/>
      <point x="356" y="-134" type="qcurve"/>
      <point x="356" y="-180"/>
      <point x="302" y="-225"/>
      <point x="239" y="-240" type="qcurve"/>
      <point x="206" y="-247"/>
      <point x="120" y="-259"/>
      <point x="64" y="-264" type="qcurve"/>
      <point x="63" y="-200" type="line"/>
      <point x="97" y="-197"/>
      <point x="150" y="-192"/>
      <point x="170" y="-189" type="qcurve"/>
      <point x="220" y="-183"/>
      <point x="260" y="-167"/>
      <point x="260" y="-149" type="qcurve"/>
      <point x="260" y="-134"/>
      <point x="204" y="-119"/>
      <point x="142" y="-116" type="qcurve"/>
      <point x="139" y="-106" type="line"/>
      <point x="204" y="0" type="line"/>
      <point x="163" y="0" type="line"/>
    </contour>
  </outline>
</glyph>
<glyph name="uogonek" format="2">
  <advance width="614"/>
  <unicode hex="0173"/>
  <outline>
    <contour>
      <point x="233" y="-167" type="qcurve"/>
      <point x="233" y="-136"/>
      <point x="297" y="-63"/>
      <point x="375" y="0" type="qcurve"/>
      <point x="342" y="0" type="line"/>
      <point x="360" y="93" type="line"/>
      <point x="281" y="33"/>
      <point x="191" y="-11"/>
      <point x="144" y="-11" type="qcurve"/>
      <point x="92" y="-11"/>
      <point x="38" y="38"/>
      <point x="38" y="85" type="qcurve"/>
      <point x="38" y="101"/>
      <point x="43" y="133"/>
      <point x="48" y="150" type="qcurve"/>
      <point x="142" y="477" type="line"/>
      <point x="287" y="477" type="line"/>
      <point x="201" y="177" type="line"/>
      <point x="199" y="170"/>
      <point x="197" y="158"/>
      <point x="197" y="152" type="qcurve"/>
      <point x="197" y="139"/>
      <point x="210" y="126"/>
      <point x="223" y="126" type="qcurve"/>
      <point x="246" y="126"/>
      <point x="317" y="171"/>
      <point x="389" y="229" type="qcurve"/>
      <point x="460" y="477" type="line"/>
      <point x="605" y="477" type="line"/>
      <point x="468" y="0" type="line"/>
      <point x="444" y="0" type="line"/>
      <point x="390" y="-57"/>
      <point x="355" y="-102"/>
      <point x="355" y="-118" type="qcurve"/>
      <point x="355" y="-127"/>
      <point x="370" y="-136"/>
      <point x="389" y="-137" type="qcurve"/>
      <point x="443" y="-141" type="line"/>
      <point x="406" y="-234" type="line"/>
      <point x="334" y="-231" type="line"/>
      <point x="281" y="-229"/>
      <point x="233" y="-199"/>
    </contour>
  </outline>
</glyph>
<glyph name="ohorn" format="2">
  <advance width="614"/>
  <unicode hex="01A1"/>
  <outline>
    <contour>
      <point x="39" y="184" type="qcurve"/>
      <point x="39" y="246"/>
      <point x="86" y="352"/>
      <point x="128" y="391" type="qcurve"/>
      <point x="170" y="431"/>
      <point x="288" y="477"/>
      <point x="356" y="477" type="qcurve"/>
      <point x="501" y="477" type="line"/>
      <point x="550" y="477"/>
      <point x="586" y="517"/>
      <point x="606" y="589" type="qcurve"/>
      <point x="738" y="589" type="line"/>
      <point x="704" y="474"/>
      <point x="633" y="399"/>
      <point x="563" y="399" type="qcurve"/>
      <point x="551" y="399"/>
      <point x="523" y="402"/>
      <point x="502" y="406" type="qcurve"/>
      <point x="499" y="400" type="line"/>
      <point x="535" y="375"/>
      <point x="575" y="306"/>
      <point x="575" y="269" type="qcurve"/>
      <point x="575" y="205"/>
      <point x="524" y="97"/>
      <point x="479" y="59" type="qcurve"/>
      <point x="437" y="24"/>
      <point x="324" y="-15"/>
      <point x="258" y="-15" type="qcurve"/>
      <point x="160" y="-15"/>
      <point x="39" y="95"/>
    </contour>
    <contour>
      <point x="189" y="193" type="qcurve"/>
      <point x="189" y="152"/>
      <point x="241" y="104"/>
      <point x="284" y="104" type="qcurve"/>
      <point x="342" y="104"/>
      <point x="425" y="204"/>
      <point x="425" y="270" type="qcurve"/>
      <point x="425" y="310"/>
      <point x="373" y="358"/>
      <point x="330" y="358" type="qcurve"/>
      <point x="272" y="358"/>
      <point x="189" y="259"/>
    </contour>
  </outline>
</glyph>
<glyph name="Uhorn" format="2">
  <advance width="614"/>
  <unicode hex="01AF"/>
  <outline>
    <contour>
      <point x="287" y="119" type="qcurve"/>
      <point x="329" y="119"/>
      <point x="383" y="167"/>
      <point x="397" y="217" type="qcurve"/>
      <point x="523" y="655" type="line"/>
      <point x="575" y="655" type="line"/>
      <point x="634" y="655"/>
      <point x="680" y="691"/>
      <point x="703" y="768" type="qcurve"/>
      <point x="831" y="768" type="line"/>
      <point x="798" y="654"/>
      <point x="721" y="574"/>
      <point x="644" y="574" type="qcurve"/>
      <point x="538" y="207" type="line"/>
      <point x="505" y="92"/>
      <point x="375" y="-15"/>
      <point x="268" y="-15" type="qcurve"/>
      <point x="165" y="-15"/>
      <point x="58" y="80"/>
      <point x="58" y="170" type="qcurve"/>
      <point x="58" y="192"/>
      <point x="69" y="249"/>
      <point x="83" y="296" type="qcurve"/>
      <point x="187" y="655" type="line"/>
      <point x="332" y="655" type="line"/>
      <point x="211" y="234" type="line"/>
      <point x="208" y="222"/>
      <point x="205" y="200"/>
      <point x="205" y="189" type="qcurve"/>
      <point x="205" y="155"/>
      <point x="247" y="119"/>
    </contour>
  </outline>
</glyph>
<glyph name="ringhalfright" format="2">
  <advance width="614"/>
  <unicode hex="02BE"/>
  <outline>
    <contour>
      <point x="490" y="397" type="qcurve"/>
      <point x="449" y="356"/>
      <point x="313" y="315"/>
      <point x="218" y="315" type="qcurve"/>
      <point x="247" y="415" type="line"/>
      <point x="339" y="415"/>
      <point x="430" y="482"/>
      <point x="430" y="553" type="qcurve"/>
      <point x="430" y="590"/>
      <point x="370" y="625"/>
      <point x="307" y="625" type="qcurve"/>
      <point x="336" y="725" type="line"/>
      <point x="439" y="725"/>
      <point x="550" y="638"/>
      <point x="550" y="559" type="qcurve"/>
      <point x="550" y="508"/>
      <point x="520" y="427"/>
    </contour>
  </outline>
</glyph>
<glyph name="tildecmb" format="2">
  <unicode hex="0303"/>
  <outline>
    <contour>
      <point x="170" y="553" type="qcurve"/>
      <point x="150" y="553"/>
      <point x="114" y="578"/>
      <point x="88" y="608" type="qcurve"/>
      <point x="63" y="637"/>
      <point x="48" y="649"/>
      <point x="42" y="649" type="qcurve"/>
      <point x="31" y="649"/>
      <point x="-5" y="602"/>
      <point x="-39" y="547" type="qcurve"/>
      <point x="-111" y="590" type="line"/>
      <point x="-56" y="677"/>
      <point x="18" y="753"/>
      <point x="57" y="753" type="qcurve"/>
      <point x="77" y="753"/>
      <point x="113" y="728"/>
      <point x="139" y="698" type="qcurve"/>
      <point x="164" y="669"/>
      <point x="179" y="657"/>
      <point x="185" y="657" type="qcurve"/>
      <point x="196" y="657"/>
      <point x="232" y="704"/>
      <point x="266" y="759" type="qcurve"/>
      <point x="338" y="716" type="line"/>
      <point x="283" y="629"/>
      <point x="209" y="553"/>
    </contour>
  </outline>
</glyph>
<glyph name="dieresiscmb" format="2">
  <unicode hex="0308"/>
  <outline>
    <contour>
      <point x="80" y="664" type="qcurve"/>
      <point x="80" y="624"/>
      <point x="28" y="573"/>
      <point x="-10" y="573" type="qcurve"/>
      <point x="-44" y="573"/>
      <point x="-76" y="597"/>
      <point x="-76" y="622" type="qcurve"/>
      <point x="-76" y="660"/>
      <point x="-25" y="715"/>
      <point x="15" y="715" type="qcurve"/>
      <point x="46" y="715"/>
      <point x="80" y="689"/>
    </contour>
    <contour>
      <point x="310" y="664" type="qcurve"/>
      <point x="310" y="625"/>
      <point x="259" y="573"/>
      <point x="220" y="573" type="qcurve"/>
      <point x="188" y="573"/>
      <point x="154" y="598"/>
      <point x="154" y="622" type="qcurve"/>
      <point x="154" y="660"/>
      <point x="207" y="715"/>
      <point x="245" y="715" type="qcurve"/>
      <point x="276" y="715"/>
      <point x="310" y="688"/>
    </contour>
  </outline>
</glyph>
<glyph name="hookcmb" format="2">
  <unicode hex="0309"/>
  <outline>
    <contour>
      <point x="252" y="684" type="qcurve"/>
      <point x="252" y="631"/>
      <point x="124" y="568"/>
      <point x="-9" y="553" type="qcurve"/>
      <point x="-17" y="615" type="line"/>
      <point x="-17" y="617" type="line"/>
      <point x="57" y="633"/>
      <point x="126" y="660"/>
      <point x="126" y="676" type="qcurve"/>
      <point x="126" y="691"/>
      <point x="64" y="712"/>
      <point x="-2" y="721" type="qcurve"/>
      <point x="-2" y="723" type="line"/>
      <point x="64" y="787" type="line"/>
      <point x="158" y="776"/>
      <point x="252" y="725"/>
    </contour>
  </outline>
</glyph>
<glyph name="ringcmb" format="2">
  <unicode hex="030A"/>
  <outline>
    <contour>
      <point x="-33" y="667" type="qcurve"/>
      <point x="-33" y="736"/>
      <point x="72" y="829"/>
      <point x="154" y="829" type="qcurve"/>
      <point x="215" y="829"/>
      <point x="294" y="767"/>
      <point x="294" y="715" type="qcurve"/>
      <point x="294" y="646"/>
      <point x="189" y="553"/>
      <point x="107" y="553" type="qcurve"/>
      <point x="46" y="553"/>
      <point x="-33" y="615"/>
    </contour>
    <contour>
      <point x="56" y="677" type="qcurve"/>
      <point x="56" y="655"/>
      <point x="91" y="633"/>
      <point x="125" y="633" type="qcurve"/>
      <point x="161" y="633"/>
      <point x="205" y="674"/>
      <point x="205" y="705" type="qcurve"/>
      <point x="205" y="727"/>
      <point x="170" y="749"/>
      <point x="136" y="749" type="qcurve"/>
      <point x="100" y="749"/>
      <point x="56" y="709"/>
    </contour>
  </outline>
</glyph>
<glyph name="caroncmb" format="2">
  <unicode hex="030C"/>
  <outline>
    <contour>
      <point x="59" y="553" type="line"/>
      <point x="-63" y="712" type="line"/>
      <point x="-6" y="758" type="line"/>
      <point x="106" y="655" type="line"/>
      <point x="276" y="758" type="line"/>
      <point x="314" y="701" type="line"/>
      <point x="121" y="553" type="line"/>
    </contour>
  </outline>
</glyph>
<glyph name="commaturnedabovecmb" format="2">
  <unicode hex="0312"/>
  <outline>
    <contour>
      <point x="-7" y="656" type="qcurve"/>
      <point x="-7" y="709"/>
      <point x="121" y="772"/>
      <point x="254" y="787" type="qcurve"/>
      <point x="262" y="725" type="line"/>
      <point x="262" y="723" type="line"/>
      <point x="188" y="707"/>
      <point x="119" y="680"/>
      <point x="119" y="664" type="qcurve"/>
      <point x="119" y="649"/>
      <point x="181" y="628"/>
      <point x="247" y="619" type="qcurve"/>
      <point x="247" y="617" type="line"/>
      <point x="181" y="553" type="line"/>
      <point x="87" y="564"/>
      <point x="-7" y="615"/>
    </contour>
  </outline>
</glyph>
<glyph name="dotbelowcmb" format="2">
  <unicode hex="0323"/>
  <outline>
    <contour>
      <point x="-34" y="-150" type="qcurve"/>
      <point x="-34" y="-191"/>
      <point x="-88" y="-247"/>
      <point x="-130" y="-247" type="qcurve"/>
      <point x="-166" y="-247"/>
      <point x="-200" y="-221"/>
      <point x="-200" y="-194" type="qcurve"/>
      <point x="-200" y="-153"/>
      <point x="-145" y="-96"/>
      <point x="-104" y="-96" type="qcurve"/>
      <point x="-70" y="-96"/>
      <point x="-34" y="-124"/>
    </contour>
  </outline>
</glyph>
<glyph name="dieresisbelowcmb" format="2">
  <unicode hex="0324"/>
  <outline>
    <contour>
      <point x="-154" y="-147" type="qcurve" smooth="yes"/>
      <point x="-154" y="-187"/>
      <point x="-206" y="-238"/>
      <point x="-244" y="-238" type="qcurve" smooth="yes"/>
      <point x="-278" y="-238"/>
      <point x="-310" y="-214"/>
      <point x="-310" y="-189" type="qcurve" smooth="yes"/>
      <point x="-310" y="-151"/>
      <point x="-259" y="-96"/>
      <point x="-219" y="-96" type="qcurve" smooth="yes"/>
      <point x="-188" y="-96"/>
      <point x="-154" y="-122"/>
    </contour>
    <contour>
      <point x="76" y="-147" type="qcurve" smooth="yes"/>
      <point x="76" y="-186"/>
      <point x="25" y="-238"/>
      <point x="-14" y="-238" type="qcurve" smooth="yes"/>
      <point x="-46" y="-238"/>
      <point x="-80" y="-213"/>
      <point x="-80" y="-189" type="qcurve" smooth="yes"/>
      <point x="-80" y="-151"/>
      <point x="-27" y="-96"/>
      <point x="11" y="-96" type="qcurve" smooth="yes"/>
      <point x="42" y="-96"/>
      <point x="76" y="-123"/>
    </contour>
  </outline>
</glyph>
<glyph name="uni0326" format="2">
  <unicode hex="0326"/>
  <outline>
    <contour>
      <point x="7" y="-178" type="qcurve"/>
      <point x="7" y="-231"/>
      <point x="-121" y="-294"/>
      <point x="-254" y="-309" type="qcurve"/>
      <point x="-262" y="-247" type="line"/>
      <point x="-262" y="-245" type="line"/>
      <point x="-188" y="-229"/>
      <point x="-119" y="-202"/>
      <point x="-119" y="-186" type="qcurve"/>
      <point x="-119" y="-171"/>
      <point x="-181" y="-150"/>
      <point x="-247" y="-141" type="qcurve"/>
      <point x="-247" y="-139" type="line"/>
      <point x="-181" y="-75" type="line"/>
      <point x="-87" y="-86"/>
      <point x="7" y="-137"/>
    </contour>
  </outline>
</glyph>
<glyph name="ogonekcmb" format="2">
  <unicode hex="0328"/>
  <outline>
    <contour>
      <point x="-239" y="-167" type="qcurve"/>
      <point x="-239" y="-133"/>
      <point x="-160" y="-49"/>
      <point x="-60" y="29" type="qcurve"/>
      <point x="-21" y="7" type="line"/>
      <point x="-77" y="-52"/>
      <point x="-117" y="-102"/>
      <point x="-117" y="-118" type="qcurve"/>
      <point x="-117" y="-127"/>
      <point x="-102" y="-136"/>
      <point x="-83" y="-137" type="qcurve"/>
      <point x="-29" y="-141" type="line"/>
      <point x="-66" y="-234" type="line"/>
      <point x="-138" y="-231" type="line"/>
      <point x="-191" y="-229"/>
      <point x="-239" y="-199"/>
    </contour>
  </outline>
</glyph>
<glyph name="brevebelowcmb" format="2">
  <unicode hex="032E"/>
  <outline>
    <contour>
      <point x="-135" y="-183" type="qcurve"/>
      <point x="-96" y="-183"/>
      <point x="-24" y="-130"/>
      <point x="9" y="-76" type="qcurve"/>
      <point x="93" y="-112" type="line"/>
      <point x="46" y="-196"/>
      <point x="-69" y="-278"/>
      <point x="-141" y="-278" type="qcurve"/>
      <point x="-214" y="-278"/>
      <point x="-300" y="-185"/>
      <point x="-300" y="-100" type="qcurve"/>
      <point x="-219" y="-76" type="line"/>
      <point x="-216" y="-130"/>
      <point x="-174" y="-183"/>
    </contour>
  </outline>
</glyph>
<glyph name="macronbelowcmb" format="2">
  <unicode hex="0331"/>
  <outline>
    <contour>
      <point x="40" y="-214" type="line"/>
      <point x="-302" y="-214" type="line"/>
      <point x="-274" y="-116" type="line"/>
      <point x="68" y="-116" type="line"/>
    </contour>
  </outline>
</glyph>
<glyph name="Hcedilla" format="2">
  <advance width="614"/>
  <unicode hex="1E28"/>
  <outline>
    <contour>
      <point x="7" y="0" type="line"/>
      <point x="195" y="655" type="line"/>
      <point x="339" y="655" type="line"/>
      <point x="263" y="390" type="line"/>
      <point x="439" y="390" type="line"/>
      <point x="515" y="655" type="line"/>
      <point x="659" y="655" type="line"/>
      <point x="471" y="0" type="line"/>
      <point x="327" y="0" type="line"/>
      <point x="404" y="270" type="line"/>
      <point x="228" y="270" type="line"/>
      <point x="151" y="0" type="line"/>
      <point x="107" y="0" type="line"/>
      <point x="73" y="-57" type="line"/>
      <point x="136" y="-64"/>
      <point x="196" y="-102"/>
      <point x="196" y="-135" type="qcurve"/>
      <point x="196" y="-181"/>
      <point x="142" y="-226"/>
      <point x="79" y="-241" type="qcurve"/>
      <point x="46" y="-248"/>
      <point x="-40" y="-260"/>
      <point x="-96" y="-265" type="qcurve"/>
      <point x="-97" y="-201" type="line"/>
      <point x="-63" y="-198"/>
      <point x="-10" y="-193"/>
      <point x="10" y="-190" type="qcurve"/>
      <point x="60" y="-184"/>
      <point x="100" y="-168"/>
      <point x="100" y="-150" type="qcurve"/>
      <point x="100" y="-135"/>
      <point x="44" y="-120"/>
      <point x="-18" y="-117" type="qcurve"/>
      <point x="-21" y="-107" type="line"/>
      <point x="44" y="0" type="line"/>
    </contour>
  </outline>
</glyph>
<glyph name="uni1E9E" format="2">
  <advance width="614"/>
  <unicode hex="1E9E"/>
  <outline>
    <contour>
      <point x="435" y="171" type="qcurve"/>
      <point x="435" y="190"/>
      <point x="394" y="245"/>
      <point x="343" y="296" type="qcurve"/>
      <point x="354" y="336" type="line"/>
      <point x="491" y="531" type="line"/>
      <point x="472" y="541"/>
      <point x="434" y="550"/>
      <point x="408" y="550" type="qcurve"/>
      <point x="354" y="550"/>
      <point x="284" y="492"/>
      <point x="267" y="433" type="qcurve"/>
      <point x="143" y="0" type="line"/>
      <point x="-1" y="0" type="line"/>
      <point x="128" y="451" type="line"/>
      <point x="162" y="569"/>
      <point x="288" y="670"/>
      <point x="402" y="670" type="qcurve"/>
      <point x="471" y="670"/>
      <point x="602" y="624"/>
      <point x="650" y="582" type="qcurve"/>
      <point x="650" y="556" type="line"/>
      <point x="487" y="323" type="line"/>
      <point x="537" y="274"/>
      <point x="574" y="212"/>
      <point x="575" y="176" type="qcurve"/>
      <point x="575" y="91"/>
      <point x="455" y="-6"/>
      <point x="349" y="-6" type="qcurve"/>
      <point x="324" y="-6"/>
      <point x="288" y="-3"/>
      <point x="260" y="3" type="qcurve"/>
      <point x="288" y="115" type="line"/>
      <point x="308" y="111"/>
      <point x="341" y="108"/>
      <point x="362" y="108" type="qcurve"/>
      <point x="398" y="108"/>
      <point x="435" y="141"/>
    </contour>
  </outline>
</glyph>
<glyph name="quoteleft" format="2">
  <advance width="614"/>
  <unicode hex="2018"/>
  <outline>
    <contour>
      <point x="495" y="710" type="qcurve"/>
      <point x="626" y="710" type="line"/>
      <point x="625" y="708" type="line"/>
      <point x="544" y="631"/>
      <point x="454" y="498"/>
      <point x="408" y="381" type="qcurve"/>
      <point x="193" y="381" type="line"/>
      <point x="249" y="496"/>
      <point x="389" y="648"/>
    </contour>
  </outline>
</glyph>
<glyph name="quoteright" format="2">
  <advance width="614"/>
  <unicode hex="2019"/>
  <outline>
    <contour>
      <point x="286" y="381" type="qcurve"/>
      <point x="155" y="381" type="line"/>
      <point x="156" y="383" type="line"/>
      <point x="248" y="471"/>
      <point x="342" y="605"/>
      <point x="383" y="710" type="qcurve"/>
      <point x="598" y="710" type="line"/>
      <point x="544" y="600"/>
      <point x="398" y="446"/>
    </contour>
  </outline>
</glyph>
<glyph name="dagger" format="2">
  <advance width="614"/>
  <unicode hex="2020"/>
  <outline>
    <contour>
      <point x="624" y="533" type="qcurve"/>
      <point x="591" y="419" type="line"/>
      <point x="571" y="419"/>
      <point x="526" y="427"/>
      <point x="481" y="440" type="qcurve"/>
      <point x="446" y="450"/>
      <point x="411" y="457"/>
      <point x="395" y="459" type="qcurve"/>
      <point x="385" y="420"/>
      <point x="366" y="328"/>
      <point x="350" y="237" type="qcurve"/>
      <point x="333" y="139"/>
      <point x="313" y="41"/>
      <point x="301" y="0" type="qcurve"/>
      <point x="177" y="0" type="line"/>
      <point x="189" y="42"/>
      <point x="224" y="139"/>
      <point x="264" y="237" type="qcurve"/>
      <point x="302" y="329"/>
      <point x="335" y="420"/>
      <point x="347" y="459" type="qcurve"/>
      <point x="330" y="457"/>
      <point x="288" y="449"/>
      <point x="245" y="439" type="qcurve"/>
      <point x="194" y="427"/>
      <point x="146" y="419"/>
      <point x="127" y="419" type="qcurve"/>
      <point x="160" y="533" type="line"/>
      <point x="179" y="533"/>
      <point x="222" y="526"/>
      <point x="266" y="514" type="qcurve"/>
      <point x="303" y="505"/>
      <point x="341" y="497"/>
      <point x="357" y="496" type="qcurve"/>
      <point x="361" y="513"/>
      <point x="365" y="553"/>
      <point x="367" y="594" type="qcurve"/>
      <point x="369" y="642"/>
      <point x="375" y="690"/>
      <point x="381" y="710" type="qcurve"/>
      <point x="505" y="710" type="line"/>
      <point x="499" y="689"/>
      <point x="478" y="641"/>
      <point x="452" y="592" type="qcurve"/>
      <point x="432" y="552"/>
      <point x="413" y="513"/>
      <point x="407" y="496" type="qcurve"/>
      <point x="423" y="498"/>
      <point x="463" y="505"/>
      <point x="502" y="514" type="qcurve"/>
      <point x="554" y="526"/>
      <point x="604" y="533"/>
    </contour>
  </outline>
</glyph>
<glyph name="bullet" format="2">
  <advance width="614"/>
  <unicode hex="2022"/>
  <outline>
    <contour>
      <point x="164" y="283" type="qcurve"/>
      <point x="164" y="369"/>
      <point x="282" y="489"/>
      <point x="370" y="489" type="qcurve"/>
      <point x="436" y="489"/>
      <point x="505" y="432"/>
      <point x="505" y="378" type="qcurve"/>
      <point x="505" y="292"/>
      <point x="387" y="172"/>
      <point x="299" y="172" type="qcurve"/>
      <point x="233" y="172"/>
      <point x="164" y="229"/>
    </contour>
  </outline>
</glyph>
<glyph name="twodotleader" format="2">
  <advance width="614"/>
  <unicode hex="2025"/>
  <outline>
    <contour>
      <point x="215" y="139" type="qcurve"/>
      <point x="215" y="75"/>
      <point x="144" y="-15"/>
      <point x="89" y="-15" type="qcurve"/>
      <point x="50" y="-15"/>
      <point x="12" y="17"/>
      <point x="12" y="50" type="qcurve"/>
      <point x="12" y="112"/>
      <point x="83" y="202"/>
      <point x="138" y="202" type="qcurve"/>
      <point x="177" y="202"/>
      <point x="215" y="171"/>
    </contour>
    <contour>
      <point x="522" y="139" type="qcurve"/>
      <point x="522" y="75"/>
      <point x="451" y="-15"/>
      <point x="396" y="-15" type="qcurve"/>
      <point x="357" y="-15"/>
      <point x="319" y="17"/>
      <point x="319" y="50" type="qcurve"/>
      <point x="319" y="112"/>
      <point x="390" y="202"/>
      <point x="445" y="202" type="qcurve"/>
      <point x="484" y="202"/>
      <point x="522" y="171"/>
    </contour>
  </outline>
</glyph>
<glyph name="ellipsis" format="2">
  <advance width="614"/>
  <unicode hex="2026"/>
  <outline>
    <contour>
      <point x="72" y="162" type="qcurve"/>
      <point x="101" y="162"/>
      <point x="129" y="137"/>
      <point x="129" y="110" type="qcurve"/>
      <point x="129" y="60"/>
      <point x="78" y="-15"/>
      <point x="40" y="-15" type="qcurve"/>
      <point x="11" y="-15"/>
      <point x="-17" y="10"/>
      <point x="-17" y="37" type="qcurve"/>
      <point x="-17" y="87"/>
      <point x="34" y="162"/>
    </contour>
    <contour>
      <point x="277" y="162" type="qcurve"/>
      <point x="306" y="162"/>
      <point x="334" y="137"/>
      <point x="334" y="110" type="qcurve"/>
      <point x="334" y="60"/>
      <point x="283" y="-15"/>
      <point x="245" y="-15" type="qcurve"/>
      <point x="216" y="-15"/>
      <point x="188" y="10"/>
      <point x="188" y="37" type="qcurve"/>
      <point x="188" y="87"/>
      <point x="239" y="162"/>
    </contour>
    <contour>
      <point x="482" y="162" type="qcurve"/>
      <point x="511" y="162"/>
      <point x="539" y="137"/>
      <point x="539" y="110" type="qcurve"/>
      <point x="539" y="60"/>
      <point x="488" y="-15"/>
      <point x="450" y="-15" type="qcurve"/>
      <point x="421" y="-15"/>
      <point x="393" y="10"/>
      <point x="393" y="37" type="qcurve"/>
      <point x="393" y="87"/>
      <point x="444" y="162"/>
    </contour>
  </outline>
</glyph>
<glyph name="guilsinglleft" format="2">
  <advance width="614"/>
  <unicode hex="2039"/>
  <outline>
    <contour>
      <point x="315" y="227" type="line"/>
      <point x="423" y="110" type="line"/>
      <point x="387" y="-15" type="line"/>
      <point x="120" y="181" type="line"/>
      <point x="153" y="297" type="line"/>
      <point x="533" y="492" type="line"/>
      <point x="490" y="341" type="line"/>
    </contour>
  </outline>
</glyph>
<glyph name="guilsinglright" format="2">
  <advance width="614"/>
  <unicode hex="203A"/>
  <outline>
    <contour>
      <point x="494" y="296" type="line"/>
      <point x="461" y="180" type="line"/>
      <point x="81" y="-15" type="line"/>
      <point x="124" y="136" type="line"/>
      <point x="299" y="250" type="line"/>
      <point x="191" y="367" type="line"/>
      <point x="227" y="492" type="line"/>
    </contour>
  </outline>
</glyph>
<glyph name="naira" format="2">
  <advance width="614"/>
  <unicode hex="20A6"/>
  <outline>
    <contour>
      <point x="190" y="191" type="line"/>
      <point x="142" y="0" type="line"/>
      <point x="30" y="0" type="line"/>
      <point x="85" y="191" type="line"/>
      <point x="9" y="191" type="line"/>
      <point x="31" y="267" type="line"/>
      <point x="107" y="267" type="line"/>
      <point x="143" y="394" type="line"/>
      <point x="67" y="394" type="line"/>
      <point x="89" y="470" type="line"/>
      <point x="165" y="470" type="line"/>
      <point x="218" y="655" type="line"/>
      <point x="399" y="655" type="line"/>
      <point x="386" y="470" type="line"/>
      <point x="477" y="470" type="line"/>
      <point x="524" y="655" type="line"/>
      <point x="635" y="655" type="line"/>
      <point x="582" y="470" type="line"/>
      <point x="659" y="470" type="line"/>
      <point x="637" y="394" type="line"/>
      <point x="560" y="394" type="line"/>
      <point x="524" y="267" type="line"/>
      <point x="601" y="267" type="line"/>
      <point x="579" y="191" type="line"/>
      <point x="502" y="191" type="line"/>
      <point x="447" y="0" type="line"/>
      <point x="267" y="0" type="line"/>
      <point x="280" y="191" type="line"/>
    </contour>
    <contour>
      <point x="308" y="599" type="line"/>
      <point x="294" y="599" type="line"/>
      <point x="203" y="240" type="line"/>
      <point x="283" y="240" type="line"/>
    </contour>
    <contour>
      <point x="383" y="421" type="line"/>
      <point x="358" y="56" type="line"/>
      <point x="372" y="56" type="line"/>
      <point x="465" y="421" type="line"/>
    </contour>
  </outline>
</glyph>
<glyph name="dong" format="2">
  <advance width="614"/>
  <unicode hex="20AB"/>
  <outline>
    <contour>
      <point x="447" y="-1" type="line"/>
      <point x="343" y="-1" type="line"/>
      <point x="334" y="49" type="line"/>
      <point x="295" y="20"/>
      <point x="222" y="-8"/>
      <point x="183" y="-8" type="qcurve"/>
      <point x="116" y="-8"/>
      <point x="27" y="78"/>
      <point x="27" y="149" type="qcurve"/>
      <point x="27" y="261"/>
      <point x="192" y="407"/>
      <point x="319" y="407" type="qcurve"/>
      <point x="344" y="407"/>
      <point x="393" y="402"/>
      <point x="416" y="398" type="qcurve"/>
      <point x="442" y="488" type="line"/>
      <point x="315" y="488" type="line"/>
      <point x="337" y="565" type="line"/>
      <point x="464" y="565" type="line"/>
      <point x="490" y="655" type="line"/>
      <point x="635" y="655" type="line"/>
      <point x="609" y="565" type="line"/>
      <point x="687" y="565" type="line"/>
      <point x="665" y="488" type="line"/>
      <point x="587" y="488" type="line"/>
    </contour>
    <contour>
      <point x="332" y="305" type="qcurve"/>
      <point x="265" y="305"/>
      <point x="180" y="230"/>
      <point x="180" y="174" type="qcurve"/>
      <point x="180" y="144"/>
      <point x="218" y="108"/>
      <point x="250" y="108" type="qcurve"/>
      <point x="270" y="108"/>
      <point x="316" y="127"/>
      <point x="344" y="147" type="qcurve"/>
      <point x="387" y="296" type="line"/>
      <point x="374" y="300"/>
      <point x="346" y="305"/>
    </contour>
    <contour>
      <point x="386" y="-189" type="line"/>
      <point x="-63" y="-189" type="line"/>
      <point x="-37" y="-101" type="line"/>
      <point x="412" y="-101" type="line"/>
    </contour>
  </outline>
</glyph>
<glyph name="uni20BA" format="2">
  <advance width="614"/>
  <unicode hex="20BA"/>
  <outline>
    <contour>
      <point x="80" y="175" type="line"/>
      <point x="-3" y="131" type="line"/>
      <point x="21" y="215" type="line"/>
      <point x="104" y="257" type="line"/>
      <point x="130" y="349" type="line"/>
      <point x="48" y="307" type="line"/>
      <point x="72" y="391" type="line"/>
      <point x="154" y="433" type="line"/>
      <point x="218" y="655" type="line"/>
      <point x="363" y="655" type="line"/>
      <point x="321" y="509" type="line"/>
      <point x="541" y="619" type="line"/>
      <point x="517" y="535" type="line"/>
      <point x="297" y="425" type="line"/>
      <point x="271" y="333" type="line"/>
      <point x="490" y="442" type="line"/>
      <point x="466" y="359" type="line"/>
      <point x="247" y="252" type="line"/>
      <point x="209" y="119" type="line"/>
      <point x="264" y="119" type="line"/>
      <point x="331" y="119"/>
      <point x="418" y="186"/>
      <point x="453" y="264" type="qcurve"/>
      <point x="569" y="226" type="line"/>
      <point x="517" y="100"/>
      <point x="369" y="0"/>
      <point x="232" y="0" type="qcurve"/>
      <point x="30" y="0" type="line"/>
    </contour>
  </outline>
</glyph>
<glyph name="notequal" format="2">
  <advance width="614"/>
  <unicode hex="2260"/>
  <outline>
    <contour>
      <point x="159" y="161" type="line"/>
      <point x="59" y="161" type="line"/>
      <point x="92" y="276" type="line"/>
      <point x="240" y="269" type="line"/>
      <point x="286" y="331" type="line"/>
      <point x="329" y="393" type="line"/>
      <point x="123" y="384" type="line"/>
      <point x="156" y="500" type="line"/>
      <point x="402" y="500" type="line"/>
      <point x="509" y="655" type="line"/>
      <point x="620" y="655" type="line"/>
      <point x="502" y="500" type="line"/>
      <point x="607" y="500" type="line"/>
      <point x="574" y="384" type="line"/>
      <point x="419" y="391" type="line"/>
      <point x="373" y="331" type="line"/>
      <point x="329" y="267" type="line"/>
      <point x="543" y="276" type="line"/>
      <point x="510" y="161" type="line"/>
      <point x="258" y="161" type="line"/>
      <point x="149" y="0" type="line"/>
      <point x="38" y="0" type="line"/>
    </contour>
  </outline>
</glyph>
<glyph name="lightarcdnleftbxd" format="2">
  <advance width="614"/>
  <unicode hex="256E"/>
  <outline>
    <contour>
      <point x="379" y="23" type="qcurve" smooth="yes"/>
      <point x="379" y="-420" type="line"/>
      <point x="235" y="-420" type="line"/>
      <point x="235" y="23" type="line" smooth="yes"/>
      <point x="235" y="144"/>
      <point x="122" y="258"/>
      <point x="0" y="258" type="qcurve" smooth="yes"/>
      <point x="-20" y="258" type="line"/>
      <point x="-20" y="402" type="line"/>
      <point x="0" y="402" type="line" smooth="yes"/>
      <point x="196" y="402"/>
      <point x="379" y="220"/>
    </contour>
  </outline>
</glyph>
<glyph name="lightarcupleftbxd" format="2">
  <advance width="614"/>
  <unicode hex="256F"/>
  <outline>
    <contour>
      <point x="235" y="1080" type="line"/>
      <point x="379" y="1080" type="line"/>
      <point x="379" y="637" type="line" smooth="yes"/>
      <point x="379" y="440"/>
      <point x="196" y="258"/>
      <point x="0" y="258" type="qcurve" smooth="yes"/>
      <point x="-20" y="258" type="line"/>
      <point x="-20" y="402" type="line"/>
      <point x="0" y="402" type="line" smooth="yes"/>
      <point x="122" y="402"/>
      <point x="235" y="516"/>
      <point x="235" y="637" type="qcurve" smooth="yes"/>
    </contour>
  </outline>
</glyph>
<glyph name="lightarcuprightbxd" format="2">
  <advance width="614"/>
  <unicode hex="2570"/>
  <outline>
    <contour>
      <point x="235" y="637" type="qcurve" smooth="yes"/>
      <point x="235" y="1080" type="line"/>
      <point x="379" y="1080" type="line"/>
      <point x="379" y="637" type="line" smooth="yes"/>
      <point x="379" y="516"/>
      <point x="492" y="402"/>
      <point x="614" y="402" type="qcurve" smooth="yes"/>
      <point x="634" y="402" type="line"/>
      <point x="634" y="258" type="line"/>
      <point x="614" y="258" type="line" smooth="yes"/>
      <point x="418" y="258"/>
      <point x="235" y="440"/>
    </contour>
  </outline>
</glyph>
<glyph name="lightdiagcrossbxd" format="2">
  <advance width="614"/>
  <unicode hex="2573"/>
  <outline>
    <contour>
      <point x="104" y="-360" type="line"/>
      <point x="0" y="-360" type="line"/>
      <point x="0" y="-272" type="line"/>
      <point x="238" y="330" type="line"/>
      <point x="0" y="932" type="line"/>
      <point x="0" y="1020" type="line"/>
      <point x="104" y="1020" type="line"/>
      <point x="307" y="506" type="line"/>
      <point x="510" y="1020" type="line"/>
      <point x="614" y="1020" type="line"/>
      <point x="614" y="932" type="line"/>
      <point x="376" y="330" type="line"/>
      <point x="614" y="-272" type="line"/>
      <point x="614" y="-360" type="line"/>
      <point x="510" y="-360" type="line"/>
      <point x="307" y="154" type="line"/>
    </contour>
  </outline>
</glyph>
<glyph name="uni2611" format="2">
  <advance width="614"/>
  <unicode hex="2611"/>
  <outline>
    <contour>
      <point x="593" y="732" type="line"/>
      <point x="680" y="732" type="line"/>
      <point x="586" y="585" type="line"/>
      <point x="664" y="585" type="line"/>
      <point x="516" y="70" type="line"/>
      <point x="2" y="70" type="line"/>
      <point x="150" y="585" type="line"/>
      <point x="503" y="585" type="line"/>
    </contour>
    <contour>
      <point x="541" y="514" type="line"/>
      <point x="338" y="197" type="line"/>
      <point x="266" y="197" type="line"/>
      <point x="232" y="436" type="line"/>
      <point x="307" y="436" type="line"/>
      <point x="323" y="290" type="line"/>
      <point x="460" y="514" type="line"/>
      <point x="211" y="514" type="line"/>
      <point x="103" y="141" type="line"/>
      <point x="455" y="141" type="line"/>
      <point x="563" y="514" type="line"/>
    </contour>
  </outline>
</glyph>
<glyph name="uniE0A0" format="2">
  <advance width="614"/>
  <unicode hex="E0A0"/>
  <outline>
    <contour>
      <point x="19" y="217" type="line"/>
      <point x="249" y="1020" type="line"/>
      <point x="374" y="1020" type="line"/>
      <point x="173" y="316" type="line"/>
    </contour>
    <contour>
      <point x="-141" y="-360" type="line"/>
      <point x="-95" y="-198" type="line" smooth="yes"/>
      <point x="-45" y="-24"/>
      <point x="60" y="111"/>
      <point x="246" y="208" type="qcurve" smooth="yes"/>
      <point x="319" y="247"/>
      <point x="375" y="315"/>
      <point x="399" y="396" type="qcurve" smooth="yes"/>
      <point x="436" y="528" type="line"/>
      <point x="290" y="528" type="line"/>
      <point x="292" y="532" type="line"/>
      <point x="563" y="758" type="line"/>
      <point x="567" y="758" type="line"/>
      <point x="709" y="532" type="line"/>
      <point x="707" y="528" type="line"/>
      <point x="561" y="528" type="line"/>
      <point x="522" y="389" type="line" smooth="yes"/>
      <point x="486" y="264"/>
      <point x="392" y="166"/>
      <point x="242" y="88" type="qcurve" smooth="yes"/>
      <point x="138" y="31"/>
      <point x="69" y="-61"/>
      <point x="27" y="-209" type="qcurve" smooth="yes"/>
      <point x="-16" y="-360" type="line"/>
    </contour>
  </outline>
</glyph>
<glyph name="uniE0B0" format="2">
  <advance width="614"/>
  <unicode hex="E0B0"/>
  <outline>
    <contour>
      <point x="147" y="311" type="line"/>
      <point x="147" y="311" type="line"/>
      <point x="246" y="655" type="line"/>
      <point x="250" y="655" type="line"/>
      <point x="586" y="329" type="line"/>
      <point x="585" y="325" type="line"/>
      <point x="62" y="0" type="line"/>
      <point x="58" y="0" type="line"/>
    </contour>
  </outline>
</glyph>
<glyph name="uniE0B1" format="2">
  <advance width="614"/>
  <unicode hex="E0B1"/>
  <outline>
    <contour>
      <point x="322" y="655" type="line"/>
      <point x="578" y="329" type="line"/>
      <point x="577" y="326" type="line"/>
      <point x="577" y="325" type="line"/>
      <point x="174" y="0" type="line"/>
      <point x="-26" y="0" type="line"/>
      <point x="-25" y="4" type="line"/>
      <point x="400" y="344" type="line"/>
      <point x="161" y="651" type="line"/>
      <point x="162" y="655" type="line"/>
    </contour>
  </outline>
</glyph>
<glyph name="uniE0B3" format="2">
  <advance width="614"/>
  <unicode hex="E0B3"/>
  <outline>
    <contour>
      <point x="323" y="0" type="line"/>
      <point x="67" y="326" type="line"/>
      <point x="68" y="329" type="line"/>
      <point x="68" y="330" type="line"/>
      <point x="471" y="655" type="line"/>
      <point x="671" y="655" type="line"/>
      <point x="670" y="651" type="line"/>
      <point x="245" y="311" type="line"/>
      <point x="484" y="4" type="line"/>
      <point x="483" y="0" type="line"/>
    </contour>
  </outline>
</glyph>
<glyph name="ampersand_ampersand.liga" format="2">
  <advance width="614"/>
  <outline>
    <contour>
      <point x="-574" y="137" type="qcurve" smooth="yes"/>
      <point x="-574" y="193"/>
      <point x="-549" y="264"/>
      <point x="-522" y="291" type="qcurve" smooth="yes"/>
      <point x="-498" y="315"/>
      <point x="-416" y="351"/>
      <point x="-346" y="370" type="qcurve"/>
      <point x="-361" y="413"/>
      <point x="-373" y="464"/>
      <point x="-373" y="487" type="qcurve" smooth="yes"/>
      <point x="-373" y="568"/>
      <point x="-259" y="669"/>
      <point x="-167" y="669" type="qcurve" smooth="yes"/>
      <point x="-122" y="669"/>
      <point x="-47" y="662"/>
      <point x="-1" y="655" type="qcurve"/>
      <point x="-25" y="548" type="line"/>
      <point x="-67" y="554"/>
      <point x="-122" y="559"/>
      <point x="-144" y="559" type="qcurve" smooth="yes"/>
      <point x="-187" y="559"/>
      <point x="-237" y="518"/>
      <point x="-237" y="483" type="qcurve" smooth="yes"/>
      <point x="-237" y="473"/>
      <point x="-233" y="452"/>
      <point x="-228" y="439" type="qcurve" smooth="yes"/>
      <point x="-175" y="292" type="line"/>
      <point x="-85" y="422" type="line"/>
      <point x="8" y="364" type="line"/>
      <point x="-129" y="182" type="line"/>
      <point x="-64" y="-1" type="line"/>
      <point x="-203" y="-1" type="line"/>
      <point x="-229" y="76" type="line"/>
      <point x="-278" y="27"/>
      <point x="-361" y="-14"/>
      <point x="-417" y="-14" type="qcurve" smooth="yes"/>
      <point x="-491" y="-14"/>
      <point x="-574" y="66"/>
    </contour>
    <contour>
      <point x="-412" y="235" type="qcurve" smooth="yes"/>
      <point x="-424" y="223"/>
      <point x="-436" y="186"/>
      <point x="-436" y="162" type="qcurve" smooth="yes"/>
      <point x="-436" y="134"/>
      <point x="-407" y="105"/>
      <point x="-379" y="105" type="qcurve" smooth="yes"/>
      <point x="-347" y="105"/>
      <point x="-300" y="132"/>
      <point x="-270" y="167" type="qcurve"/>
      <point x="-313" y="282" type="line"/>
      <point x="-356" y="268"/>
      <point x="-397" y="250"/>
    </contour>
    <contour>
      <point x="8" y="137" type="qcurve" smooth="yes"/>
      <point x="8" y="193"/>
      <point x="33" y="264"/>
      <point x="60" y="291" type="qcurve" smooth="yes"/>
      <point x="84" y="315"/>
      <point x="164" y="349"/>
      <point x="237" y="368" type="qcurve"/>
      <point x="220" y="415"/>
      <point x="209" y="465"/>
      <point x="209" y="487" type="qcurve" smooth="yes"/>
      <point x="209" y="568"/>
      <point x="323" y="669"/>
      <point x="415" y="669" type="qcurve" smooth="yes"/>
      <point x="460" y="669"/>
      <point x="535" y="662"/>
      <point x="581" y="655" type="qcurve"/>
      <point x="557" y="548" type="line"/>
      <point x="515" y="554"/>
      <point x="460" y="559"/>
      <point x="438" y="559" type="qcurve" smooth="yes"/>
      <point x="395" y="559"/>
      <point x="345" y="518"/>
      <point x="345" y="483" type="qcurve" smooth="yes"/>
      <point x="345" y="473"/>
      <point x="349" y="452"/>
      <point x="354" y="439" type="qcurve" smooth="yes"/>
      <point x="409" y="284" type="line"/>
      <point x="517" y="422" type="line"/>
      <point x="602" y="350" type="line"/>
      <point x="455" y="176" type="line"/>
      <point x="518" y="-1" type="line"/>
      <point x="379" y="-1" type="line"/>
      <point x="353" y="76" type="line"/>
      <point x="304" y="27"/>
      <point x="221" y="-14"/>
      <point x="165" y="-14" type="qcurve" smooth="yes"/>
      <point x="91" y="-14"/>
      <point x="8" y="66"/>
    </contour>
    <contour>
      <point x="170" y="235" type="qcurve" smooth="yes"/>
      <point x="158" y="223"/>
      <point x="146" y="186"/>
      <point x="146" y="162" type="qcurve" smooth="yes"/>
      <point x="146" y="134"/>
      <point x="175" y="105"/>
      <point x="203" y="105" type="qcurve" smooth="yes"/>
      <point x="235" y="105"/>
      <point x="282" y="132"/>
      <point x="312" y="167" type="qcurve"/>
      <point x="270" y="280" type="line"/>
      <point x="221" y="265"/>
      <point x="183" y="248"/>
    </contour>
  </outline>
</glyph>
<glyph name="asciicircum_equal.liga" format="2">
  <advance width="614"/>
  <outline>
    <contour>
      <point x="-178" y="655" type="line"/>
      <point x="4" y="655" type="line"/>
      <point x="43" y="500" type="line"/>
      <point x="508" y="500" type="line"/>
      <point x="475" y="384" type="line"/>
      <point x="-64" y="384" type="line"/>
      <point x="-104" y="573" type="line"/>
      <point x="-324" y="271" type="line"/>
      <point x="-472" y="271" type="line"/>
    </contour>
    <contour>
      <point x="411" y="161" type="line"/>
      <point x="-41" y="161" type="line"/>
      <point x="-8" y="276" type="line"/>
      <point x="444" y="276" type="line"/>
    </contour>
  </outline>
</glyph>
<glyph name="asciitilde_asciitilde.liga" format="2">
  <advance width="614"/>
  <outline>
    <contour>
      <point x="181" y="272" type="qcurve" smooth="yes"/>
      <point x="143" y="308"/>
      <point x="119" y="326"/>
      <point x="109" y="326" type="qcurve" smooth="yes"/>
      <point x="93" y="326"/>
      <point x="58" y="300"/>
      <point x="28" y="268" type="qcurve" smooth="yes"/>
      <point x="-5" y="232"/>
      <point x="-53" y="202"/>
      <point x="-81" y="202" type="qcurve" smooth="yes"/>
      <point x="-107" y="202"/>
      <point x="-146" y="224"/>
      <point x="-197" y="272" type="qcurve" smooth="yes"/>
      <point x="-235" y="308"/>
      <point x="-259" y="326"/>
      <point x="-269" y="326" type="qcurve" smooth="yes"/>
      <point x="-279" y="326"/>
      <point x="-307" y="288"/>
      <point x="-363" y="196" type="qcurve"/>
      <point x="-463" y="255" type="line"/>
      <point x="-399" y="370"/>
      <point x="-314" y="460"/>
      <point x="-262" y="460" type="qcurve" smooth="yes"/>
      <point x="-236" y="460"/>
      <point x="-197" y="438"/>
      <point x="-146" y="390" type="qcurve" smooth="yes"/>
      <point x="-108" y="354"/>
      <point x="-84" y="336"/>
      <point x="-74" y="336" type="qcurve" smooth="yes"/>
      <point x="-58" y="336"/>
      <point x="-23" y="362"/>
      <point x="7" y="394" type="qcurve" smooth="yes"/>
      <point x="40" y="430"/>
      <point x="88" y="460"/>
      <point x="116" y="460" type="qcurve" smooth="yes"/>
      <point x="142" y="460"/>
      <point x="181" y="438"/>
      <point x="232" y="390" type="qcurve" smooth="yes"/>
      <point x="270" y="354"/>
      <point x="294" y="336"/>
      <point x="304" y="336" type="qcurve" smooth="yes"/>
      <point x="314" y="336"/>
      <point x="342" y="374"/>
      <point x="398" y="466" type="qcurve"/>
      <point x="498" y="407" type="line"/>
      <point x="434" y="292"/>
      <point x="349" y="202"/>
      <point x="297" y="202" type="qcurve" smooth="yes"/>
      <point x="271" y="202"/>
      <point x="232" y="224"/>
    </contour>
  </outline>
</glyph>
<glyph name="asciitilde_asciitilde_greater" format="2">
  <advance width="614"/>
  <outline>
    <contour>
      <point x="-67" y="466" type="qcurve" smooth="yes"/>
      <point x="-35" y="466"/>
      <point x="12" y="440"/>
      <point x="65" y="390" type="qcurve" smooth="yes"/>
      <point x="90" y="368"/>
      <point x="121" y="351"/>
      <point x="138" y="351" type="qcurve" smooth="yes"/>
      <point x="160" y="351"/>
      <point x="256" y="374"/>
      <point x="341" y="399" type="qcurve"/>
      <point x="185" y="598" type="line"/>
      <point x="280" y="665" type="line"/>
      <point x="561" y="309" type="line"/>
      <point x="560" y="305" type="line"/>
      <point x="136" y="-11" type="line"/>
      <point x="62" y="81" type="line"/>
      <point x="367" y="307" type="line"/>
      <point x="250" y="264"/>
      <point x="124" y="225"/>
      <point x="103" y="225" type="qcurve" smooth="yes"/>
      <point x="78" y="225"/>
      <point x="35" y="246"/>
      <point x="7" y="273" type="qcurve" smooth="yes"/>
      <point x="-34" y="311"/>
      <point x="-62" y="332"/>
      <point x="-74" y="332" type="qcurve" smooth="yes"/>
      <point x="-90" y="332"/>
      <point x="-125" y="306"/>
      <point x="-155" y="274" type="qcurve" smooth="yes"/>
      <point x="-188" y="238"/>
      <point x="-236" y="208"/>
      <point x="-264" y="208" type="qcurve" smooth="yes"/>
      <point x="-290" y="208"/>
      <point x="-329" y="230"/>
      <point x="-380" y="278" type="qcurve" smooth="yes"/>
      <point x="-418" y="314"/>
      <point x="-442" y="332"/>
      <point x="-452" y="332" type="qcurve" smooth="yes"/>
      <point x="-468" y="332"/>
      <point x="-503" y="306"/>
      <point x="-533" y="274" type="qcurve" smooth="yes"/>
      <point x="-566" y="238"/>
      <point x="-614" y="208"/>
      <point x="-642" y="208" type="qcurve" smooth="yes"/>
      <point x="-668" y="208"/>
      <point x="-707" y="230"/>
      <point x="-758" y="278" type="qcurve" smooth="yes"/>
      <point x="-796" y="314"/>
      <point x="-820" y="332"/>
      <point x="-830" y="332" type="qcurve" smooth="yes"/>
      <point x="-840" y="332"/>
      <point x="-868" y="294"/>
      <point x="-924" y="202" type="qcurve"/>
      <point x="-1024" y="261" type="line"/>
      <point x="-960" y="376"/>
      <point x="-875" y="466"/>
      <point x="-823" y="466" type="qcurve" smooth="yes"/>
      <point x="-797" y="466"/>
      <point x="-758" y="444"/>
      <point x="-707" y="396" type="qcurve" smooth="yes"/>
      <point x="-669" y="360"/>
      <point x="-645" y="342"/>
      <point x="-635" y="342" type="qcurve" smooth="yes"/>
      <point x="-619" y="342"/>
      <point x="-584" y="368"/>
      <point x="-554" y="400" type="qcurve" smooth="yes"/>
      <point x="-521" y="436"/>
      <point x="-473" y="466"/>
      <point x="-445" y="466" type="qcurve" smooth="yes"/>
      <point x="-419" y="466"/>
      <point x="-380" y="444"/>
      <point x="-329" y="396" type="qcurve" smooth="yes"/>
      <point x="-291" y="360"/>
      <point x="-267" y="342"/>
      <point x="-257" y="342" type="qcurve" smooth="yes"/>
      <point x="-241" y="342"/>
      <point x="-206" y="368"/>
      <point x="-176" y="400" type="qcurve" smooth="yes"/>
      <point x="-143" y="436"/>
      <point x="-95" y="466"/>
    </contour>
  </outline>
</glyph>
<glyph name="asciitilde_at.liga" format="2">
  <advance width="614"/>
  <outline>
    <contour>
      <point x="532" y="561" type="qcurve" smooth="yes"/>
      <point x="532" y="619"/>
      <point x="476" y="670"/>
      <point x="409" y="670" type="qcurve" smooth="yes"/>
      <point x="296" y="670"/>
      <point x="172" y="585"/>
      <point x="72" y="436" type="qcurve" smooth="yes"/>
      <point x="-24" y="292"/>
      <point x="-110" y="202"/>
      <point x="-154" y="202" type="qcurve" smooth="yes"/>
      <point x="-180" y="202"/>
      <point x="-219" y="224"/>
      <point x="-270" y="272" type="qcurve" smooth="yes"/>
      <point x="-308" y="308"/>
      <point x="-332" y="326"/>
      <point x="-342" y="326" type="qcurve" smooth="yes"/>
      <point x="-352" y="326"/>
      <point x="-380" y="288"/>
      <point x="-436" y="196" type="qcurve"/>
      <point x="-536" y="255" type="line"/>
      <point x="-472" y="370"/>
      <point x="-387" y="460"/>
      <point x="-335" y="460" type="qcurve" smooth="yes"/>
      <point x="-309" y="460"/>
      <point x="-270" y="438"/>
      <point x="-219" y="390" type="qcurve" smooth="yes"/>
      <point x="-179" y="352"/>
      <point x="-135" y="324"/>
      <point x="-111" y="324" type="qcurve" smooth="yes"/>
      <point x="-89" y="324"/>
      <point x="-42" y="377"/>
      <point x="21" y="466" type="qcurve" smooth="yes"/>
      <point x="130" y="621"/>
      <point x="282" y="725"/>
      <point x="414" y="725" type="qcurve" smooth="yes"/>
      <point x="513" y="725"/>
      <point x="593" y="655"/>
      <point x="593" y="574" type="qcurve" smooth="yes"/>
      <point x="593" y="488"/>
      <point x="519" y="231"/>
      <point x="476" y="188" type="qcurve" smooth="yes"/>
      <point x="445" y="157"/>
      <point x="373" y="129"/>
      <point x="323" y="129" type="qcurve" smooth="yes"/>
      <point x="252" y="129"/>
      <point x="180" y="190"/>
      <point x="180" y="251" type="qcurve" smooth="yes"/>
      <point x="180" y="304"/>
      <point x="224" y="426"/>
      <point x="257" y="459" type="qcurve" smooth="yes"/>
      <point x="286" y="488"/>
      <point x="365" y="515"/>
      <point x="426" y="515" type="qcurve" smooth="yes"/>
      <point x="528" y="515" type="line"/>
      <point x="530" y="527"/>
      <point x="532" y="550"/>
    </contour>
    <contour>
      <point x="273" y="266" type="qcurve" smooth="yes"/>
      <point x="273" y="239"/>
      <point x="301" y="215"/>
      <point x="332" y="215" type="qcurve" smooth="yes"/>
      <point x="368" y="215"/>
      <point x="419" y="232"/>
      <point x="437" y="250" type="qcurve" smooth="yes"/>
      <point x="457" y="270"/>
      <point x="496" y="364"/>
      <point x="512" y="429" type="qcurve"/>
      <point x="396" y="429" type="line" smooth="yes"/>
      <point x="374" y="429"/>
      <point x="336" y="413"/>
      <point x="321" y="398" type="qcurve" smooth="yes"/>
      <point x="299" y="376"/>
      <point x="273" y="304"/>
    </contour>
  </outline>
</glyph>
<glyph name="asciitilde_greater.liga" format="2">
  <advance width="614"/>
  <outline>
    <contour>
      <point x="-83" y="400" type="qcurve" smooth="yes"/>
      <point x="-49" y="436"/>
      <point x="-4" y="466"/>
      <point x="20" y="466" type="qcurve" smooth="yes"/>
      <point x="51" y="466"/>
      <point x="88" y="448"/>
      <point x="113" y="424" type="qcurve"/>
      <point x="156" y="387"/>
      <point x="183" y="373"/>
      <point x="197" y="373" type="qcurve" smooth="yes"/>
      <point x="217" y="373"/>
      <point x="291" y="382"/>
      <point x="348" y="391" type="qcurve"/>
      <point x="185" y="598" type="line"/>
      <point x="280" y="665" type="line"/>
      <point x="561" y="309" type="line"/>
      <point x="560" y="305" type="line"/>
      <point x="136" y="-11" type="line"/>
      <point x="62" y="81" type="line"/>
      <point x="338" y="285" type="line"/>
      <point x="270" y="266"/>
      <point x="182" y="247"/>
      <point x="162" y="247" type="qcurve" smooth="yes"/>
      <point x="137" y="247"/>
      <point x="92" y="271"/>
      <point x="55" y="307" type="qcurve" smooth="yes"/>
      <point x="41" y="320"/>
      <point x="23" y="332"/>
      <point x="13" y="332" type="qcurve" smooth="yes"/>
      <point x="0" y="332"/>
      <point x="-29" y="309"/>
      <point x="-62" y="274" type="qcurve" smooth="yes"/>
      <point x="-95" y="238"/>
      <point x="-143" y="208"/>
      <point x="-171" y="208" type="qcurve" smooth="yes"/>
      <point x="-197" y="208"/>
      <point x="-236" y="230"/>
      <point x="-287" y="278" type="qcurve" smooth="yes"/>
      <point x="-325" y="314"/>
      <point x="-349" y="332"/>
      <point x="-359" y="332" type="qcurve" smooth="yes"/>
      <point x="-369" y="332"/>
      <point x="-397" y="294"/>
      <point x="-453" y="202" type="qcurve"/>
      <point x="-553" y="261" type="line"/>
      <point x="-489" y="376"/>
      <point x="-404" y="466"/>
      <point x="-352" y="466" type="qcurve" smooth="yes"/>
      <point x="-326" y="466"/>
      <point x="-287" y="444"/>
      <point x="-236" y="396" type="qcurve" smooth="yes"/>
      <point x="-198" y="360"/>
      <point x="-174" y="342"/>
      <point x="-164" y="342" type="qcurve" smooth="yes"/>
      <point x="-148" y="342"/>
      <point x="-113" y="368"/>
    </contour>
  </outline>
</glyph>
<glyph name="asciitilde_hyphen.liga" format="2">
  <advance width="614"/>
  <outline>
    <contour>
      <point x="-122" y="227" type="qcurve" smooth="yes"/>
      <point x="-146" y="227"/>
      <point x="-186" y="248"/>
      <point x="-211" y="272" type="qcurve" smooth="yes"/>
      <point x="-249" y="308"/>
      <point x="-273" y="326"/>
      <point x="-283" y="326" type="qcurve" smooth="yes"/>
      <point x="-293" y="326"/>
      <point x="-321" y="288"/>
      <point x="-377" y="196" type="qcurve"/>
      <point x="-477" y="255" type="line"/>
      <point x="-413" y="370"/>
      <point x="-328" y="460"/>
      <point x="-276" y="460" type="qcurve" smooth="yes"/>
      <point x="-250" y="460"/>
      <point x="-211" y="438"/>
      <point x="-160" y="390" type="qcurve" smooth="yes"/>
      <point x="-138" y="369"/>
      <point x="-100" y="352"/>
      <point x="-75" y="352" type="qcurve" smooth="yes"/>
      <point x="-68" y="352"/>
      <point x="-49" y="356"/>
      <point x="-27" y="364" type="qcurve" smooth="yes"/>
      <point x="11" y="378"/>
      <point x="63" y="388"/>
      <point x="89" y="388" type="qcurve" smooth="yes"/>
      <point x="457" y="388" type="line"/>
      <point x="424" y="272" type="line"/>
      <point x="73" y="272" type="line" smooth="yes"/>
      <point x="48" y="272"/>
      <point x="-2" y="262"/>
      <point x="-44" y="246" type="qcurve" smooth="yes"/>
      <point x="-76" y="234"/>
      <point x="-108" y="227"/>
    </contour>
  </outline>
</glyph>
<glyph name="bar_bar_bar_greater.liga" format="2">
  <advance width="614"/>
  <outline>
    <contour>
      <point x="-787" y="783" type="line"/>
      <point x="-657" y="783" type="line"/>
      <point x="-919" y="-129" type="line"/>
      <point x="-1049" y="-129" type="line"/>
    </contour>
    <contour>
      <point x="-1203" y="783" type="line"/>
      <point x="-1073" y="783" type="line"/>
      <point x="-1335" y="-129" type="line"/>
      <point x="-1465" y="-129" type="line"/>
    </contour>
    <contour>
      <point x="288" y="398" type="line"/>
      <point x="250" y="267" type="line"/>
      <point x="-526" y="-129" type="line"/>
      <point x="-635" y="-129" type="line"/>
      <point x="-373" y="783" type="line"/>
      <point x="-264" y="783" type="line"/>
    </contour>
    <contour>
      <point x="144" y="341" type="line"/>
      <point x="-287" y="630" type="line"/>
      <point x="-455" y="45" type="line"/>
    </contour>
  </outline>
</glyph>
<glyph name="bar_bar_equal.liga" format="2">
  <advance width="614"/>
  <outline>
    <contour>
      <point x="544" y="276" type="line"/>
      <point x="511" y="161" type="line"/>
      <point x="-563" y="161" type="line"/>
      <point x="-638" y="-100" type="line"/>
      <point x="-768" y="-100" type="line"/>
      <point x="-523" y="755" type="line"/>
      <point x="-393" y="755" type="line"/>
      <point x="-466" y="500" type="line"/>
      <point x="608" y="500" type="line"/>
      <point x="575" y="384" type="line"/>
      <point x="-499" y="384" type="line"/>
      <point x="-530" y="276" type="line"/>
    </contour>
    <contour>
      <point x="-1083" y="-100" type="line"/>
      <point x="-838" y="755" type="line"/>
      <point x="-708" y="755" type="line"/>
      <point x="-953" y="-100" type="line"/>
    </contour>
  </outline>
</glyph>
<glyph name="bar_bar_hyphen.liga" format="2">
  <advance width="614"/>
  <outline>
    <contour>
      <point x="-838" y="755" type="line"/>
      <point x="-708" y="755" type="line"/>
      <point x="-953" y="-100" type="line"/>
      <point x="-1083" y="-100" type="line"/>
    </contour>
    <contour>
      <point x="594" y="388" type="line"/>
      <point x="561" y="272" type="line"/>
      <point x="-524" y="272" type="line"/>
      <point x="-631" y="-100" type="line"/>
      <point x="-761" y="-100" type="line"/>
      <point x="-516" y="755" type="line"/>
      <point x="-386" y="755" type="line"/>
      <point x="-491" y="388" type="line"/>
    </contour>
  </outline>
</glyph>
<glyph name="bar_braceright.liga" format="2">
  <advance width="614"/>
  <outline>
    <contour>
      <point x="290" y="17" type="qcurve" smooth="yes"/>
      <point x="290" y="-39"/>
      <point x="215" y="-101"/>
      <point x="142" y="-106" type="qcurve" smooth="yes"/>
      <point x="-169" y="-128" type="line"/>
      <point x="-134" y="-7" type="line"/>
      <point x="92" y="4" type="line" smooth="yes"/>
      <point x="113" y="5"/>
      <point x="134" y="17"/>
      <point x="134" y="29" type="qcurve" smooth="yes"/>
      <point x="134" y="36"/>
      <point x="128" y="49"/>
      <point x="120" y="61" type="qcurve" smooth="yes"/>
      <point x="86" y="113" type="line" smooth="yes"/>
      <point x="65" y="144"/>
      <point x="50" y="178"/>
      <point x="50" y="191" type="qcurve" smooth="yes"/>
      <point x="50" y="236"/>
      <point x="195" y="291"/>
      <point x="370" y="324" type="qcurve"/>
      <point x="377" y="348" type="line"/>
      <point x="251" y="376"/>
      <point x="142" y="426"/>
      <point x="142" y="463" type="qcurve" smooth="yes"/>
      <point x="142" y="484"/>
      <point x="172" y="523"/>
      <point x="215" y="557" type="qcurve" smooth="yes"/>
      <point x="270" y="601" type="line" smooth="yes"/>
      <point x="287" y="614"/>
      <point x="300" y="630"/>
      <point x="300" y="639" type="qcurve" smooth="yes"/>
      <point x="300" y="647"/>
      <point x="290" y="657"/>
      <point x="280" y="658" type="qcurve" smooth="yes"/>
      <point x="72" y="669" type="line"/>
      <point x="106" y="790" type="line"/>
      <point x="322" y="778" type="line" smooth="yes"/>
      <point x="396" y="774"/>
      <point x="469" y="726"/>
      <point x="469" y="679" type="qcurve" smooth="yes"/>
      <point x="469" y="648"/>
      <point x="437" y="599"/>
      <point x="396" y="563" type="qcurve" smooth="yes"/>
      <point x="339" y="514" type="line" smooth="yes"/>
      <point x="316" y="494"/>
      <point x="303" y="479"/>
      <point x="303" y="472" type="qcurve" smooth="yes"/>
      <point x="303" y="455"/>
      <point x="397" y="420"/>
      <point x="510" y="391" type="qcurve"/>
      <point x="476" y="271" type="line"/>
      <point x="310" y="228"/>
      <point x="212" y="195"/>
      <point x="212" y="178" type="qcurve" smooth="yes"/>
      <point x="212" y="173"/>
      <point x="219" y="157"/>
      <point x="229" y="142" type="qcurve" smooth="yes"/>
      <point x="263" y="90" type="line" smooth="yes"/>
      <point x="277" y="68"/>
      <point x="290" y="34"/>
    </contour>
    <contour>
      <point x="-347" y="-129" type="line"/>
      <point x="-477" y="-129" type="line"/>
      <point x="-215" y="783" type="line"/>
      <point x="-85" y="783" type="line"/>
    </contour>
  </outline>
</glyph>
<glyph name="bar_bracketright.liga" format="2">
  <advance width="614"/>
  <outline>
    <contour>
      <point x="-347" y="-129" type="line"/>
      <point x="-477" y="-129" type="line"/>
      <point x="-215" y="783" type="line"/>
      <point x="-85" y="783" type="line"/>
    </contour>
    <contour>
      <point x="215" y="-129" type="line"/>
      <point x="-176" y="-129" type="line"/>
      <point x="-142" y="-9" type="line"/>
      <point x="104" y="-9" type="line"/>
      <point x="298" y="664" type="line"/>
      <point x="51" y="664" type="line"/>
      <point x="86" y="783" type="line"/>
      <point x="477" y="783" type="line"/>
    </contour>
  </outline>
</glyph>
<glyph name="bar_equal.liga" format="2">
  <advance width="614"/>
  <outline>
    <contour>
      <point x="544" y="276" type="line"/>
      <point x="511" y="161" type="line"/>
      <point x="-264" y="161" type="line"/>
      <point x="-339" y="-100" type="line"/>
      <point x="-469" y="-100" type="line"/>
      <point x="-224" y="755" type="line"/>
      <point x="-94" y="755" type="line"/>
      <point x="-167" y="500" type="line"/>
      <point x="608" y="500" type="line"/>
      <point x="575" y="384" type="line"/>
      <point x="-200" y="384" type="line"/>
      <point x="-231" y="276" type="line"/>
    </contour>
  </outline>
</glyph>
<glyph name="bar_hyphen.start" format="2">
  <advance width="614"/>
  <outline>
    <contour>
      <point x="667" y="388" type="line"/>
      <point x="634" y="272" type="line"/>
      <point x="-232" y="272" type="line"/>
      <point x="-339" y="-100" type="line"/>
      <point x="-469" y="-100" type="line"/>
      <point x="-224" y="755" type="line"/>
      <point x="-94" y="755" type="line"/>
      <point x="-199" y="388" type="line"/>
    </contour>
  </outline>
</glyph>
<glyph name="braceleft_bar.liga" format="2">
  <advance width="614"/>
  <outline>
    <contour>
      <point x="-413" y="-17" type="qcurve" smooth="yes"/>
      <point x="-413" y="14"/>
      <point x="-381" y="63"/>
      <point x="-340" y="99" type="qcurve" smooth="yes"/>
      <point x="-283" y="148" type="line" smooth="yes"/>
      <point x="-260" y="168"/>
      <point x="-247" y="183"/>
      <point x="-247" y="190" type="qcurve" smooth="yes"/>
      <point x="-247" y="207"/>
      <point x="-341" y="242"/>
      <point x="-454" y="271" type="qcurve"/>
      <point x="-420" y="391" type="line"/>
      <point x="-254" y="434"/>
      <point x="-156" y="467"/>
      <point x="-156" y="484" type="qcurve" smooth="yes"/>
      <point x="-156" y="489"/>
      <point x="-163" y="505"/>
      <point x="-173" y="520" type="qcurve" smooth="yes"/>
      <point x="-207" y="572" type="line" smooth="yes"/>
      <point x="-221" y="594"/>
      <point x="-234" y="628"/>
      <point x="-234" y="645" type="qcurve" smooth="yes"/>
      <point x="-234" y="701"/>
      <point x="-159" y="763"/>
      <point x="-86" y="768" type="qcurve" smooth="yes"/>
      <point x="225" y="790" type="line"/>
      <point x="190" y="669" type="line"/>
      <point x="-36" y="658" type="line" smooth="yes"/>
      <point x="-57" y="657"/>
      <point x="-78" y="645"/>
      <point x="-78" y="633" type="qcurve" smooth="yes"/>
      <point x="-78" y="626"/>
      <point x="-72" y="613"/>
      <point x="-64" y="601" type="qcurve" smooth="yes"/>
      <point x="-30" y="549" type="line" smooth="yes"/>
      <point x="-9" y="518"/>
      <point x="6" y="484"/>
      <point x="6" y="471" type="qcurve" smooth="yes"/>
      <point x="6" y="426"/>
      <point x="-139" y="371"/>
      <point x="-314" y="338" type="qcurve"/>
      <point x="-321" y="314" type="line"/>
      <point x="-195" y="286"/>
      <point x="-86" y="236"/>
      <point x="-86" y="199" type="qcurve" smooth="yes"/>
      <point x="-86" y="178"/>
      <point x="-116" y="139"/>
      <point x="-159" y="105" type="qcurve" smooth="yes"/>
      <point x="-214" y="61" type="line" smooth="yes"/>
      <point x="-231" y="48"/>
      <point x="-244" y="32"/>
      <point x="-244" y="23" type="qcurve" smooth="yes"/>
      <point x="-244" y="15"/>
      <point x="-234" y="5"/>
      <point x="-224" y="4" type="qcurve" smooth="yes"/>
      <point x="-16" y="-7" type="line"/>
      <point x="-50" y="-128" type="line"/>
      <point x="-266" y="-116" type="line" smooth="yes"/>
      <point x="-340" y="-112"/>
      <point x="-413" y="-64"/>
    </contour>
    <contour>
      <point x="399" y="783" type="line"/>
      <point x="529" y="783" type="line"/>
      <point x="267" y="-129" type="line"/>
      <point x="137" y="-129" type="line"/>
    </contour>
  </outline>
</glyph>
<glyph name="bracketleft_bar.liga" format="2">
  <advance width="614"/>
  <outline>
    <contour>
      <point x="399" y="783" type="line"/>
      <point x="529" y="783" type="line"/>
      <point x="267" y="-129" type="line"/>
      <point x="137" y="-129" type="line"/>
    </contour>
    <contour>
      <point x="-34" y="-129" type="line"/>
      <point x="-425" y="-129" type="line"/>
      <point x="-163" y="783" type="line"/>
      <point x="228" y="783" type="line"/>
      <point x="193" y="664" type="line"/>
      <point x="-52" y="664" type="line"/>
      <point x="-246" y="-9" type="line"/>
      <point x="0" y="-9" type="line"/>
    </contour>
  </outline>
</glyph>
<glyph name="bracketright_numbersign.liga" format="2">
  <advance width="614"/>
  <outline>
    <contour>
      <point x="201" y="521" type="line"/>
      <point x="256" y="666" type="line"/>
      <point x="346" y="666" type="line"/>
      <point x="291" y="521" type="line"/>
      <point x="381" y="521" type="line"/>
      <point x="436" y="666" type="line"/>
      <point x="526" y="666" type="line"/>
      <point x="471" y="521" type="line"/>
      <point x="557" y="521" type="line"/>
      <point x="557" y="382" type="line"/>
      <point x="418" y="382" type="line"/>
      <point x="379" y="279" type="line"/>
      <point x="483" y="279" type="line"/>
      <point x="483" y="140" type="line"/>
      <point x="326" y="140" type="line"/>
      <point x="268" y="-12" type="line"/>
      <point x="178" y="-12" type="line"/>
      <point x="236" y="140" type="line"/>
      <point x="146" y="140" type="line"/>
      <point x="88" y="-12" type="line"/>
      <point x="-1" y="-12" type="line"/>
      <point x="57" y="140" type="line"/>
      <point x="-171" y="140" type="line"/>
      <point x="-254" y="-148" type="line"/>
      <point x="-645" y="-148" type="line"/>
      <point x="-611" y="-28" type="line"/>
      <point x="-365" y="-28" type="line"/>
      <point x="-162" y="678" type="line"/>
      <point x="-409" y="678" type="line"/>
      <point x="-374" y="797" type="line"/>
      <point x="17" y="797" type="line"/>
      <point x="-62" y="521" type="line"/>
    </contour>
    <contour>
      <point x="158" y="221" type="line"/>
      <point x="284" y="221" type="line"/>
      <point x="367" y="438" type="line"/>
      <point x="241" y="438" type="line"/>
    </contour>
    <contour>
      <point x="-99" y="392" type="line"/>
      <point x="-134" y="269" type="line"/>
      <point x="106" y="269" type="line"/>
      <point x="152" y="392" type="line"/>
    </contour>
  </outline>
</glyph>
<glyph name="breveacute" format="2">
  <outline>
    <contour>
      <point x="95" y="743" type="line"/>
      <point x="67" y="814" type="line"/>
      <point x="342" y="920" type="line"/>
      <point x="371" y="834" type="line"/>
    </contour>
    <contour>
      <point x="105" y="648" type="qcurve"/>
      <point x="145" y="648"/>
      <point x="216" y="697"/>
      <point x="247" y="745" type="qcurve"/>
      <point x="333" y="709" type="line"/>
      <point x="291" y="634"/>
      <point x="167" y="553"/>
      <point x="96" y="553" type="qcurve"/>
      <point x="20" y="553"/>
      <point x="-61" y="638"/>
      <point x="-61" y="720" type="qcurve"/>
      <point x="19" y="745" type="line"/>
      <point x="22" y="696"/>
      <point x="65" y="648"/>
    </contour>
  </outline>
</glyph>
<glyph name="brevecmb.cap" format="2">
  <outline>
    <contour>
      <point x="157" y="826" type="qcurve"/>
      <point x="197" y="826"/>
      <point x="268" y="875"/>
      <point x="299" y="923" type="qcurve"/>
      <point x="381" y="888" type="line"/>
      <point x="340" y="812"/>
      <point x="221" y="731"/>
      <point x="152" y="731" type="qcurve"/>
      <point x="73" y="731"/>
      <point x="-11" y="816"/>
      <point x="-11" y="898" type="qcurve"/>
      <point x="71" y="923" type="line"/>
      <point x="74" y="874"/>
      <point x="117" y="826"/>
    </contour>
  </outline>
</glyph>
<glyph name="brevegrave" format="2">
  <outline>
    <contour>
      <point x="5" y="919" type="line"/>
      <point x="219" y="813" type="line"/>
      <point x="181" y="746" type="line"/>
      <point x="-43" y="837" type="line"/>
    </contour>
    <contour>
      <point x="105" y="648" type="qcurve"/>
      <point x="145" y="648"/>
      <point x="216" y="697"/>
      <point x="247" y="745" type="qcurve"/>
      <point x="333" y="709" type="line"/>
      <point x="291" y="634"/>
      <point x="167" y="553"/>
      <point x="96" y="553" type="qcurve"/>
      <point x="20" y="553"/>
      <point x="-61" y="638"/>
      <point x="-61" y="720" type="qcurve"/>
      <point x="19" y="745" type="line"/>
      <point x="22" y="696"/>
      <point x="65" y="648"/>
    </contour>
  </outline>
</glyph>
<glyph name="brevetilde.cap" format="2">
  <outline>
    <contour>
      <point x="140" y="1106" type="qcurve"/>
      <point x="159" y="1106"/>
      <point x="192" y="1091"/>
      <point x="219" y="1072" type="qcurve"/>
      <point x="245" y="1054"/>
      <point x="271" y="1040"/>
      <point x="280" y="1040" type="qcurve"/>
      <point x="296" y="1040"/>
      <point x="333" y="1076"/>
      <point x="363" y="1117" type="qcurve"/>
      <point x="427" y="1077" type="line"/>
      <point x="384" y="1008"/>
      <point x="318" y="946"/>
      <point x="281" y="946" type="qcurve"/>
      <point x="262" y="946"/>
      <point x="229" y="961"/>
      <point x="202" y="980" type="qcurve"/>
      <point x="176" y="998"/>
      <point x="150" y="1012"/>
      <point x="141" y="1012" type="qcurve"/>
      <point x="130" y="1012"/>
      <point x="102" y="982"/>
      <point x="68" y="935" type="qcurve"/>
      <point x="5" y="974" type="line"/>
      <point x="50" y="1045"/>
      <point x="109" y="1106"/>
    </contour>
    <contour>
      <point x="157" y="826" type="qcurve"/>
      <point x="200" y="826"/>
      <point x="268" y="865"/>
      <point x="293" y="903" type="qcurve"/>
      <point x="374" y="861" type="line"/>
      <point x="339" y="799"/>
      <point x="225" y="731"/>
      <point x="158" y="731" type="qcurve"/>
      <point x="78" y="731"/>
      <point x="-9" y="809"/>
      <point x="-9" y="883" type="qcurve"/>
      <point x="68" y="913" type="line"/>
      <point x="71" y="869"/>
      <point x="115" y="826"/>
    </contour>
  </outline>
</glyph>
<glyph name="caroncmb.cap" format="2">
  <outline>
    <contour>
      <point x="122" y="731" type="line"/>
      <point x="-27" y="853" type="line"/>
      <point x="22" y="920" type="line"/>
      <point x="158" y="836" type="line"/>
      <point x="340" y="920" type="line"/>
      <point x="373" y="851" type="line"/>
      <point x="164" y="731" type="line"/>
    </contour>
  </outline>
</glyph>
<glyph name="circumflexacute.cap" format="2">
  <outline>
    <contour>
      <point x="301" y="892" type="line"/>
      <point x="268" y="963" type="line"/>
      <point x="447" y="1045" type="line"/>
      <point x="484" y="959" type="line"/>
    </contour>
    <contour>
      <point x="-17" y="731" type="line"/>
      <point x="-40" y="807" type="line"/>
      <point x="162" y="910" type="line"/>
      <point x="204" y="910" type="line"/>
      <point x="355" y="794" type="line"/>
      <point x="301" y="731" type="line"/>
      <point x="163" y="806" type="line"/>
    </contour>
  </outline>
</glyph>
<glyph name="circumflexacute" format="2">
  <outline>
    <contour>
      <point x="260" y="733" type="line"/>
      <point x="233" y="800" type="line"/>
      <point x="432" y="880" type="line"/>
      <point x="461" y="798" type="line"/>
    </contour>
    <contour>
      <point x="-51" y="553" type="line"/>
      <point x="-85" y="615" type="line"/>
      <point x="102" y="738" type="line"/>
      <point x="164" y="738" type="line"/>
      <point x="289" y="604" type="line"/>
      <point x="231" y="553" type="line"/>
      <point x="114" y="638" type="line"/>
    </contour>
  </outline>
</glyph>
<glyph name="circumflexgrave.cap" format="2">
  <outline>
    <contour>
      <point x="310" y="1054" type="line"/>
      <point x="441" y="972" type="line"/>
      <point x="392" y="897" type="line"/>
      <point x="248" y="964" type="line"/>
    </contour>
    <contour>
      <point x="-17" y="731" type="line"/>
      <point x="-40" y="807" type="line"/>
      <point x="162" y="910" type="line"/>
      <point x="204" y="910" type="line"/>
      <point x="355" y="794" type="line"/>
      <point x="301" y="731" type="line"/>
      <point x="163" y="806" type="line"/>
    </contour>
  </outline>
</glyph>
<glyph name="circumflexgrave" format="2">
  <outline>
    <contour>
      <point x="254" y="884" type="line"/>
      <point x="386" y="777" type="line"/>
      <point x="334" y="718" type="line"/>
      <point x="191" y="811" type="line"/>
    </contour>
    <contour>
      <point x="-51" y="553" type="line"/>
      <point x="-85" y="615" type="line"/>
      <point x="102" y="738" type="line"/>
      <point x="164" y="738" type="line"/>
      <point x="289" y="604" type="line"/>
      <point x="231" y="553" type="line"/>
      <point x="114" y="638" type="line"/>
    </contour>
  </outline>
</glyph>
<glyph name="circumflextilde.cap" format="2">
  <outline>
    <contour>
      <point x="141" y="1111" type="qcurve"/>
      <point x="160" y="1111"/>
      <point x="193" y="1096"/>
      <point x="220" y="1077" type="qcurve"/>
      <point x="246" y="1059"/>
      <point x="272" y="1045"/>
      <point x="281" y="1045" type="qcurve"/>
      <point x="297" y="1045"/>
      <point x="334" y="1081"/>
      <point x="364" y="1122" type="qcurve"/>
      <point x="428" y="1082" type="line"/>
      <point x="385" y="1013"/>
      <point x="319" y="951"/>
      <point x="282" y="951" type="qcurve"/>
      <point x="263" y="951"/>
      <point x="230" y="966"/>
      <point x="203" y="985" type="qcurve"/>
      <point x="177" y="1003"/>
      <point x="151" y="1017"/>
      <point x="142" y="1017" type="qcurve"/>
      <point x="131" y="1017"/>
      <point x="103" y="987"/>
      <point x="69" y="940" type="qcurve"/>
      <point x="6" y="979" type="line"/>
      <point x="51" y="1050"/>
      <point x="110" y="1111"/>
    </contour>
    <contour>
      <point x="-17" y="731" type="line"/>
      <point x="-40" y="807" type="line"/>
      <point x="162" y="910" type="line"/>
      <point x="204" y="910" type="line"/>
      <point x="355" y="794" type="line"/>
      <point x="301" y="731" type="line"/>
      <point x="163" y="806" type="line"/>
    </contour>
  </outline>
</glyph>
<glyph name="circumflextilde" format="2">
  <outline>
    <contour>
      <point x="112" y="940" type="qcurve"/>
      <point x="130" y="940"/>
      <point x="159" y="925"/>
      <point x="189" y="900" type="qcurve"/>
      <point x="226" y="870"/>
      <point x="237" y="864"/>
      <point x="243" y="864" type="qcurve"/>
      <point x="258" y="864"/>
      <point x="294" y="903"/>
      <point x="318" y="943" type="qcurve"/>
      <point x="389" y="910" type="line"/>
      <point x="341" y="834"/>
      <point x="275" y="771"/>
      <point x="243" y="771" type="qcurve"/>
      <point x="225" y="771"/>
      <point x="196" y="786"/>
      <point x="166" y="811" type="qcurve"/>
      <point x="129" y="841"/>
      <point x="118" y="847"/>
      <point x="112" y="847" type="qcurve"/>
      <point x="97" y="847"/>
      <point x="61" y="808"/>
      <point x="37" y="768" type="qcurve"/>
      <point x="-33" y="801" type="line"/>
      <point x="16" y="877"/>
      <point x="81" y="940"/>
    </contour>
    <contour>
      <point x="-51" y="553" type="line"/>
      <point x="-85" y="615" type="line"/>
      <point x="102" y="738" type="line"/>
      <point x="164" y="738" type="line"/>
      <point x="289" y="604" type="line"/>
      <point x="231" y="553" type="line"/>
      <point x="114" y="638" type="line"/>
    </contour>
  </outline>
</glyph>
<glyph name="colon_colon_equal.liga" format="2">
  <advance width="614"/>
  <outline>
    <contour>
      <point x="-661" y="508" type="qcurve" smooth="yes"/>
      <point x="-661" y="451"/>
      <point x="-742" y="382"/>
      <point x="-809" y="382" type="qcurve" smooth="yes"/>
      <point x="-864" y="382"/>
      <point x="-919" y="419"/>
      <point x="-919" y="455" type="qcurve" smooth="yes"/>
      <point x="-919" y="512"/>
      <point x="-838" y="581"/>
      <point x="-771" y="581" type="qcurve" smooth="yes"/>
      <point x="-716" y="581"/>
      <point x="-661" y="544"/>
    </contour>
    <contour>
      <point x="-209" y="508" type="qcurve" smooth="yes"/>
      <point x="-209" y="451"/>
      <point x="-290" y="382"/>
      <point x="-357" y="382" type="qcurve" smooth="yes"/>
      <point x="-412" y="382"/>
      <point x="-467" y="419"/>
      <point x="-467" y="455" type="qcurve" smooth="yes"/>
      <point x="-467" y="512"/>
      <point x="-386" y="581"/>
      <point x="-319" y="581" type="qcurve" smooth="yes"/>
      <point x="-264" y="581"/>
      <point x="-209" y="544"/>
    </contour>
    <contour>
      <point x="445" y="384" type="line"/>
      <point x="-6" y="384" type="line"/>
      <point x="27" y="500" type="line"/>
      <point x="478" y="500" type="line"/>
    </contour>
    <contour>
      <point x="381" y="161" type="line"/>
      <point x="-70" y="161" type="line"/>
      <point x="-37" y="276" type="line"/>
      <point x="414" y="276" type="line"/>
    </contour>
    <contour>
      <point x="-748" y="201" type="qcurve" smooth="yes"/>
      <point x="-748" y="144"/>
      <point x="-829" y="75"/>
      <point x="-896" y="75" type="qcurve" smooth="yes"/>
      <point x="-951" y="75"/>
      <point x="-1006" y="112"/>
      <point x="-1006" y="148" type="qcurve" smooth="yes"/>
      <point x="-1006" y="205"/>
      <point x="-925" y="274"/>
      <point x="-858" y="274" type="qcurve" smooth="yes"/>
      <point x="-803" y="274"/>
      <point x="-748" y="237"/>
    </contour>
    <contour>
      <point x="-296" y="201" type="qcurve" smooth="yes"/>
      <point x="-296" y="144"/>
      <point x="-377" y="75"/>
      <point x="-444" y="75" type="qcurve" smooth="yes"/>
      <point x="-499" y="75"/>
      <point x="-554" y="112"/>
      <point x="-554" y="148" type="qcurve" smooth="yes"/>
      <point x="-554" y="205"/>
      <point x="-473" y="274"/>
      <point x="-406" y="274" type="qcurve" smooth="yes"/>
      <point x="-351" y="274"/>
      <point x="-296" y="237"/>
    </contour>
  </outline>
</glyph>
<glyph name="colon_equal.liga" format="2">
  <advance width="614"/>
  <outline>
    <contour>
      <point x="-146" y="508" type="qcurve" smooth="yes"/>
      <point x="-146" y="451"/>
      <point x="-227" y="382"/>
      <point x="-294" y="382" type="qcurve" smooth="yes"/>
      <point x="-349" y="382"/>
      <point x="-404" y="419"/>
      <point x="-404" y="455" type="qcurve" smooth="yes"/>
      <point x="-404" y="512"/>
      <point x="-323" y="581"/>
      <point x="-256" y="581" type="qcurve" smooth="yes"/>
      <point x="-201" y="581"/>
      <point x="-146" y="544"/>
    </contour>
    <contour>
      <point x="527" y="384" type="line"/>
      <point x="25" y="384" type="line"/>
      <point x="58" y="500" type="line"/>
      <point x="560" y="500" type="line"/>
    </contour>
    <contour>
      <point x="463" y="161" type="line"/>
      <point x="-39" y="161" type="line"/>
      <point x="-6" y="276" type="line"/>
      <point x="496" y="276" type="line"/>
    </contour>
    <contour>
      <point x="-233" y="201" type="qcurve" smooth="yes"/>
      <point x="-233" y="144"/>
      <point x="-314" y="75"/>
      <point x="-381" y="75" type="qcurve" smooth="yes"/>
      <point x="-436" y="75"/>
      <point x="-491" y="112"/>
      <point x="-491" y="148" type="qcurve" smooth="yes"/>
      <point x="-491" y="205"/>
      <point x="-410" y="274"/>
      <point x="-343" y="274" type="qcurve" smooth="yes"/>
      <point x="-288" y="274"/>
      <point x="-233" y="237"/>
    </contour>
  </outline>
</glyph>
<glyph name="colon_greater.liga" format="2">
  <advance width="614"/>
  <outline>
    <contour>
      <point x="528" y="385" type="line"/>
      <point x="490" y="254" type="line"/>
      <point x="-54" y="52" type="line"/>
      <point x="-12" y="195" type="line"/>
      <point x="372" y="328" type="line"/>
      <point x="64" y="462" type="line"/>
      <point x="100" y="589" type="line"/>
    </contour>
    <contour>
      <point x="-97" y="508" type="qcurve" smooth="yes"/>
      <point x="-97" y="451"/>
      <point x="-178" y="382"/>
      <point x="-245" y="382" type="qcurve" smooth="yes"/>
      <point x="-300" y="382"/>
      <point x="-355" y="419"/>
      <point x="-355" y="455" type="qcurve" smooth="yes"/>
      <point x="-355" y="512"/>
      <point x="-274" y="581"/>
      <point x="-207" y="581" type="qcurve" smooth="yes"/>
      <point x="-152" y="581"/>
      <point x="-97" y="544"/>
    </contour>
    <contour>
      <point x="-184" y="201" type="qcurve" smooth="yes"/>
      <point x="-184" y="144"/>
      <point x="-265" y="75"/>
      <point x="-332" y="75" type="qcurve" smooth="yes"/>
      <point x="-387" y="75"/>
      <point x="-442" y="112"/>
      <point x="-442" y="148" type="qcurve" smooth="yes"/>
      <point x="-442" y="205"/>
      <point x="-361" y="274"/>
      <point x="-294" y="274" type="qcurve" smooth="yes"/>
      <point x="-239" y="274"/>
      <point x="-184" y="237"/>
    </contour>
  </outline>
</glyph>
<glyph name="colon_less.liga" format="2">
  <advance width="614"/>
  <outline>
    <contour>
      <point x="-33" y="256" type="line"/>
      <point x="5" y="387" type="line"/>
      <point x="549" y="589" type="line"/>
      <point x="507" y="446" type="line"/>
      <point x="123" y="313" type="line"/>
      <point x="431" y="179" type="line"/>
      <point x="395" y="52" type="line"/>
    </contour>
    <contour>
      <point x="-98" y="508" type="qcurve" smooth="yes"/>
      <point x="-98" y="451"/>
      <point x="-179" y="382"/>
      <point x="-246" y="382" type="qcurve" smooth="yes"/>
      <point x="-301" y="382"/>
      <point x="-356" y="419"/>
      <point x="-356" y="455" type="qcurve" smooth="yes"/>
      <point x="-356" y="512"/>
      <point x="-275" y="581"/>
      <point x="-208" y="581" type="qcurve" smooth="yes"/>
      <point x="-153" y="581"/>
      <point x="-98" y="544"/>
    </contour>
    <contour>
      <point x="-185" y="201" type="qcurve" smooth="yes"/>
      <point x="-185" y="144"/>
      <point x="-266" y="75"/>
      <point x="-333" y="75" type="qcurve" smooth="yes"/>
      <point x="-388" y="75"/>
      <point x="-443" y="112"/>
      <point x="-443" y="148" type="qcurve" smooth="yes"/>
      <point x="-443" y="205"/>
      <point x="-362" y="274"/>
      <point x="-295" y="274" type="qcurve" smooth="yes"/>
      <point x="-240" y="274"/>
      <point x="-185" y="237"/>
    </contour>
  </outline>
</glyph>
<glyph name="dieresisacute" format="2">
  <outline>
    <contour>
      <point x="345" y="813" type="line"/>
      <point x="69" y="722" type="line"/>
      <point x="41" y="793" type="line"/>
      <point x="316" y="899" type="line"/>
    </contour>
    <contour>
      <point x="80" y="648" type="qcurve"/>
      <point x="80" y="616"/>
      <point x="28" y="573"/>
      <point x="-10" y="573" type="qcurve"/>
      <point x="-44" y="573"/>
      <point x="-76" y="595"/>
      <point x="-76" y="618" type="qcurve"/>
      <point x="-76" y="649"/>
      <point x="-25" y="695"/>
      <point x="15" y="695" type="qcurve"/>
      <point x="46" y="695"/>
      <point x="80" y="671"/>
    </contour>
    <contour>
      <point x="310" y="648" type="qcurve"/>
      <point x="310" y="616"/>
      <point x="259" y="573"/>
      <point x="220" y="573" type="qcurve"/>
      <point x="188" y="573"/>
      <point x="154" y="596"/>
      <point x="154" y="618" type="qcurve"/>
      <point x="154" y="650"/>
      <point x="207" y="695"/>
      <point x="245" y="695" type="qcurve"/>
      <point x="275" y="695"/>
      <point x="310" y="670"/>
    </contour>
  </outline>
</glyph>
<glyph name="dieresiscaron" format="2">
  <outline>
    <contour>
      <point x="142" y="725" type="line"/>
      <point x="2" y="861" type="line"/>
      <point x="53" y="910" type="line"/>
      <point x="170" y="825" type="line"/>
      <point x="335" y="910" type="line"/>
      <point x="370" y="855" type="line"/>
      <point x="184" y="725" type="line"/>
    </contour>
    <contour>
      <point x="80" y="648" type="qcurve"/>
      <point x="80" y="616"/>
      <point x="28" y="573"/>
      <point x="-10" y="573" type="qcurve"/>
      <point x="-44" y="573"/>
      <point x="-76" y="595"/>
      <point x="-76" y="618" type="qcurve"/>
      <point x="-76" y="649"/>
      <point x="-25" y="695"/>
      <point x="15" y="695" type="qcurve"/>
      <point x="46" y="695"/>
      <point x="80" y="671"/>
    </contour>
    <contour>
      <point x="310" y="648" type="qcurve"/>
      <point x="310" y="616"/>
      <point x="259" y="573"/>
      <point x="220" y="573" type="qcurve"/>
      <point x="188" y="573"/>
      <point x="154" y="596"/>
      <point x="154" y="618" type="qcurve"/>
      <point x="154" y="650"/>
      <point x="207" y="695"/>
      <point x="245" y="695" type="qcurve"/>
      <point x="275" y="695"/>
      <point x="310" y="670"/>
    </contour>
  </outline>
</glyph>
<glyph name="dieresisgrave.cap" format="2">
  <outline>
    <contour>
      <point x="36" y="1079" type="line"/>
      <point x="265" y="988" type="line"/>
      <point x="230" y="913" type="line"/>
      <point x="-7" y="986" type="line"/>
    </contour>
    <contour>
      <point x="119" y="834" type="qcurve"/>
      <point x="119" y="798"/>
      <point x="70" y="751"/>
      <point x="31" y="751" type="qcurve"/>
      <point x="-1" y="751"/>
      <point x="-36" y="775"/>
      <point x="-36" y="798" type="qcurve"/>
      <point x="-36" y="833"/>
      <point x="14" y="882"/>
      <point x="54" y="882" type="qcurve"/>
      <point x="87" y="882"/>
      <point x="119" y="858"/>
    </contour>
    <contour>
      <point x="369" y="834" type="qcurve"/>
      <point x="369" y="799"/>
      <point x="319" y="751"/>
      <point x="281" y="751" type="qcurve"/>
      <point x="248" y="751"/>
      <point x="214" y="775"/>
      <point x="214" y="798" type="qcurve"/>
      <point x="214" y="833"/>
      <point x="265" y="882"/>
      <point x="304" y="882" type="qcurve"/>
      <point x="335" y="882"/>
      <point x="369" y="857"/>
    </contour>
  </outline>
</glyph>
<glyph name="dollar_greater.liga" format="2">
  <advance width="614"/>
  <outline>
    <contour>
      <point x="-92" y="192" type="qcurve" smooth="yes"/>
      <point x="-92" y="102"/>
      <point x="-219" y="-1"/>
      <point x="-332" y="-1" type="qcurve" smooth="yes"/>
      <point x="-348" y="-1"/>
      <point x="-382" y="0"/>
      <point x="-398" y="2" type="qcurve"/>
      <point x="-448" y="-142" type="line"/>
      <point x="-539" y="-142" type="line"/>
      <point x="-484" y="14" type="line"/>
      <point x="-523" y="22"/>
      <point x="-598" y="43"/>
      <point x="-634" y="56" type="qcurve"/>
      <point x="-594" y="175" type="line"/>
      <point x="-507" y="145"/>
      <point x="-383" y="119"/>
      <point x="-334" y="119" type="qcurve" smooth="yes"/>
      <point x="-285" y="119"/>
      <point x="-240" y="146"/>
      <point x="-240" y="177" type="qcurve" smooth="yes"/>
      <point x="-240" y="203"/>
      <point x="-275" y="237"/>
      <point x="-324" y="262" type="qcurve" smooth="yes"/>
      <point x="-376" y="289" type="line" smooth="yes"/>
      <point x="-448" y="327"/>
      <point x="-507" y="406"/>
      <point x="-507" y="465" type="qcurve" smooth="yes"/>
      <point x="-507" y="551"/>
      <point x="-371" y="655"/>
      <point x="-254" y="655" type="qcurve" smooth="yes"/>
      <point x="-238" y="655"/>
      <point x="-222" y="655"/>
      <point x="-215" y="654" type="qcurve"/>
      <point x="-165" y="797" type="line"/>
      <point x="-74" y="797" type="line"/>
      <point x="-127" y="646" type="line"/>
      <point x="-63" y="637"/>
      <point x="68" y="598"/>
      <point x="143" y="568" type="qcurve" smooth="yes"/>
      <point x="598" y="385" type="line"/>
      <point x="560" y="254" type="line"/>
      <point x="16" y="52" type="line"/>
      <point x="58" y="195" type="line"/>
      <point x="435" y="326" type="line"/>
      <point x="98" y="450" type="line" smooth="yes"/>
      <point x="-26" y="496"/>
      <point x="-195" y="537"/>
      <point x="-257" y="537" type="qcurve" smooth="yes"/>
      <point x="-309" y="537"/>
      <point x="-360" y="506"/>
      <point x="-360" y="473" type="qcurve" smooth="yes"/>
      <point x="-360" y="452"/>
      <point x="-329" y="421"/>
      <point x="-293" y="402" type="qcurve" smooth="yes"/>
      <point x="-241" y="375" type="line" smooth="yes"/>
      <point x="-151" y="328"/>
      <point x="-92" y="255"/>
    </contour>
  </outline>
</glyph>
<glyph name="eight.den" format="2">
  <advance width="614"/>
  <outline>
    <contour>
      <point x="438" y="105" type="qcurve"/>
      <point x="438" y="53"/>
      <point x="347" y="-15"/>
      <point x="277" y="-15" type="qcurve"/>
      <point x="208" y="-15"/>
      <point x="124" y="42"/>
      <point x="124" y="88" type="qcurve"/>
      <point x="124" y="129"/>
      <point x="188" y="191"/>
      <point x="242" y="201" type="qcurve"/>
      <point x="242" y="203" type="line"/>
      <point x="216" y="216"/>
      <point x="190" y="254"/>
      <point x="190" y="277" type="qcurve"/>
      <point x="190" y="325"/>
      <point x="273" y="395"/>
      <point x="338" y="395" type="qcurve"/>
      <point x="404" y="395"/>
      <point x="482" y="340"/>
      <point x="482" y="295" type="qcurve"/>
      <point x="482" y="254"/>
      <point x="425" y="197"/>
      <point x="376" y="189" type="qcurve"/>
      <point x="376" y="187" type="line"/>
      <point x="405" y="173"/>
      <point x="438" y="130"/>
    </contour>
    <contour>
      <point x="341" y="323" type="qcurve"/>
      <point x="313" y="323"/>
      <point x="275" y="289"/>
      <point x="275" y="265" type="qcurve"/>
      <point x="275" y="245"/>
      <point x="301" y="223"/>
      <point x="324" y="223" type="qcurve"/>
      <point x="352" y="223"/>
      <point x="391" y="259"/>
      <point x="391" y="283" type="qcurve"/>
      <point x="391" y="302"/>
      <point x="365" y="323"/>
    </contour>
    <contour>
      <point x="291" y="164" type="qcurve"/>
      <point x="259" y="164"/>
      <point x="217" y="127"/>
      <point x="217" y="101" type="qcurve"/>
      <point x="217" y="80"/>
      <point x="249" y="56"/>
      <point x="276" y="56" type="qcurve"/>
      <point x="308" y="56"/>
      <point x="352" y="92"/>
      <point x="352" y="118" type="qcurve"/>
      <point x="352" y="139"/>
      <point x="319" y="164"/>
    </contour>
  </outline>
</glyph>
<glyph name="equal_asciitilde.liga" format="2">
  <advance width="614"/>
  <outline>
    <contour>
      <point x="-51" y="595" type="qcurve" smooth="yes"/>
      <point x="-22" y="595"/>
      <point x="36" y="565"/>
      <point x="85" y="525" type="qcurve" smooth="yes"/>
      <point x="121" y="495"/>
      <point x="162" y="471"/>
      <point x="180" y="471" type="qcurve" smooth="yes"/>
      <point x="192" y="471"/>
      <point x="225" y="508"/>
      <point x="291" y="601" type="qcurve"/>
      <point x="398" y="542" type="line"/>
      <point x="323" y="427"/>
      <point x="222" y="337"/>
      <point x="162" y="337" type="qcurve" smooth="yes"/>
      <point x="131" y="337"/>
      <point x="85" y="359"/>
      <point x="25" y="407" type="qcurve" smooth="yes"/>
      <point x="-12" y="437"/>
      <point x="-51" y="461"/>
      <point x="-69" y="461" type="qcurve" smooth="yes"/>
      <point x="-81" y="461"/>
      <point x="-120" y="418"/>
      <point x="-159" y="363" type="qcurve"/>
      <point x="-266" y="422" type="line"/>
      <point x="-205" y="516"/>
      <point x="-111" y="595"/>
    </contour>
    <contour>
      <point x="-109" y="323" type="qcurve" smooth="yes"/>
      <point x="-80" y="323"/>
      <point x="-22" y="293"/>
      <point x="28" y="253" type="qcurve" smooth="yes"/>
      <point x="65" y="223"/>
      <point x="104" y="199"/>
      <point x="122" y="199" type="qcurve" smooth="yes"/>
      <point x="134" y="199"/>
      <point x="173" y="242"/>
      <point x="212" y="297" type="qcurve"/>
      <point x="319" y="238" type="line"/>
      <point x="258" y="144"/>
      <point x="164" y="65"/>
      <point x="104" y="65" type="qcurve" smooth="yes"/>
      <point x="73" y="65"/>
      <point x="27" y="87"/>
      <point x="-32" y="135" type="qcurve" smooth="yes"/>
      <point x="-68" y="165"/>
      <point x="-109" y="189"/>
      <point x="-127" y="189" type="qcurve" smooth="yes"/>
      <point x="-139" y="189"/>
      <point x="-172" y="151"/>
      <point x="-237" y="59" type="qcurve"/>
      <point x="-345" y="118" type="line"/>
      <point x="-270" y="233"/>
      <point x="-169" y="323"/>
    </contour>
  </outline>
</glyph>
<glyph name="equal_bar_bar_equal.middle" format="2">
  <advance width="614"/>
  <outline>
    <contour>
      <point x="-248" y="161" type="line"/>
      <point x="-646" y="161" type="line"/>
      <point x="-613" y="276" type="line"/>
      <point x="-215" y="276" type="line"/>
      <point x="-184" y="384" type="line"/>
      <point x="-582" y="384" type="line"/>
      <point x="-549" y="500" type="line"/>
      <point x="-151" y="500" type="line"/>
      <point x="-78" y="755" type="line"/>
      <point x="52" y="755" type="line"/>
      <point x="-193" y="-100" type="line"/>
      <point x="-323" y="-100" type="line"/>
    </contour>
    <contour>
      <point x="244" y="755" type="line"/>
      <point x="374" y="755" type="line"/>
      <point x="301" y="500" type="line"/>
      <point x="699" y="500" type="line"/>
      <point x="666" y="384" type="line"/>
      <point x="268" y="384" type="line"/>
      <point x="237" y="276" type="line"/>
      <point x="635" y="276" type="line"/>
      <point x="602" y="161" type="line"/>
      <point x="204" y="161" type="line"/>
      <point x="129" y="-100" type="line"/>
      <point x="-1" y="-100" type="line"/>
    </contour>
  </outline>
</glyph>
<glyph name="equal_bar_equal.middle" format="2">
  <advance width="614"/>
  <outline>
    <contour>
      <point x="220" y="161" type="line"/>
      <point x="-32" y="161" type="line"/>
      <point x="1" y="276" type="line"/>
      <point x="253" y="276" type="line"/>
      <point x="284" y="384" type="line"/>
      <point x="32" y="384" type="line"/>
      <point x="65" y="500" type="line"/>
      <point x="317" y="500" type="line"/>
      <point x="390" y="755" type="line"/>
      <point x="520" y="755" type="line"/>
      <point x="447" y="500" type="line"/>
      <point x="699" y="500" type="line"/>
      <point x="666" y="384" type="line"/>
      <point x="414" y="384" type="line"/>
      <point x="383" y="276" type="line"/>
      <point x="635" y="276" type="line"/>
      <point x="602" y="161" type="line"/>
      <point x="350" y="161" type="line"/>
      <point x="275" y="-100" type="line"/>
      <point x="145" y="-100" type="line"/>
    </contour>
  </outline>
</glyph>
<glyph name="equal_colon_equal.middle" format="2">
  <advance width="614"/>
  <outline>
    <contour>
      <point x="506" y="508" type="qcurve" smooth="yes"/>
      <point x="506" y="451"/>
      <point x="425" y="382"/>
      <point x="358" y="382" type="qcurve" smooth="yes"/>
      <point x="303" y="382"/>
      <point x="248" y="419"/>
      <point x="248" y="455" type="qcurve" smooth="yes"/>
      <point x="248" y="512"/>
      <point x="329" y="581"/>
      <point x="396" y="581" type="qcurve" smooth="yes"/>
      <point x="451" y="581"/>
      <point x="506" y="544"/>
    </contour>
    <contour>
      <point x="47" y="384" type="line"/>
      <point x="42" y="384" type="line"/>
      <point x="75" y="500" type="line"/>
      <point x="80" y="500" type="line"/>
    </contour>
    <contour>
      <point x="656" y="384" type="line"/>
      <point x="651" y="384" type="line"/>
      <point x="684" y="500" type="line"/>
      <point x="689" y="500" type="line"/>
    </contour>
    <contour>
      <point x="-17" y="161" type="line"/>
      <point x="-22" y="161" type="line"/>
      <point x="11" y="276" type="line"/>
      <point x="16" y="276" type="line"/>
    </contour>
    <contour>
      <point x="592" y="161" type="line"/>
      <point x="587" y="161" type="line"/>
      <point x="620" y="276" type="line"/>
      <point x="625" y="276" type="line"/>
    </contour>
    <contour>
      <point x="419" y="201" type="qcurve" smooth="yes"/>
      <point x="419" y="144"/>
      <point x="338" y="75"/>
      <point x="271" y="75" type="qcurve" smooth="yes"/>
      <point x="216" y="75"/>
      <point x="161" y="112"/>
      <point x="161" y="148" type="qcurve" smooth="yes"/>
      <point x="161" y="205"/>
      <point x="242" y="274"/>
      <point x="309" y="274" type="qcurve" smooth="yes"/>
      <point x="364" y="274"/>
      <point x="419" y="237"/>
    </contour>
  </outline>
</glyph>
<glyph name="equal_equal.liga" format="2">
  <advance width="614"/>
  <outline>
    <contour>
      <point x="528" y="384" type="line"/>
      <point x="-444" y="384" type="line"/>
      <point x="-411" y="500" type="line"/>
      <point x="561" y="500" type="line"/>
    </contour>
    <contour>
      <point x="464" y="161" type="line"/>
      <point x="-508" y="161" type="line"/>
      <point x="-475" y="276" type="line"/>
      <point x="497" y="276" type="line"/>
    </contour>
  </outline>
</glyph>
<glyph name="equal_exclam_equal.middle" format="2">
  <advance width="614"/>
  <outline>
    <contour>
      <point x="367" y="277" type="line"/>
      <point x="269" y="277" type="line"/>
      <point x="311" y="710" type="line"/>
      <point x="576" y="710" type="line"/>
    </contour>
    <contour>
      <point x="57" y="384" type="line"/>
      <point x="42" y="384" type="line"/>
      <point x="75" y="500" type="line"/>
      <point x="90" y="500" type="line"/>
    </contour>
    <contour>
      <point x="656" y="384" type="line"/>
      <point x="641" y="384" type="line"/>
      <point x="674" y="500" type="line"/>
      <point x="689" y="500" type="line"/>
    </contour>
    <contour>
      <point x="-7" y="161" type="line"/>
      <point x="-22" y="161" type="line"/>
      <point x="11" y="276" type="line"/>
      <point x="26" y="276" type="line"/>
    </contour>
    <contour>
      <point x="592" y="161" type="line"/>
      <point x="577" y="161" type="line"/>
      <point x="610" y="276" type="line"/>
      <point x="625" y="276" type="line"/>
    </contour>
    <contour>
      <point x="126" y="46" type="qcurve" smooth="yes"/>
      <point x="126" y="102"/>
      <point x="200" y="161"/>
      <point x="272" y="161" type="qcurve" smooth="yes"/>
      <point x="328" y="161"/>
      <point x="380" y="132"/>
      <point x="380" y="100" type="qcurve" smooth="yes"/>
      <point x="380" y="44"/>
      <point x="306" y="-15"/>
      <point x="234" y="-15" type="qcurve" smooth="yes"/>
      <point x="178" y="-15"/>
      <point x="126" y="14"/>
    </contour>
  </outline>
</glyph>
<glyph name="equal_greater_equal.middle" format="2">
  <advance width="614"/>
  <outline>
    <contour>
      <point x="170" y="161" type="line"/>
      <point x="-32" y="161" type="line"/>
      <point x="1" y="276" type="line"/>
      <point x="325" y="276" type="line"/>
      <point x="397" y="329" type="line"/>
      <point x="353" y="384" type="line"/>
      <point x="32" y="384" type="line"/>
      <point x="65" y="500" type="line"/>
      <point x="262" y="500" type="line"/>
      <point x="185" y="598" type="line"/>
      <point x="280" y="665" type="line"/>
      <point x="410" y="500" type="line"/>
      <point x="699" y="500" type="line"/>
      <point x="666" y="384" type="line"/>
      <point x="502" y="384" type="line"/>
      <point x="561" y="309" type="line"/>
      <point x="560" y="305" type="line"/>
      <point x="521" y="276" type="line"/>
      <point x="635" y="276" type="line"/>
      <point x="602" y="161" type="line"/>
      <point x="367" y="161" type="line"/>
      <point x="136" y="-11" type="line"/>
      <point x="62" y="81" type="line"/>
    </contour>
  </outline>
</glyph>
<glyph name="equal_greater_greater.liga" format="2">
  <advance width="614"/>
  <outline>
    <contour>
      <point x="561" y="309" type="line"/>
      <point x="560" y="305" type="line"/>
      <point x="146" y="-11" type="line"/>
      <point x="72" y="81" type="line"/>
      <point x="399" y="329" type="line"/>
      <point x="195" y="598" type="line"/>
      <point x="290" y="665" type="line"/>
    </contour>
    <contour>
      <point x="211" y="309" type="line"/>
      <point x="210" y="305" type="line"/>
      <point x="-214" y="-11" type="line"/>
      <point x="-288" y="81" type="line"/>
      <point x="-180" y="161" type="line"/>
      <point x="-1169" y="161" type="line"/>
      <point x="-1136" y="276" type="line"/>
      <point x="-25" y="276" type="line"/>
      <point x="47" y="329" type="line"/>
      <point x="3" y="384" type="line"/>
      <point x="-1105" y="384" type="line"/>
      <point x="-1072" y="500" type="line"/>
      <point x="-88" y="500" type="line"/>
      <point x="-165" y="598" type="line"/>
      <point x="-70" y="665" type="line"/>
    </contour>
  </outline>
</glyph>
<glyph name="equal_less_less_equal.middle" format="2">
  <advance width="614"/>
  <outline>
    <contour>
      <point x="170" y="573" type="line"/>
      <point x="-79" y="384" type="line"/>
      <point x="-582" y="384" type="line"/>
      <point x="-549" y="500" type="line"/>
      <point x="-120" y="500" type="line"/>
      <point x="96" y="665" type="line"/>
    </contour>
    <contour>
      <point x="312" y="-11" type="line"/>
      <point x="31" y="345" type="line"/>
      <point x="32" y="349" type="line"/>
      <point x="456" y="665" type="line"/>
      <point x="530" y="573" type="line"/>
      <point x="431" y="500" type="line"/>
      <point x="699" y="500" type="line"/>
      <point x="666" y="384" type="line"/>
      <point x="275" y="384" type="line"/>
      <point x="195" y="325" type="line"/>
      <point x="234" y="276" type="line"/>
      <point x="635" y="276" type="line"/>
      <point x="602" y="161" type="line"/>
      <point x="324" y="161" type="line"/>
      <point x="407" y="56" type="line"/>
    </contour>
    <contour>
      <point x="-179" y="161" type="line"/>
      <point x="-646" y="161" type="line"/>
      <point x="-613" y="276" type="line"/>
      <point x="-120" y="276" type="line"/>
      <point x="47" y="56" type="line"/>
      <point x="-48" y="-11" type="line"/>
    </contour>
  </outline>
</glyph>
<glyph name="equal_slash.end" format="2">
  <advance width="614"/>
  <outline>
    <contour>
      <point x="36" y="161" type="line"/>
      <point x="-646" y="161" type="line"/>
      <point x="-613" y="276" type="line"/>
      <point x="122" y="276" type="line"/>
      <point x="204" y="384" type="line"/>
      <point x="-582" y="384" type="line"/>
      <point x="-549" y="500" type="line"/>
      <point x="291" y="500" type="line"/>
      <point x="483" y="755" type="line"/>
      <point x="626" y="755" type="line"/>
      <point x="-17" y="-100" type="line"/>
      <point x="-161" y="-100" type="line"/>
    </contour>
  </outline>
</glyph>
<glyph name="equal_slash_slash.end" format="2">
  <advance width="614"/>
  <outline>
    <contour>
      <point x="573" y="755" type="line"/>
      <point x="716" y="755" type="line"/>
      <point x="73" y="-100" type="line"/>
      <point x="-71" y="-100" type="line"/>
    </contour>
    <contour>
      <point x="247" y="755" type="line"/>
      <point x="390" y="755" type="line"/>
      <point x="-253" y="-100" type="line"/>
      <point x="-397" y="-100" type="line"/>
      <point x="-200" y="161" type="line"/>
      <point x="-1260" y="161" type="line"/>
      <point x="-1227" y="276" type="line"/>
      <point x="-114" y="276" type="line"/>
      <point x="-32" y="384" type="line"/>
      <point x="-1196" y="384" type="line"/>
      <point x="-1163" y="500" type="line"/>
      <point x="55" y="500" type="line"/>
    </contour>
  </outline>
</glyph>
<glyph name="equal_slash_slash.liga" format="2">
  <advance width="614"/>
  <outline>
    <contour>
      <point x="573" y="755" type="line"/>
      <point x="716" y="755" type="line"/>
      <point x="73" y="-100" type="line"/>
      <point x="-71" y="-100" type="line"/>
    </contour>
    <contour>
      <point x="247" y="755" type="line"/>
      <point x="390" y="755" type="line"/>
      <point x="-253" y="-100" type="line"/>
      <point x="-397" y="-100" type="line"/>
      <point x="-200" y="161" type="line"/>
      <point x="-1169" y="161" type="line"/>
      <point x="-1136" y="276" type="line"/>
      <point x="-114" y="276" type="line"/>
      <point x="-32" y="384" type="line"/>
      <point x="-1105" y="384" type="line"/>
      <point x="-1072" y="500" type="line"/>
      <point x="55" y="500" type="line"/>
    </contour>
  </outline>
</glyph>
<glyph name="equal_slash_slash_equal.middle" format="2">
  <advance width="614"/>
  <outline>
    <contour>
      <point x="100" y="755" type="line"/>
      <point x="243" y="755" type="line"/>
      <point x="-400" y="-100" type="line"/>
      <point x="-544" y="-100" type="line"/>
      <point x="-347" y="161" type="line"/>
      <point x="-646" y="161" type="line"/>
      <point x="-613" y="276" type="line"/>
      <point x="-261" y="276" type="line"/>
      <point x="-179" y="384" type="line"/>
      <point x="-582" y="384" type="line"/>
      <point x="-549" y="500" type="line"/>
      <point x="-92" y="500" type="line"/>
    </contour>
    <contour>
      <point x="452" y="755" type="line"/>
      <point x="595" y="755" type="line"/>
      <point x="403" y="500" type="line"/>
      <point x="699" y="500" type="line"/>
      <point x="666" y="384" type="line"/>
      <point x="316" y="384" type="line"/>
      <point x="235" y="276" type="line"/>
      <point x="635" y="276" type="line"/>
      <point x="602" y="161" type="line"/>
      <point x="148" y="161" type="line"/>
      <point x="-48" y="-100" type="line"/>
      <point x="-192" y="-100" type="line"/>
    </contour>
  </outline>
</glyph>
<glyph name="exclam_asciitilde.liga" format="2">
  <advance width="614"/>
  <outline>
    <contour>
      <point x="112" y="199" type="qcurve" smooth="yes"/>
      <point x="127" y="199"/>
      <point x="170" y="241"/>
      <point x="202" y="287" type="qcurve"/>
      <point x="309" y="228" type="line"/>
      <point x="252" y="139"/>
      <point x="162" y="65"/>
      <point x="104" y="65" type="qcurve" smooth="yes"/>
      <point x="73" y="65"/>
      <point x="27" y="87"/>
      <point x="-35" y="138" type="qcurve"/>
      <point x="-156" y="-100" type="line"/>
      <point x="-271" y="-100" type="line"/>
      <point x="-98" y="182" type="line"/>
      <point x="-105" y="186"/>
      <point x="-117" y="189"/>
      <point x="-127" y="189" type="qcurve" smooth="yes"/>
      <point x="-145" y="189"/>
      <point x="-195" y="133"/>
      <point x="-247" y="59" type="qcurve"/>
      <point x="-355" y="118" type="line"/>
      <point x="-280" y="233"/>
      <point x="-179" y="323"/>
      <point x="-119" y="323" type="qcurve" smooth="yes"/>
      <point x="-94" y="323"/>
      <point x="-53" y="310"/>
      <point x="-29" y="295" type="qcurve"/>
      <point x="-2" y="339" type="line"/>
      <point x="30" y="403" type="line"/>
      <point x="-17" y="442"/>
      <point x="-47" y="461"/>
      <point x="-59" y="461" type="qcurve" smooth="yes"/>
      <point x="-74" y="461"/>
      <point x="-117" y="418"/>
      <point x="-149" y="373" type="qcurve"/>
      <point x="-256" y="432" type="line"/>
      <point x="-199" y="521"/>
      <point x="-109" y="595"/>
      <point x="-51" y="595" type="qcurve" smooth="yes"/>
      <point x="-22" y="595"/>
      <point x="36" y="565"/>
      <point x="90" y="521" type="qcurve"/>
      <point x="209" y="755" type="line"/>
      <point x="322" y="755" type="line"/>
      <point x="153" y="477" type="line"/>
      <point x="159" y="474"/>
      <point x="171" y="471"/>
      <point x="180" y="471" type="qcurve" smooth="yes"/>
      <point x="192" y="471"/>
      <point x="223" y="506"/>
      <point x="291" y="601" type="qcurve"/>
      <point x="408" y="542" type="line"/>
      <point x="333" y="427"/>
      <point x="232" y="337"/>
      <point x="172" y="337" type="qcurve" smooth="yes"/>
      <point x="145" y="337"/>
      <point x="107" y="348"/>
      <point x="84" y="363" type="qcurve"/>
      <point x="56" y="317" type="line"/>
      <point x="25" y="256" type="line"/>
      <point x="70" y="218"/>
      <point x="100" y="199"/>
    </contour>
  </outline>
</glyph>
<glyph name="fracbar" format="2">
  <advance width="614"/>
  <outline>
    <contour>
      <point x="614" y="407" type="line"/>
      <point x="317" y="182" type="line"/>
      <point x="73" y="-101" type="line"/>
      <point x="0" y="-21" type="line"/>
      <point x="299" y="204" type="line"/>
      <point x="541" y="487" type="line"/>
    </contour>
  </outline>
</glyph>
<glyph name="greater_colon.liga" format="2">
  <advance width="614"/>
  <outline>
    <contour>
      <point x="82" y="385" type="line"/>
      <point x="44" y="254" type="line"/>
      <point x="-500" y="52" type="line"/>
      <point x="-458" y="195" type="line"/>
      <point x="-74" y="328" type="line"/>
      <point x="-382" y="462" type="line"/>
      <point x="-346" y="589" type="line"/>
    </contour>
    <contour>
      <point x="494" y="508" type="qcurve" smooth="yes"/>
      <point x="494" y="451"/>
      <point x="413" y="382"/>
      <point x="346" y="382" type="qcurve" smooth="yes"/>
      <point x="291" y="382"/>
      <point x="236" y="419"/>
      <point x="236" y="455" type="qcurve" smooth="yes"/>
      <point x="236" y="512"/>
      <point x="317" y="581"/>
      <point x="384" y="581" type="qcurve" smooth="yes"/>
      <point x="439" y="581"/>
      <point x="494" y="544"/>
    </contour>
    <contour>
      <point x="407" y="201" type="qcurve" smooth="yes"/>
      <point x="407" y="144"/>
      <point x="326" y="75"/>
      <point x="259" y="75" type="qcurve" smooth="yes"/>
      <point x="204" y="75"/>
      <point x="149" y="112"/>
      <point x="149" y="148" type="qcurve" smooth="yes"/>
      <point x="149" y="205"/>
      <point x="230" y="274"/>
      <point x="297" y="274" type="qcurve" smooth="yes"/>
      <point x="352" y="274"/>
      <point x="407" y="237"/>
    </contour>
  </outline>
</glyph>
<glyph name="greater_equal" format="2">
  <advance width="614"/>
  <outline>
    <contour>
      <point x="342" y="495" type="line"/>
      <point x="305" y="364" type="line"/>
      <point x="-267" y="192" type="line"/>
      <point x="-226" y="333" type="line"/>
      <point x="149" y="437" type="line"/>
      <point x="-167" y="540" type="line"/>
      <point x="-130" y="669" type="line"/>
    </contour>
    <contour>
      <point x="233" y="116" type="line"/>
      <point x="200" y="0" type="line"/>
      <point x="-322" y="0" type="line"/>
      <point x="-289" y="116" type="line"/>
    </contour>
  </outline>
</glyph>
<glyph name="greater_equal.liga" format="2">
  <advance width="614"/>
  <outline>
    <contour>
      <point x="-204" y="500" type="line"/>
      <point x="608" y="500" type="line"/>
      <point x="575" y="384" type="line"/>
      <point x="-259" y="384" type="line"/>
      <point x="-429" y="598" type="line"/>
      <point x="-334" y="665" type="line"/>
    </contour>
    <contour>
      <point x="-552" y="81" type="line"/>
      <point x="-288" y="276" type="line"/>
      <point x="544" y="276" type="line"/>
      <point x="511" y="161" type="line"/>
      <point x="-248" y="161" type="line"/>
      <point x="-478" y="-11" type="line"/>
    </contour>
  </outline>
</glyph>
<glyph name="greater_greater_equal.liga" format="2">
  <advance width="614"/>
  <outline>
    <contour>
      <point x="-462" y="500" type="line"/>
      <point x="608" y="500" type="line"/>
      <point x="575" y="384" type="line"/>
      <point x="-521" y="384" type="line"/>
      <point x="-683" y="598" type="line"/>
      <point x="-588" y="665" type="line"/>
    </contour>
    <contour>
      <point x="-667" y="309" type="line"/>
      <point x="-668" y="305" type="line"/>
      <point x="-1092" y="-11" type="line"/>
      <point x="-1166" y="81" type="line"/>
      <point x="-831" y="329" type="line"/>
      <point x="-1043" y="598" type="line"/>
      <point x="-948" y="665" type="line"/>
    </contour>
    <contour>
      <point x="-806" y="81" type="line"/>
      <point x="-549" y="276" type="line"/>
      <point x="544" y="276" type="line"/>
      <point x="511" y="161" type="line"/>
      <point x="-508" y="161" type="line"/>
      <point x="-732" y="-11" type="line"/>
    </contour>
  </outline>
</glyph>
<glyph name="greater_greater_hyphen.start" format="2">
  <advance width="614"/>
  <outline>
    <contour>
      <point x="-667" y="309" type="line"/>
      <point x="-668" y="305" type="line"/>
      <point x="-1092" y="-11" type="line"/>
      <point x="-1166" y="81" type="line"/>
      <point x="-831" y="329" type="line"/>
      <point x="-1043" y="598" type="line"/>
      <point x="-948" y="665" type="line"/>
    </contour>
    <contour>
      <point x="-387" y="388" type="line"/>
      <point x="667" y="388" type="line"/>
      <point x="634" y="272" type="line"/>
      <point x="-371" y="272" type="line"/>
      <point x="-742" y="-11" type="line"/>
      <point x="-816" y="81" type="line"/>
      <point x="-489" y="329" type="line"/>
      <point x="-693" y="598" type="line"/>
      <point x="-598" y="665" type="line"/>
    </contour>
  </outline>
</glyph>
<glyph name="hookcmb.cap" format="2">
  <outline>
    <contour>
      <point x="311" y="858" type="qcurve"/>
      <point x="311" y="811"/>
      <point x="192" y="753"/>
      <point x="52" y="731" type="qcurve"/>
      <point x="38" y="788" type="line"/>
      <point x="39" y="790" type="line"/>
      <point x="118" y="808"/>
      <point x="180" y="830"/>
      <point x="180" y="843" type="qcurve"/>
      <point x="180" y="856"/>
      <point x="118" y="875"/>
      <point x="50" y="884" type="qcurve"/>
      <point x="50" y="886" type="line"/>
      <point x="122" y="955" type="line"/>
      <point x="218" y="944"/>
      <point x="311" y="897"/>
    </contour>
  </outline>
</glyph>
<glyph name="hyphen.end" format="2">
  <advance width="614"/>
  <outline>
    <contour>
      <point x="561" y="272" type="line"/>
      <point x="0" y="272" type="line"/>
      <point x="33" y="388" type="line"/>
      <point x="594" y="388" type="line"/>
    </contour>
  </outline>
</glyph>
<glyph name="hyphen_asciitilde.liga" format="2">
  <advance width="614"/>
  <outline>
    <contour>
      <point x="175" y="433" type="qcurve" smooth="yes"/>
      <point x="199" y="433"/>
      <point x="239" y="412"/>
      <point x="264" y="388" type="qcurve" smooth="yes"/>
      <point x="302" y="352"/>
      <point x="326" y="334"/>
      <point x="336" y="334" type="qcurve" smooth="yes"/>
      <point x="346" y="334"/>
      <point x="374" y="372"/>
      <point x="430" y="464" type="qcurve"/>
      <point x="530" y="405" type="line"/>
      <point x="466" y="290"/>
      <point x="381" y="200"/>
      <point x="329" y="200" type="qcurve" smooth="yes"/>
      <point x="303" y="200"/>
      <point x="264" y="222"/>
      <point x="213" y="270" type="qcurve" smooth="yes"/>
      <point x="191" y="291"/>
      <point x="153" y="308"/>
      <point x="128" y="308" type="qcurve" smooth="yes"/>
      <point x="121" y="308"/>
      <point x="102" y="304"/>
      <point x="80" y="296" type="qcurve" smooth="yes"/>
      <point x="42" y="282"/>
      <point x="-10" y="272"/>
      <point x="-36" y="272" type="qcurve" smooth="yes"/>
      <point x="-404" y="272" type="line"/>
      <point x="-371" y="388" type="line"/>
      <point x="-20" y="388" type="line" smooth="yes"/>
      <point x="5" y="388"/>
      <point x="55" y="398"/>
      <point x="97" y="414" type="qcurve" smooth="yes"/>
      <point x="129" y="426"/>
      <point x="161" y="433"/>
    </contour>
  </outline>
</glyph>
<glyph name="hyphen_bar.liga" format="2">
  <advance width="614"/>
  <outline>
    <contour>
      <point x="252" y="272" type="line"/>
      <point x="-542" y="272" type="line"/>
      <point x="-509" y="388" type="line"/>
      <point x="285" y="388" type="line"/>
      <point x="390" y="755" type="line"/>
      <point x="520" y="755" type="line"/>
      <point x="275" y="-100" type="line"/>
      <point x="145" y="-100" type="line"/>
    </contour>
  </outline>
</glyph>
<glyph name="hyphen_bar_bar.liga" format="2">
  <advance width="614"/>
  <outline>
    <contour>
      <point x="68" y="755" type="line"/>
      <point x="198" y="755" type="line"/>
      <point x="-47" y="-100" type="line"/>
      <point x="-177" y="-100" type="line"/>
      <point x="-70" y="272" type="line"/>
      <point x="-1155" y="272" type="line"/>
      <point x="-1122" y="388" type="line"/>
      <point x="-37" y="388" type="line"/>
    </contour>
    <contour>
      <point x="390" y="755" type="line"/>
      <point x="520" y="755" type="line"/>
      <point x="275" y="-100" type="line"/>
      <point x="145" y="-100" type="line"/>
    </contour>
  </outline>
</glyph>
<glyph name="hyphen_bar_hyphen.middle" format="2">
  <advance width="614"/>
  <outline>
    <contour>
      <point x="252" y="272" type="line"/>
      <point x="0" y="272" type="line"/>
      <point x="33" y="388" type="line"/>
      <point x="285" y="388" type="line"/>
      <point x="390" y="755" type="line"/>
      <point x="520" y="755" type="line"/>
      <point x="415" y="388" type="line"/>
      <point x="667" y="388" type="line"/>
      <point x="634" y="272" type="line"/>
      <point x="382" y="272" type="line"/>
      <point x="275" y="-100" type="line"/>
      <point x="145" y="-100" type="line"/>
    </contour>
  </outline>
</glyph>
<glyph name="hyphen_greater_greater.end" format="2">
  <advance width="614"/>
  <outline>
    <contour>
      <point x="561" y="309" type="line"/>
      <point x="560" y="305" type="line"/>
      <point x="146" y="-11" type="line"/>
      <point x="72" y="81" type="line"/>
      <point x="399" y="329" type="line"/>
      <point x="195" y="598" type="line"/>
      <point x="290" y="665" type="line"/>
    </contour>
    <contour>
      <point x="211" y="309" type="line"/>
      <point x="210" y="305" type="line"/>
      <point x="-214" y="-11" type="line"/>
      <point x="-288" y="81" type="line"/>
      <point x="-30" y="272" type="line"/>
      <point x="-1228" y="272" type="line"/>
      <point x="-1195" y="388" type="line"/>
      <point x="0" y="388" type="line"/>
      <point x="-165" y="598" type="line"/>
      <point x="-70" y="665" type="line"/>
    </contour>
  </outline>
</glyph>
<glyph name="hyphen_greater_greater.liga" format="2">
  <advance width="614"/>
  <outline>
    <contour>
      <point x="561" y="309" type="line"/>
      <point x="560" y="305" type="line"/>
      <point x="146" y="-11" type="line"/>
      <point x="72" y="81" type="line"/>
      <point x="399" y="329" type="line"/>
      <point x="195" y="598" type="line"/>
      <point x="290" y="665" type="line"/>
    </contour>
    <contour>
      <point x="212" y="309" type="line"/>
      <point x="211" y="305" type="line"/>
      <point x="-213" y="-11" type="line"/>
      <point x="-287" y="81" type="line"/>
      <point x="-29" y="272" type="line"/>
      <point x="-1155" y="272" type="line"/>
      <point x="-1122" y="388" type="line"/>
      <point x="1" y="388" type="line"/>
      <point x="-164" y="598" type="line"/>
      <point x="-69" y="665" type="line"/>
    </contour>
  </outline>
</glyph>
<glyph name="hyphen_greater_greater_hyphen.m" format="2">
  <advance width="614"/>
  <outline>
    <contour>
      <point x="877" y="388" type="line"/>
      <point x="844" y="272" type="line"/>
      <point x="356" y="272" type="line"/>
      <point x="-15" y="-11" type="line"/>
      <point x="-89" y="81" type="line"/>
      <point x="238" y="329" type="line"/>
      <point x="34" y="598" type="line"/>
      <point x="129" y="665" type="line"/>
      <point x="340" y="388" type="line"/>
    </contour>
    <contour>
      <point x="50" y="309" type="line"/>
      <point x="49" y="305" type="line"/>
      <point x="-375" y="-11" type="line"/>
      <point x="-449" y="81" type="line"/>
      <point x="-191" y="272" type="line"/>
      <point x="-824" y="272" type="line"/>
      <point x="-791" y="388" type="line"/>
      <point x="-161" y="388" type="line"/>
      <point x="-326" y="598" type="line"/>
      <point x="-231" y="665" type="line"/>
    </contour>
  </outline>
</glyph>
<glyph name="hyphen_less_less.end" format="2">
  <advance width="614"/>
  <outline>
    <contour>
      <point x="381" y="-11" type="line"/>
      <point x="100" y="345" type="line"/>
      <point x="101" y="349" type="line"/>
      <point x="525" y="665" type="line"/>
      <point x="599" y="573" type="line"/>
      <point x="264" y="325" type="line"/>
      <point x="476" y="56" type="line"/>
    </contour>
    <contour>
      <point x="-88" y="325" type="line"/>
      <point x="116" y="56" type="line"/>
      <point x="21" y="-11" type="line"/>
      <point x="-194" y="272" type="line"/>
      <point x="-1228" y="272" type="line"/>
      <point x="-1195" y="388" type="line"/>
      <point x="-198" y="388" type="line"/>
      <point x="165" y="665" type="line"/>
      <point x="239" y="573" type="line"/>
    </contour>
  </outline>
</glyph>
